<ttFont>
    <TTGlyph name="A" xMin="44" yMin="-49" xMax="1207" yMax="723">
      <contour>
        <pt x="781" y="95" on="1"/>
        <pt x="781" y="92" on="0"/>
        <pt x="780" y="91" on="1"/>
        <pt x="783" y="95" on="1"/>
      </contour>
      <contour>
        <pt x="686" y="355" on="1"/>
        <pt x="635" y="355" on="0"/>
        <pt x="605" y="328" on="1"/>
        <pt x="625" y="326" on="0"/>
        <pt x="636" y="326" on="1"/>
        <pt x="697" y="326" on="0"/>
        <pt x="697" y="347" on="1"/>
        <pt x="697" y="355" on="0"/>
      </contour>
      <contour>
        <pt x="804" y="294" on="1"/>
        <pt x="700" y="189" on="0"/>
        <pt x="646" y="141" on="1"/>
        <pt x="697" y="113" on="0"/>
        <pt x="770" y="109" on="1"/>
        <pt x="800" y="220" on="0"/>
      </contour>
      <contour>
        <pt x="1121" y="628" on="1"/>
        <pt x="875" y="367" on="0"/>
        <pt x="826" y="317" on="1"/>
        <pt x="823" y="255" on="0"/>
        <pt x="785" y="108" on="1"/>
        <pt x="792" y="108" on="1"/>
        <pt x="837" y="171" on="0"/>
        <pt x="853" y="198" on="0"/>
        <pt x="922" y="306" on="1"/>
        <pt x="1125" y="624" on="0"/>
        <pt x="1125" y="626" on="1"/>
      </contour>
      <contour>
        <pt x="632" y="150" on="1"/>
        <pt x="710" y="219" on="0"/>
        <pt x="805" y="317" on="1"/>
        <pt x="805" y="392" on="0"/>
        <pt x="774" y="470" on="1"/>
        <pt x="757" y="515" on="0"/>
        <pt x="704" y="586" on="0"/>
        <pt x="613" y="634" on="0"/>
        <pt x="556" y="634" on="1"/>
        <pt x="444" y="634" on="0"/>
        <pt x="444" y="510" on="1"/>
        <pt x="444" y="455" on="0"/>
        <pt x="525" y="347" on="0"/>
        <pt x="591" y="331" on="1"/>
        <pt x="635" y="372" on="0"/>
        <pt x="698" y="372" on="1"/>
        <pt x="731" y="372" on="0"/>
        <pt x="731" y="354" on="1"/>
        <pt x="731" y="340" on="0"/>
        <pt x="681" y="309" on="0"/>
        <pt x="616" y="309" on="0"/>
        <pt x="591" y="314" on="1"/>
        <pt x="570" y="288" on="0"/>
        <pt x="570" y="254" on="1"/>
        <pt x="570" y="193" on="0"/>
      </contour>
      <contour>
        <pt x="193" y="113" on="1"/>
        <pt x="193" y="129" on="0"/>
        <pt x="222" y="156" on="0"/>
        <pt x="236" y="162" on="1"/>
        <pt x="250" y="167" on="1"/>
        <pt x="265" y="167" on="0"/>
        <pt x="265" y="157" on="1"/>
        <pt x="265" y="147" on="0"/>
        <pt x="252" y="144" on="1"/>
        <pt x="225" y="138" on="0"/>
        <pt x="225" y="118" on="1"/>
        <pt x="225" y="89" on="0"/>
        <pt x="272" y="89" on="1"/>
        <pt x="360" y="89" on="0"/>
        <pt x="459" y="156" on="0"/>
        <pt x="459" y="201" on="1"/>
        <pt x="459" y="231" on="0"/>
        <pt x="402" y="272" on="0"/>
        <pt x="339" y="272" on="1"/>
        <pt x="220" y="272" on="0"/>
        <pt x="64" y="159" on="0"/>
        <pt x="64" y="91" on="1"/>
        <pt x="64" y="40" on="0"/>
        <pt x="166" y="-28" on="0"/>
        <pt x="352" y="-28" on="0"/>
        <pt x="517" y="49" on="0"/>
        <pt x="614" y="133" on="1"/>
        <pt x="549" y="173" on="0"/>
        <pt x="549" y="239" on="1"/>
        <pt x="549" y="281" on="0"/>
        <pt x="578" y="318" on="1"/>
        <pt x="509" y="340" on="0"/>
        <pt x="420" y="463" on="0"/>
        <pt x="420" y="582" on="0"/>
        <pt x="494" y="653" on="0"/>
        <pt x="569" y="653" on="1"/>
        <pt x="669" y="653" on="0"/>
        <pt x="825" y="474" on="0"/>
        <pt x="827" y="340" on="1"/>
        <pt x="896" y="413" on="0"/>
        <pt x="1039" y="566" on="1"/>
        <pt x="1162" y="698" on="1"/>
        <pt x="1187" y="723" on="0"/>
        <pt x="1200" y="723" on="0"/>
        <pt x="1207" y="715" on="0"/>
        <pt x="1207" y="698" on="0"/>
        <pt x="1186" y="682" on="0"/>
        <pt x="1065" y="489" on="0"/>
        <pt x="882" y="194" on="0"/>
        <pt x="826" y="109" on="1"/>
        <pt x="882" y="116" on="0"/>
        <pt x="946" y="144" on="1"/>
        <pt x="966" y="153" on="0"/>
        <pt x="975" y="153" on="0"/>
        <pt x="975" y="148" on="1"/>
        <pt x="975" y="138" on="0"/>
        <pt x="959" y="133" on="1"/>
        <pt x="897" y="104" on="0"/>
        <pt x="817" y="96" on="1"/>
        <pt x="732" y="-32" on="0"/>
        <pt x="718" y="-32" on="1"/>
        <pt x="708" y="-32" on="0"/>
        <pt x="708" y="-12" on="0"/>
        <pt x="728" y="15" on="1"/>
        <pt x="754" y="53" on="1"/>
        <pt x="767" y="95" on="1"/>
        <pt x="682" y="98" on="0"/>
        <pt x="629" y="125" on="1"/>
        <pt x="522" y="31" on="0"/>
        <pt x="348" y="-49" on="0"/>
        <pt x="148" y="-49" on="0"/>
        <pt x="44" y="26" on="0"/>
        <pt x="44" y="83" on="1"/>
        <pt x="44" y="161" on="0"/>
        <pt x="213" y="293" on="0"/>
        <pt x="343" y="293" on="1"/>
        <pt x="494" y="293" on="0"/>
        <pt x="494" y="208" on="1"/>
        <pt x="494" y="162" on="0"/>
        <pt x="405" y="96" on="0"/>
        <pt x="308" y="71" on="0"/>
        <pt x="271" y="71" on="1"/>
        <pt x="193" y="71" on="0"/>
      </contour>
    </TTGlyph>
    <TTGlyph name="AE" xMin="44" yMin="-49" xMax="1590" yMax="723">
      <contour>
        <pt x="781" y="95" on="1"/>
        <pt x="781" y="92" on="0"/>
        <pt x="780" y="91" on="1"/>
        <pt x="783" y="95" on="1"/>
      </contour>
      <contour>
        <pt x="686" y="355" on="1"/>
        <pt x="635" y="355" on="0"/>
        <pt x="605" y="328" on="1"/>
        <pt x="625" y="326" on="0"/>
        <pt x="636" y="326" on="1"/>
        <pt x="697" y="326" on="0"/>
        <pt x="697" y="347" on="1"/>
        <pt x="697" y="355" on="0"/>
      </contour>
      <contour>
        <pt x="1334" y="517" on="1"/>
        <pt x="1313" y="516" on="1"/>
        <pt x="1338" y="483" on="0"/>
        <pt x="1380" y="483" on="1"/>
        <pt x="1406" y="483" on="0"/>
        <pt x="1406" y="494" on="1"/>
        <pt x="1406" y="513" on="0"/>
      </contour>
      <contour>
        <pt x="886" y="202" on="1"/>
        <pt x="826" y="109" on="1"/>
        <pt x="861" y="114" on="0"/>
        <pt x="885" y="122" on="1"/>
        <pt x="882" y="138" on="0"/>
        <pt x="882" y="182" on="0"/>
      </contour>
      <contour>
        <pt x="804" y="294" on="1"/>
        <pt x="700" y="189" on="0"/>
        <pt x="646" y="141" on="1"/>
        <pt x="697" y="113" on="0"/>
        <pt x="770" y="109" on="1"/>
        <pt x="800" y="220" on="0"/>
      </contour>
      <contour>
        <pt x="1121" y="628" on="1"/>
        <pt x="875" y="367" on="0"/>
        <pt x="826" y="317" on="1"/>
        <pt x="823" y="255" on="0"/>
        <pt x="785" y="108" on="1"/>
        <pt x="792" y="108" on="1"/>
        <pt x="837" y="171" on="0"/>
        <pt x="853" y="198" on="0"/>
        <pt x="922" y="306" on="1"/>
        <pt x="1125" y="624" on="0"/>
        <pt x="1125" y="626" on="1"/>
      </contour>
      <contour>
        <pt x="632" y="150" on="1"/>
        <pt x="710" y="219" on="0"/>
        <pt x="805" y="317" on="1"/>
        <pt x="805" y="392" on="0"/>
        <pt x="774" y="470" on="1"/>
        <pt x="757" y="515" on="0"/>
        <pt x="704" y="586" on="0"/>
        <pt x="613" y="634" on="0"/>
        <pt x="556" y="634" on="1"/>
        <pt x="444" y="634" on="0"/>
        <pt x="444" y="510" on="1"/>
        <pt x="444" y="455" on="0"/>
        <pt x="525" y="347" on="0"/>
        <pt x="591" y="331" on="1"/>
        <pt x="635" y="372" on="0"/>
        <pt x="698" y="372" on="1"/>
        <pt x="731" y="372" on="0"/>
        <pt x="731" y="354" on="1"/>
        <pt x="731" y="340" on="0"/>
        <pt x="681" y="309" on="0"/>
        <pt x="616" y="309" on="0"/>
        <pt x="591" y="314" on="1"/>
        <pt x="570" y="288" on="0"/>
        <pt x="570" y="254" on="1"/>
        <pt x="570" y="193" on="0"/>
      </contour>
      <contour>
        <pt x="1023" y="107" on="1"/>
        <pt x="1006" y="107" on="0"/>
        <pt x="1006" y="154" on="1"/>
        <pt x="1006" y="249" on="0"/>
        <pt x="1154" y="391" on="0"/>
        <pt x="1261" y="391" on="1"/>
        <pt x="1339" y="391" on="0"/>
        <pt x="1417" y="325" on="0"/>
        <pt x="1417" y="225" on="0"/>
        <pt x="1362" y="121" on="0"/>
        <pt x="1268" y="33" on="0"/>
        <pt x="1130" y="-24" on="0"/>
        <pt x="988" y="-24" on="0"/>
        <pt x="901" y="50" on="0"/>
        <pt x="887" y="108" on="1"/>
        <pt x="854" y="100" on="0"/>
        <pt x="817" y="96" on="1"/>
        <pt x="732" y="-32" on="0"/>
        <pt x="718" y="-32" on="1"/>
        <pt x="708" y="-32" on="0"/>
        <pt x="708" y="-12" on="0"/>
        <pt x="728" y="15" on="1"/>
        <pt x="754" y="53" on="1"/>
        <pt x="767" y="95" on="1"/>
        <pt x="682" y="98" on="0"/>
        <pt x="629" y="125" on="1"/>
        <pt x="522" y="31" on="0"/>
        <pt x="348" y="-49" on="0"/>
        <pt x="148" y="-49" on="0"/>
        <pt x="44" y="26" on="0"/>
        <pt x="44" y="83" on="1"/>
        <pt x="44" y="161" on="0"/>
        <pt x="213" y="293" on="0"/>
        <pt x="343" y="293" on="1"/>
        <pt x="494" y="293" on="0"/>
        <pt x="494" y="208" on="1"/>
        <pt x="494" y="162" on="0"/>
        <pt x="405" y="96" on="0"/>
        <pt x="308" y="71" on="0"/>
        <pt x="271" y="71" on="1"/>
        <pt x="193" y="71" on="0"/>
        <pt x="193" y="113" on="1"/>
        <pt x="193" y="129" on="0"/>
        <pt x="222" y="156" on="0"/>
        <pt x="236" y="162" on="1"/>
        <pt x="250" y="167" on="1"/>
        <pt x="265" y="167" on="0"/>
        <pt x="265" y="157" on="1"/>
        <pt x="265" y="147" on="0"/>
        <pt x="252" y="144" on="1"/>
        <pt x="225" y="138" on="0"/>
        <pt x="225" y="118" on="1"/>
        <pt x="225" y="89" on="0"/>
        <pt x="272" y="89" on="1"/>
        <pt x="360" y="89" on="0"/>
        <pt x="459" y="156" on="0"/>
        <pt x="459" y="201" on="1"/>
        <pt x="459" y="231" on="0"/>
        <pt x="402" y="272" on="0"/>
        <pt x="339" y="272" on="1"/>
        <pt x="220" y="272" on="0"/>
        <pt x="64" y="159" on="0"/>
        <pt x="64" y="91" on="1"/>
        <pt x="64" y="40" on="0"/>
        <pt x="166" y="-28" on="0"/>
        <pt x="352" y="-28" on="0"/>
        <pt x="517" y="49" on="0"/>
        <pt x="614" y="133" on="1"/>
        <pt x="549" y="173" on="0"/>
        <pt x="549" y="239" on="1"/>
        <pt x="549" y="281" on="0"/>
        <pt x="578" y="318" on="1"/>
        <pt x="509" y="340" on="0"/>
        <pt x="420" y="463" on="0"/>
        <pt x="420" y="582" on="0"/>
        <pt x="494" y="653" on="0"/>
        <pt x="569" y="653" on="1"/>
        <pt x="669" y="653" on="0"/>
        <pt x="825" y="474" on="0"/>
        <pt x="827" y="340" on="1"/>
        <pt x="896" y="413" on="0"/>
        <pt x="1039" y="566" on="1"/>
        <pt x="1162" y="698" on="1"/>
        <pt x="1187" y="723" on="0"/>
        <pt x="1200" y="723" on="0"/>
        <pt x="1207" y="715" on="0"/>
        <pt x="1207" y="698" on="0"/>
        <pt x="1187" y="683" on="0"/>
        <pt x="1015" y="408" on="1"/>
        <pt x="1132" y="501" on="0"/>
        <pt x="1277" y="524" on="1"/>
        <pt x="1265" y="545" on="0"/>
        <pt x="1265" y="571" on="1"/>
        <pt x="1265" y="624" on="0"/>
        <pt x="1358" y="708" on="0"/>
        <pt x="1507" y="708" on="0"/>
        <pt x="1590" y="656" on="0"/>
        <pt x="1590" y="577" on="0"/>
        <pt x="1539" y="551" on="1"/>
        <pt x="1527" y="552" on="0"/>
        <pt x="1527" y="560" on="0"/>
        <pt x="1534" y="566" on="1"/>
        <pt x="1564" y="595" on="0"/>
        <pt x="1564" y="653" on="0"/>
        <pt x="1482" y="698" on="0"/>
        <pt x="1436" y="698" on="1"/>
        <pt x="1368" y="698" on="0"/>
        <pt x="1295" y="624" on="0"/>
        <pt x="1295" y="575" on="1"/>
        <pt x="1295" y="549" on="0"/>
        <pt x="1306" y="527" on="1"/>
        <pt x="1326" y="529" on="0"/>
        <pt x="1375" y="529" on="0"/>
        <pt x="1429" y="511" on="0"/>
        <pt x="1429" y="493" on="1"/>
        <pt x="1426" y="471" on="0"/>
        <pt x="1392" y="471" on="1"/>
        <pt x="1319" y="471" on="0"/>
        <pt x="1285" y="513" on="1"/>
        <pt x="1140" y="491" on="0"/>
        <pt x="917" y="275" on="0"/>
        <pt x="917" y="162" on="1"/>
        <pt x="919" y="133" on="1"/>
        <pt x="969" y="153" on="1"/>
        <pt x="975" y="153" on="0"/>
        <pt x="975" y="148" on="1"/>
        <pt x="975" y="138" on="0"/>
        <pt x="959" y="133" on="1"/>
        <pt x="943" y="126" on="0"/>
        <pt x="921" y="118" on="1"/>
        <pt x="932" y="63" on="0"/>
        <pt x="1004" y="-6" on="0"/>
        <pt x="1137" y="-6" on="0"/>
        <pt x="1257" y="46" on="0"/>
        <pt x="1336" y="125" on="0"/>
        <pt x="1381" y="218" on="0"/>
        <pt x="1381" y="312" on="0"/>
        <pt x="1316" y="374" on="0"/>
        <pt x="1252" y="374" on="1"/>
        <pt x="1158" y="374" on="0"/>
        <pt x="1030" y="247" on="0"/>
        <pt x="1028" y="154" on="1"/>
        <pt x="1028" y="145" on="0"/>
        <pt x="1036" y="123" on="0"/>
        <pt x="1036" y="114" on="0"/>
        <pt x="1026" y="107" on="0"/>
      </contour>
    </TTGlyph>
    <TTGlyph name="Aacute" xMin="44" yMin="-49" xMax="1302" yMax="835">
      <contour>
        <pt x="781" y="95" on="1"/>
        <pt x="781" y="92" on="0"/>
        <pt x="780" y="91" on="1"/>
        <pt x="783" y="95" on="1"/>
      </contour>
      <contour>
        <pt x="686" y="355" on="1"/>
        <pt x="635" y="355" on="0"/>
        <pt x="605" y="328" on="1"/>
        <pt x="625" y="326" on="0"/>
        <pt x="636" y="326" on="1"/>
        <pt x="697" y="326" on="0"/>
        <pt x="697" y="347" on="1"/>
        <pt x="697" y="355" on="0"/>
      </contour>
      <contour>
        <pt x="1181" y="774" on="1"/>
        <pt x="1181" y="777" on="0"/>
        <pt x="1194" y="780" on="1"/>
        <pt x="1243" y="792" on="0"/>
        <pt x="1272" y="824" on="1"/>
        <pt x="1283" y="835" on="0"/>
        <pt x="1302" y="835" on="0"/>
        <pt x="1302" y="826" on="1"/>
        <pt x="1302" y="810" on="0"/>
        <pt x="1214" y="769" on="0"/>
        <pt x="1188" y="769" on="1"/>
        <pt x="1181" y="769" on="0"/>
      </contour>
      <contour>
        <pt x="804" y="294" on="1"/>
        <pt x="700" y="189" on="0"/>
        <pt x="646" y="141" on="1"/>
        <pt x="697" y="113" on="0"/>
        <pt x="770" y="109" on="1"/>
        <pt x="800" y="220" on="0"/>
      </contour>
      <contour>
        <pt x="1121" y="628" on="1"/>
        <pt x="875" y="367" on="0"/>
        <pt x="826" y="317" on="1"/>
        <pt x="823" y="255" on="0"/>
        <pt x="785" y="108" on="1"/>
        <pt x="792" y="108" on="1"/>
        <pt x="837" y="171" on="0"/>
        <pt x="853" y="198" on="0"/>
        <pt x="922" y="306" on="1"/>
        <pt x="1125" y="624" on="0"/>
        <pt x="1125" y="626" on="1"/>
      </contour>
      <contour>
        <pt x="632" y="150" on="1"/>
        <pt x="710" y="219" on="0"/>
        <pt x="805" y="317" on="1"/>
        <pt x="805" y="392" on="0"/>
        <pt x="774" y="470" on="1"/>
        <pt x="757" y="515" on="0"/>
        <pt x="704" y="586" on="0"/>
        <pt x="613" y="634" on="0"/>
        <pt x="556" y="634" on="1"/>
        <pt x="444" y="634" on="0"/>
        <pt x="444" y="510" on="1"/>
        <pt x="444" y="455" on="0"/>
        <pt x="525" y="347" on="0"/>
        <pt x="591" y="331" on="1"/>
        <pt x="635" y="372" on="0"/>
        <pt x="698" y="372" on="1"/>
        <pt x="731" y="372" on="0"/>
        <pt x="731" y="354" on="1"/>
        <pt x="731" y="340" on="0"/>
        <pt x="681" y="309" on="0"/>
        <pt x="616" y="309" on="0"/>
        <pt x="591" y="314" on="1"/>
        <pt x="570" y="288" on="0"/>
        <pt x="570" y="254" on="1"/>
        <pt x="570" y="193" on="0"/>
      </contour>
      <contour>
        <pt x="193" y="113" on="1"/>
        <pt x="193" y="129" on="0"/>
        <pt x="222" y="156" on="0"/>
        <pt x="236" y="162" on="1"/>
        <pt x="250" y="167" on="1"/>
        <pt x="265" y="167" on="0"/>
        <pt x="265" y="157" on="1"/>
        <pt x="265" y="147" on="0"/>
        <pt x="252" y="144" on="1"/>
        <pt x="225" y="138" on="0"/>
        <pt x="225" y="118" on="1"/>
        <pt x="225" y="89" on="0"/>
        <pt x="272" y="89" on="1"/>
        <pt x="360" y="89" on="0"/>
        <pt x="459" y="156" on="0"/>
        <pt x="459" y="201" on="1"/>
        <pt x="459" y="231" on="0"/>
        <pt x="402" y="272" on="0"/>
        <pt x="339" y="272" on="1"/>
        <pt x="220" y="272" on="0"/>
        <pt x="64" y="159" on="0"/>
        <pt x="64" y="91" on="1"/>
        <pt x="64" y="40" on="0"/>
        <pt x="166" y="-28" on="0"/>
        <pt x="352" y="-28" on="0"/>
        <pt x="517" y="49" on="0"/>
        <pt x="614" y="133" on="1"/>
        <pt x="549" y="173" on="0"/>
        <pt x="549" y="239" on="1"/>
        <pt x="549" y="281" on="0"/>
        <pt x="578" y="318" on="1"/>
        <pt x="509" y="340" on="0"/>
        <pt x="420" y="463" on="0"/>
        <pt x="420" y="582" on="0"/>
        <pt x="494" y="653" on="0"/>
        <pt x="569" y="653" on="1"/>
        <pt x="669" y="653" on="0"/>
        <pt x="825" y="474" on="0"/>
        <pt x="827" y="340" on="1"/>
        <pt x="896" y="413" on="0"/>
        <pt x="1039" y="566" on="1"/>
        <pt x="1162" y="698" on="1"/>
        <pt x="1187" y="723" on="0"/>
        <pt x="1200" y="723" on="0"/>
        <pt x="1207" y="715" on="0"/>
        <pt x="1207" y="698" on="0"/>
        <pt x="1186" y="682" on="0"/>
        <pt x="1065" y="489" on="0"/>
        <pt x="882" y="194" on="0"/>
        <pt x="826" y="109" on="1"/>
        <pt x="882" y="116" on="0"/>
        <pt x="946" y="144" on="1"/>
        <pt x="966" y="153" on="0"/>
        <pt x="975" y="153" on="0"/>
        <pt x="975" y="148" on="1"/>
        <pt x="975" y="138" on="0"/>
        <pt x="959" y="133" on="1"/>
        <pt x="897" y="104" on="0"/>
        <pt x="817" y="96" on="1"/>
        <pt x="732" y="-32" on="0"/>
        <pt x="718" y="-32" on="1"/>
        <pt x="708" y="-32" on="0"/>
        <pt x="708" y="-12" on="0"/>
        <pt x="728" y="15" on="1"/>
        <pt x="754" y="53" on="1"/>
        <pt x="767" y="95" on="1"/>
        <pt x="682" y="98" on="0"/>
        <pt x="629" y="125" on="1"/>
        <pt x="522" y="31" on="0"/>
        <pt x="348" y="-49" on="0"/>
        <pt x="148" y="-49" on="0"/>
        <pt x="44" y="26" on="0"/>
        <pt x="44" y="83" on="1"/>
        <pt x="44" y="161" on="0"/>
        <pt x="213" y="293" on="0"/>
        <pt x="343" y="293" on="1"/>
        <pt x="494" y="293" on="0"/>
        <pt x="494" y="208" on="1"/>
        <pt x="494" y="162" on="0"/>
        <pt x="405" y="96" on="0"/>
        <pt x="308" y="71" on="0"/>
        <pt x="271" y="71" on="1"/>
        <pt x="193" y="71" on="0"/>
      </contour>
    </TTGlyph>
    <TTGlyph name="Acircumflex" xMin="44" yMin="-49" xMax="1280" yMax="821">
      <contour>
        <pt x="781" y="95" on="1"/>
        <pt x="781" y="92" on="0"/>
        <pt x="780" y="91" on="1"/>
        <pt x="783" y="95" on="1"/>
      </contour>
      <contour>
        <pt x="686" y="355" on="1"/>
        <pt x="635" y="355" on="0"/>
        <pt x="605" y="328" on="1"/>
        <pt x="625" y="326" on="0"/>
        <pt x="636" y="326" on="1"/>
        <pt x="697" y="326" on="0"/>
        <pt x="697" y="347" on="1"/>
        <pt x="697" y="355" on="0"/>
      </contour>
      <contour>
        <pt x="1156" y="767" on="1"/>
        <pt x="1149" y="767" on="0"/>
        <pt x="1149" y="776" on="0"/>
        <pt x="1193" y="784" on="0"/>
        <pt x="1226" y="821" on="0"/>
        <pt x="1241" y="821" on="0"/>
        <pt x="1246" y="810" on="0"/>
        <pt x="1247" y="802" on="1"/>
        <pt x="1250" y="783" on="0"/>
        <pt x="1277" y="771" on="1"/>
        <pt x="1280" y="770" on="0"/>
        <pt x="1280" y="766" on="0"/>
        <pt x="1273" y="760" on="0"/>
        <pt x="1269" y="760" on="1"/>
        <pt x="1247" y="760" on="0"/>
        <pt x="1229" y="794" on="1"/>
        <pt x="1189" y="767" on="0"/>
      </contour>
      <contour>
        <pt x="804" y="294" on="1"/>
        <pt x="700" y="189" on="0"/>
        <pt x="646" y="141" on="1"/>
        <pt x="697" y="113" on="0"/>
        <pt x="770" y="109" on="1"/>
        <pt x="800" y="220" on="0"/>
      </contour>
      <contour>
        <pt x="1121" y="628" on="1"/>
        <pt x="875" y="367" on="0"/>
        <pt x="826" y="317" on="1"/>
        <pt x="823" y="255" on="0"/>
        <pt x="785" y="108" on="1"/>
        <pt x="792" y="108" on="1"/>
        <pt x="837" y="171" on="0"/>
        <pt x="853" y="198" on="0"/>
        <pt x="922" y="306" on="1"/>
        <pt x="1125" y="624" on="0"/>
        <pt x="1125" y="626" on="1"/>
      </contour>
      <contour>
        <pt x="632" y="150" on="1"/>
        <pt x="710" y="219" on="0"/>
        <pt x="805" y="317" on="1"/>
        <pt x="805" y="392" on="0"/>
        <pt x="774" y="470" on="1"/>
        <pt x="757" y="515" on="0"/>
        <pt x="704" y="586" on="0"/>
        <pt x="613" y="634" on="0"/>
        <pt x="556" y="634" on="1"/>
        <pt x="444" y="634" on="0"/>
        <pt x="444" y="510" on="1"/>
        <pt x="444" y="455" on="0"/>
        <pt x="525" y="347" on="0"/>
        <pt x="591" y="331" on="1"/>
        <pt x="635" y="372" on="0"/>
        <pt x="698" y="372" on="1"/>
        <pt x="731" y="372" on="0"/>
        <pt x="731" y="354" on="1"/>
        <pt x="731" y="340" on="0"/>
        <pt x="681" y="309" on="0"/>
        <pt x="616" y="309" on="0"/>
        <pt x="591" y="314" on="1"/>
        <pt x="570" y="288" on="0"/>
        <pt x="570" y="254" on="1"/>
        <pt x="570" y="193" on="0"/>
      </contour>
      <contour>
        <pt x="193" y="113" on="1"/>
        <pt x="193" y="129" on="0"/>
        <pt x="222" y="156" on="0"/>
        <pt x="236" y="162" on="1"/>
        <pt x="250" y="167" on="1"/>
        <pt x="265" y="167" on="0"/>
        <pt x="265" y="157" on="1"/>
        <pt x="265" y="147" on="0"/>
        <pt x="252" y="144" on="1"/>
        <pt x="225" y="138" on="0"/>
        <pt x="225" y="118" on="1"/>
        <pt x="225" y="89" on="0"/>
        <pt x="272" y="89" on="1"/>
        <pt x="360" y="89" on="0"/>
        <pt x="459" y="156" on="0"/>
        <pt x="459" y="201" on="1"/>
        <pt x="459" y="231" on="0"/>
        <pt x="402" y="272" on="0"/>
        <pt x="339" y="272" on="1"/>
        <pt x="220" y="272" on="0"/>
        <pt x="64" y="159" on="0"/>
        <pt x="64" y="91" on="1"/>
        <pt x="64" y="40" on="0"/>
        <pt x="166" y="-28" on="0"/>
        <pt x="352" y="-28" on="0"/>
        <pt x="517" y="49" on="0"/>
        <pt x="614" y="133" on="1"/>
        <pt x="549" y="173" on="0"/>
        <pt x="549" y="239" on="1"/>
        <pt x="549" y="281" on="0"/>
        <pt x="578" y="318" on="1"/>
        <pt x="509" y="340" on="0"/>
        <pt x="420" y="463" on="0"/>
        <pt x="420" y="582" on="0"/>
        <pt x="494" y="653" on="0"/>
        <pt x="569" y="653" on="1"/>
        <pt x="669" y="653" on="0"/>
        <pt x="825" y="474" on="0"/>
        <pt x="827" y="340" on="1"/>
        <pt x="896" y="413" on="0"/>
        <pt x="1039" y="566" on="1"/>
        <pt x="1162" y="698" on="1"/>
        <pt x="1187" y="723" on="0"/>
        <pt x="1200" y="723" on="0"/>
        <pt x="1207" y="715" on="0"/>
        <pt x="1207" y="698" on="0"/>
        <pt x="1186" y="682" on="0"/>
        <pt x="1065" y="489" on="0"/>
        <pt x="882" y="194" on="0"/>
        <pt x="826" y="109" on="1"/>
        <pt x="882" y="116" on="0"/>
        <pt x="946" y="144" on="1"/>
        <pt x="966" y="153" on="0"/>
        <pt x="975" y="153" on="0"/>
        <pt x="975" y="148" on="1"/>
        <pt x="975" y="138" on="0"/>
        <pt x="959" y="133" on="1"/>
        <pt x="897" y="104" on="0"/>
        <pt x="817" y="96" on="1"/>
        <pt x="732" y="-32" on="0"/>
        <pt x="718" y="-32" on="1"/>
        <pt x="708" y="-32" on="0"/>
        <pt x="708" y="-12" on="0"/>
        <pt x="728" y="15" on="1"/>
        <pt x="754" y="53" on="1"/>
        <pt x="767" y="95" on="1"/>
        <pt x="682" y="98" on="0"/>
        <pt x="629" y="125" on="1"/>
        <pt x="522" y="31" on="0"/>
        <pt x="348" y="-49" on="0"/>
        <pt x="148" y="-49" on="0"/>
        <pt x="44" y="26" on="0"/>
        <pt x="44" y="83" on="1"/>
        <pt x="44" y="161" on="0"/>
        <pt x="213" y="293" on="0"/>
        <pt x="343" y="293" on="1"/>
        <pt x="494" y="293" on="0"/>
        <pt x="494" y="208" on="1"/>
        <pt x="494" y="162" on="0"/>
        <pt x="405" y="96" on="0"/>
        <pt x="308" y="71" on="0"/>
        <pt x="271" y="71" on="1"/>
        <pt x="193" y="71" on="0"/>
      </contour>
    </TTGlyph>
    <TTGlyph name="Adieresis" xMin="44" yMin="-49" xMax="1287" yMax="807">
      <contour>
        <pt x="781" y="95" on="1"/>
        <pt x="783" y="95" on="1"/>
        <pt x="780" y="91" on="1"/>
        <pt x="781" y="92" on="0"/>
      </contour>
      <contour>
        <pt x="1172" y="786" on="0"/>
        <pt x="1190" y="807" on="0"/>
        <pt x="1205" y="807" on="0"/>
        <pt x="1214" y="798" on="0"/>
        <pt x="1214" y="780" on="0"/>
        <pt x="1193" y="764" on="0"/>
        <pt x="1186" y="764" on="1"/>
        <pt x="1172" y="764" on="0"/>
        <pt x="1172" y="777" on="1"/>
      </contour>
      <contour>
        <pt x="1245" y="777" on="0"/>
        <pt x="1263" y="798" on="0"/>
        <pt x="1278" y="798" on="0"/>
        <pt x="1287" y="789" on="0"/>
        <pt x="1287" y="771" on="0"/>
        <pt x="1266" y="755" on="0"/>
        <pt x="1259" y="755" on="1"/>
        <pt x="1245" y="755" on="0"/>
        <pt x="1245" y="768" on="1"/>
      </contour>
      <contour>
        <pt x="686" y="355" on="1"/>
        <pt x="697" y="355" on="0"/>
        <pt x="697" y="347" on="1"/>
        <pt x="697" y="326" on="0"/>
        <pt x="636" y="326" on="1"/>
        <pt x="625" y="326" on="0"/>
        <pt x="605" y="328" on="1"/>
        <pt x="635" y="355" on="0"/>
      </contour>
      <contour>
        <pt x="804" y="294" on="1"/>
        <pt x="800" y="220" on="0"/>
        <pt x="770" y="109" on="1"/>
        <pt x="697" y="113" on="0"/>
        <pt x="646" y="141" on="1"/>
        <pt x="700" y="189" on="0"/>
      </contour>
      <contour>
        <pt x="1121" y="628" on="1"/>
        <pt x="1125" y="628" on="0"/>
        <pt x="1125" y="624" on="0"/>
        <pt x="991" y="414" on="0"/>
        <pt x="853" y="198" on="0"/>
        <pt x="837" y="171" on="0"/>
        <pt x="792" y="108" on="1"/>
        <pt x="785" y="108" on="1"/>
        <pt x="823" y="255" on="0"/>
        <pt x="826" y="317" on="1"/>
        <pt x="875" y="367" on="0"/>
      </contour>
      <contour>
        <pt x="632" y="150" on="1"/>
        <pt x="570" y="193" on="0"/>
        <pt x="570" y="254" on="1"/>
        <pt x="570" y="288" on="0"/>
        <pt x="591" y="314" on="1"/>
        <pt x="616" y="309" on="0"/>
        <pt x="681" y="309" on="0"/>
        <pt x="731" y="340" on="0"/>
        <pt x="731" y="354" on="1"/>
        <pt x="731" y="372" on="0"/>
        <pt x="698" y="372" on="1"/>
        <pt x="635" y="372" on="0"/>
        <pt x="591" y="331" on="1"/>
        <pt x="525" y="347" on="0"/>
        <pt x="444" y="455" on="0"/>
        <pt x="444" y="510" on="1"/>
        <pt x="444" y="634" on="0"/>
        <pt x="556" y="634" on="1"/>
        <pt x="613" y="634" on="0"/>
        <pt x="704" y="586" on="0"/>
        <pt x="757" y="515" on="0"/>
        <pt x="774" y="470" on="1"/>
        <pt x="805" y="392" on="0"/>
        <pt x="805" y="317" on="1"/>
        <pt x="710" y="219" on="0"/>
      </contour>
      <contour>
        <pt x="193" y="113" on="1"/>
        <pt x="193" y="71" on="0"/>
        <pt x="271" y="71" on="1"/>
        <pt x="331" y="71" on="0"/>
        <pt x="404" y="102" on="1"/>
        <pt x="442" y="117" on="0"/>
        <pt x="494" y="173" on="0"/>
        <pt x="494" y="208" on="1"/>
        <pt x="494" y="293" on="0"/>
        <pt x="343" y="293" on="1"/>
        <pt x="213" y="293" on="0"/>
        <pt x="44" y="161" on="0"/>
        <pt x="44" y="83" on="1"/>
        <pt x="44" y="26" on="0"/>
        <pt x="148" y="-49" on="0"/>
        <pt x="348" y="-49" on="0"/>
        <pt x="522" y="31" on="0"/>
        <pt x="629" y="125" on="1"/>
        <pt x="682" y="98" on="0"/>
        <pt x="767" y="95" on="1"/>
        <pt x="754" y="53" on="1"/>
        <pt x="728" y="15" on="1"/>
        <pt x="708" y="-13" on="0"/>
        <pt x="708" y="-32" on="0"/>
        <pt x="718" y="-32" on="1"/>
        <pt x="732" y="-32" on="0"/>
        <pt x="817" y="96" on="1"/>
        <pt x="892" y="104" on="0"/>
        <pt x="942" y="126" on="1"/>
        <pt x="959" y="133" on="1"/>
        <pt x="975" y="138" on="0"/>
        <pt x="975" y="148" on="1"/>
        <pt x="975" y="153" on="0"/>
        <pt x="966" y="153" on="0"/>
        <pt x="946" y="144" on="1"/>
        <pt x="882" y="116" on="0"/>
        <pt x="826" y="109" on="1"/>
        <pt x="882" y="194" on="0"/>
        <pt x="1065" y="489" on="0"/>
        <pt x="1186" y="682" on="0"/>
        <pt x="1196" y="690" on="1"/>
        <pt x="1207" y="698" on="0"/>
        <pt x="1207" y="706" on="1"/>
        <pt x="1207" y="723" on="0"/>
        <pt x="1195" y="723" on="1"/>
        <pt x="1187" y="723" on="0"/>
        <pt x="1162" y="698" on="1"/>
        <pt x="1039" y="566" on="1"/>
        <pt x="896" y="413" on="0"/>
        <pt x="827" y="340" on="1"/>
        <pt x="825" y="474" on="0"/>
        <pt x="669" y="653" on="0"/>
        <pt x="569" y="653" on="1"/>
        <pt x="494" y="653" on="0"/>
        <pt x="420" y="582" on="0"/>
        <pt x="420" y="463" on="0"/>
        <pt x="509" y="340" on="0"/>
        <pt x="578" y="318" on="1"/>
        <pt x="549" y="281" on="0"/>
        <pt x="549" y="239" on="1"/>
        <pt x="549" y="173" on="0"/>
        <pt x="614" y="133" on="1"/>
        <pt x="517" y="49" on="0"/>
        <pt x="352" y="-28" on="0"/>
        <pt x="166" y="-28" on="0"/>
        <pt x="64" y="40" on="0"/>
        <pt x="64" y="91" on="1"/>
        <pt x="64" y="159" on="0"/>
        <pt x="220" y="272" on="0"/>
        <pt x="339" y="272" on="1"/>
        <pt x="402" y="272" on="0"/>
        <pt x="459" y="231" on="0"/>
        <pt x="459" y="201" on="1"/>
        <pt x="459" y="156" on="0"/>
        <pt x="360" y="89" on="0"/>
        <pt x="272" y="89" on="1"/>
        <pt x="225" y="89" on="0"/>
        <pt x="225" y="118" on="1"/>
        <pt x="225" y="129" on="0"/>
        <pt x="238" y="141" on="0"/>
        <pt x="245" y="142" on="1"/>
        <pt x="265" y="147" on="0"/>
        <pt x="265" y="167" on="0"/>
        <pt x="250" y="167" on="1"/>
        <pt x="228" y="160" on="0"/>
        <pt x="193" y="129" on="0"/>
      </contour>
    </TTGlyph>
    <TTGlyph name="Agrave" xMin="44" yMin="-49" xMax="1268" yMax="841">
      <contour>
        <pt x="781" y="95" on="1"/>
        <pt x="783" y="95" on="1"/>
        <pt x="780" y="91" on="1"/>
        <pt x="781" y="92" on="0"/>
      </contour>
      <contour>
        <pt x="686" y="355" on="1"/>
        <pt x="697" y="355" on="0"/>
        <pt x="697" y="347" on="1"/>
        <pt x="697" y="326" on="0"/>
        <pt x="636" y="326" on="1"/>
        <pt x="625" y="326" on="0"/>
        <pt x="605" y="328" on="1"/>
        <pt x="635" y="355" on="0"/>
      </contour>
      <contour>
        <pt x="1268" y="780" on="1"/>
        <pt x="1268" y="775" on="0"/>
        <pt x="1261" y="775" on="1"/>
        <pt x="1235" y="775" on="0"/>
        <pt x="1147" y="816" on="0"/>
        <pt x="1147" y="832" on="1"/>
        <pt x="1147" y="841" on="0"/>
        <pt x="1166" y="841" on="0"/>
        <pt x="1177" y="830" on="1"/>
        <pt x="1206" y="798" on="0"/>
        <pt x="1255" y="786" on="1"/>
        <pt x="1268" y="783" on="0"/>
      </contour>
      <contour>
        <pt x="804" y="294" on="1"/>
        <pt x="800" y="220" on="0"/>
        <pt x="770" y="109" on="1"/>
        <pt x="697" y="113" on="0"/>
        <pt x="646" y="141" on="1"/>
        <pt x="700" y="189" on="0"/>
      </contour>
      <contour>
        <pt x="1121" y="628" on="1"/>
        <pt x="1125" y="628" on="0"/>
        <pt x="1125" y="624" on="0"/>
        <pt x="991" y="414" on="0"/>
        <pt x="853" y="198" on="0"/>
        <pt x="837" y="171" on="0"/>
        <pt x="792" y="108" on="1"/>
        <pt x="785" y="108" on="1"/>
        <pt x="823" y="255" on="0"/>
        <pt x="826" y="317" on="1"/>
        <pt x="875" y="367" on="0"/>
      </contour>
      <contour>
        <pt x="632" y="150" on="1"/>
        <pt x="570" y="193" on="0"/>
        <pt x="570" y="254" on="1"/>
        <pt x="570" y="288" on="0"/>
        <pt x="591" y="314" on="1"/>
        <pt x="616" y="309" on="0"/>
        <pt x="681" y="309" on="0"/>
        <pt x="731" y="340" on="0"/>
        <pt x="731" y="354" on="1"/>
        <pt x="731" y="372" on="0"/>
        <pt x="698" y="372" on="1"/>
        <pt x="635" y="372" on="0"/>
        <pt x="591" y="331" on="1"/>
        <pt x="525" y="347" on="0"/>
        <pt x="444" y="455" on="0"/>
        <pt x="444" y="510" on="1"/>
        <pt x="444" y="634" on="0"/>
        <pt x="556" y="634" on="1"/>
        <pt x="613" y="634" on="0"/>
        <pt x="704" y="586" on="0"/>
        <pt x="757" y="515" on="0"/>
        <pt x="774" y="470" on="1"/>
        <pt x="805" y="392" on="0"/>
        <pt x="805" y="317" on="1"/>
        <pt x="710" y="219" on="0"/>
      </contour>
      <contour>
        <pt x="193" y="113" on="1"/>
        <pt x="193" y="71" on="0"/>
        <pt x="271" y="71" on="1"/>
        <pt x="331" y="71" on="0"/>
        <pt x="404" y="102" on="1"/>
        <pt x="442" y="117" on="0"/>
        <pt x="494" y="173" on="0"/>
        <pt x="494" y="208" on="1"/>
        <pt x="494" y="293" on="0"/>
        <pt x="343" y="293" on="1"/>
        <pt x="213" y="293" on="0"/>
        <pt x="44" y="161" on="0"/>
        <pt x="44" y="83" on="1"/>
        <pt x="44" y="26" on="0"/>
        <pt x="148" y="-49" on="0"/>
        <pt x="348" y="-49" on="0"/>
        <pt x="522" y="31" on="0"/>
        <pt x="629" y="125" on="1"/>
        <pt x="682" y="98" on="0"/>
        <pt x="767" y="95" on="1"/>
        <pt x="754" y="53" on="1"/>
        <pt x="728" y="15" on="1"/>
        <pt x="708" y="-13" on="0"/>
        <pt x="708" y="-32" on="0"/>
        <pt x="718" y="-32" on="1"/>
        <pt x="732" y="-32" on="0"/>
        <pt x="817" y="96" on="1"/>
        <pt x="892" y="104" on="0"/>
        <pt x="942" y="126" on="1"/>
        <pt x="959" y="133" on="1"/>
        <pt x="975" y="138" on="0"/>
        <pt x="975" y="148" on="1"/>
        <pt x="975" y="153" on="0"/>
        <pt x="966" y="153" on="0"/>
        <pt x="946" y="144" on="1"/>
        <pt x="882" y="116" on="0"/>
        <pt x="826" y="109" on="1"/>
        <pt x="882" y="194" on="0"/>
        <pt x="1065" y="489" on="0"/>
        <pt x="1186" y="682" on="0"/>
        <pt x="1196" y="690" on="1"/>
        <pt x="1207" y="698" on="0"/>
        <pt x="1207" y="706" on="1"/>
        <pt x="1207" y="723" on="0"/>
        <pt x="1195" y="723" on="1"/>
        <pt x="1187" y="723" on="0"/>
        <pt x="1162" y="698" on="1"/>
        <pt x="1039" y="566" on="1"/>
        <pt x="896" y="413" on="0"/>
        <pt x="827" y="340" on="1"/>
        <pt x="825" y="474" on="0"/>
        <pt x="669" y="653" on="0"/>
        <pt x="569" y="653" on="1"/>
        <pt x="494" y="653" on="0"/>
        <pt x="420" y="582" on="0"/>
        <pt x="420" y="463" on="0"/>
        <pt x="509" y="340" on="0"/>
        <pt x="578" y="318" on="1"/>
        <pt x="549" y="281" on="0"/>
        <pt x="549" y="239" on="1"/>
        <pt x="549" y="173" on="0"/>
        <pt x="614" y="133" on="1"/>
        <pt x="517" y="49" on="0"/>
        <pt x="352" y="-28" on="0"/>
        <pt x="166" y="-28" on="0"/>
        <pt x="64" y="40" on="0"/>
        <pt x="64" y="91" on="1"/>
        <pt x="64" y="159" on="0"/>
        <pt x="220" y="272" on="0"/>
        <pt x="339" y="272" on="1"/>
        <pt x="402" y="272" on="0"/>
        <pt x="459" y="231" on="0"/>
        <pt x="459" y="201" on="1"/>
        <pt x="459" y="156" on="0"/>
        <pt x="360" y="89" on="0"/>
        <pt x="272" y="89" on="1"/>
        <pt x="225" y="89" on="0"/>
        <pt x="225" y="118" on="1"/>
        <pt x="225" y="129" on="0"/>
        <pt x="238" y="141" on="0"/>
        <pt x="245" y="142" on="1"/>
        <pt x="265" y="147" on="0"/>
        <pt x="265" y="167" on="0"/>
        <pt x="250" y="167" on="1"/>
        <pt x="228" y="160" on="0"/>
        <pt x="193" y="129" on="0"/>
      </contour>
    </TTGlyph>
    <TTGlyph name="Aring" xMin="44" yMin="-49" xMax="1268" yMax="810">
      <contour>
        <pt x="781" y="95" on="1"/>
        <pt x="781" y="92" on="0"/>
        <pt x="780" y="91" on="1"/>
        <pt x="783" y="95" on="1"/>
      </contour>
      <contour>
        <pt x="1254" y="789" on="1"/>
        <pt x="1254" y="798" on="0"/>
        <pt x="1231" y="798" on="0"/>
        <pt x="1216" y="779" on="0"/>
        <pt x="1216" y="773" on="1"/>
        <pt x="1216" y="764" on="0"/>
        <pt x="1237" y="764" on="0"/>
        <pt x="1253" y="779" on="0"/>
      </contour>
      <contour>
        <pt x="686" y="355" on="1"/>
        <pt x="635" y="355" on="0"/>
        <pt x="605" y="328" on="1"/>
        <pt x="625" y="326" on="0"/>
        <pt x="636" y="326" on="1"/>
        <pt x="697" y="326" on="0"/>
        <pt x="697" y="347" on="1"/>
        <pt x="697" y="355" on="0"/>
      </contour>
      <contour>
        <pt x="1267" y="777" on="0"/>
        <pt x="1238" y="752" on="0"/>
        <pt x="1202" y="752" on="0"/>
        <pt x="1202" y="769" on="1"/>
        <pt x="1203" y="780" on="0"/>
        <pt x="1229" y="810" on="0"/>
        <pt x="1268" y="810" on="0"/>
        <pt x="1268" y="792" on="1"/>
      </contour>
      <contour>
        <pt x="804" y="294" on="1"/>
        <pt x="700" y="189" on="0"/>
        <pt x="646" y="141" on="1"/>
        <pt x="697" y="113" on="0"/>
        <pt x="770" y="109" on="1"/>
        <pt x="800" y="220" on="0"/>
      </contour>
      <contour>
        <pt x="1121" y="628" on="1"/>
        <pt x="875" y="367" on="0"/>
        <pt x="826" y="317" on="1"/>
        <pt x="823" y="255" on="0"/>
        <pt x="785" y="108" on="1"/>
        <pt x="792" y="108" on="1"/>
        <pt x="837" y="171" on="0"/>
        <pt x="853" y="198" on="0"/>
        <pt x="922" y="306" on="1"/>
        <pt x="1125" y="624" on="0"/>
        <pt x="1125" y="626" on="1"/>
      </contour>
      <contour>
        <pt x="632" y="150" on="1"/>
        <pt x="710" y="219" on="0"/>
        <pt x="805" y="317" on="1"/>
        <pt x="805" y="392" on="0"/>
        <pt x="774" y="470" on="1"/>
        <pt x="757" y="515" on="0"/>
        <pt x="704" y="586" on="0"/>
        <pt x="613" y="634" on="0"/>
        <pt x="556" y="634" on="1"/>
        <pt x="444" y="634" on="0"/>
        <pt x="444" y="510" on="1"/>
        <pt x="444" y="455" on="0"/>
        <pt x="525" y="347" on="0"/>
        <pt x="591" y="331" on="1"/>
        <pt x="635" y="372" on="0"/>
        <pt x="698" y="372" on="1"/>
        <pt x="731" y="372" on="0"/>
        <pt x="731" y="354" on="1"/>
        <pt x="731" y="340" on="0"/>
        <pt x="681" y="309" on="0"/>
        <pt x="616" y="309" on="0"/>
        <pt x="591" y="314" on="1"/>
        <pt x="570" y="288" on="0"/>
        <pt x="570" y="254" on="1"/>
        <pt x="570" y="193" on="0"/>
      </contour>
      <contour>
        <pt x="193" y="113" on="1"/>
        <pt x="193" y="129" on="0"/>
        <pt x="222" y="156" on="0"/>
        <pt x="236" y="162" on="1"/>
        <pt x="250" y="167" on="1"/>
        <pt x="265" y="167" on="0"/>
        <pt x="265" y="157" on="1"/>
        <pt x="265" y="147" on="0"/>
        <pt x="252" y="144" on="1"/>
        <pt x="225" y="138" on="0"/>
        <pt x="225" y="118" on="1"/>
        <pt x="225" y="89" on="0"/>
        <pt x="272" y="89" on="1"/>
        <pt x="360" y="89" on="0"/>
        <pt x="459" y="156" on="0"/>
        <pt x="459" y="201" on="1"/>
        <pt x="459" y="231" on="0"/>
        <pt x="402" y="272" on="0"/>
        <pt x="339" y="272" on="1"/>
        <pt x="220" y="272" on="0"/>
        <pt x="64" y="159" on="0"/>
        <pt x="64" y="91" on="1"/>
        <pt x="64" y="40" on="0"/>
        <pt x="166" y="-28" on="0"/>
        <pt x="352" y="-28" on="0"/>
        <pt x="517" y="49" on="0"/>
        <pt x="614" y="133" on="1"/>
        <pt x="549" y="173" on="0"/>
        <pt x="549" y="239" on="1"/>
        <pt x="549" y="281" on="0"/>
        <pt x="578" y="318" on="1"/>
        <pt x="509" y="340" on="0"/>
        <pt x="420" y="463" on="0"/>
        <pt x="420" y="582" on="0"/>
        <pt x="494" y="653" on="0"/>
        <pt x="569" y="653" on="1"/>
        <pt x="669" y="653" on="0"/>
        <pt x="825" y="474" on="0"/>
        <pt x="827" y="340" on="1"/>
        <pt x="896" y="413" on="0"/>
        <pt x="1039" y="566" on="1"/>
        <pt x="1162" y="698" on="1"/>
        <pt x="1187" y="723" on="0"/>
        <pt x="1200" y="723" on="0"/>
        <pt x="1207" y="715" on="0"/>
        <pt x="1207" y="698" on="0"/>
        <pt x="1186" y="682" on="0"/>
        <pt x="1065" y="489" on="0"/>
        <pt x="882" y="194" on="0"/>
        <pt x="826" y="109" on="1"/>
        <pt x="882" y="116" on="0"/>
        <pt x="946" y="144" on="1"/>
        <pt x="966" y="153" on="0"/>
        <pt x="975" y="153" on="0"/>
        <pt x="975" y="148" on="1"/>
        <pt x="975" y="138" on="0"/>
        <pt x="959" y="133" on="1"/>
        <pt x="897" y="104" on="0"/>
        <pt x="817" y="96" on="1"/>
        <pt x="732" y="-32" on="0"/>
        <pt x="718" y="-32" on="1"/>
        <pt x="708" y="-32" on="0"/>
        <pt x="708" y="-12" on="0"/>
        <pt x="728" y="15" on="1"/>
        <pt x="754" y="53" on="1"/>
        <pt x="767" y="95" on="1"/>
        <pt x="682" y="98" on="0"/>
        <pt x="629" y="125" on="1"/>
        <pt x="522" y="31" on="0"/>
        <pt x="348" y="-49" on="0"/>
        <pt x="148" y="-49" on="0"/>
        <pt x="44" y="26" on="0"/>
        <pt x="44" y="83" on="1"/>
        <pt x="44" y="161" on="0"/>
        <pt x="213" y="293" on="0"/>
        <pt x="343" y="293" on="1"/>
        <pt x="494" y="293" on="0"/>
        <pt x="494" y="208" on="1"/>
        <pt x="494" y="162" on="0"/>
        <pt x="405" y="96" on="0"/>
        <pt x="308" y="71" on="0"/>
        <pt x="271" y="71" on="1"/>
        <pt x="193" y="71" on="0"/>
      </contour>
    </TTGlyph>
    <TTGlyph name="Atilde" xMin="44" yMin="-49" xMax="1301" yMax="808">
      <contour>
        <pt x="781" y="95" on="1"/>
        <pt x="781" y="92" on="0"/>
        <pt x="780" y="91" on="1"/>
        <pt x="783" y="95" on="1"/>
      </contour>
      <contour>
        <pt x="686" y="355" on="1"/>
        <pt x="635" y="355" on="0"/>
        <pt x="605" y="328" on="1"/>
        <pt x="625" y="326" on="0"/>
        <pt x="636" y="326" on="1"/>
        <pt x="697" y="326" on="0"/>
        <pt x="697" y="347" on="1"/>
        <pt x="697" y="355" on="0"/>
      </contour>
      <contour>
        <pt x="1128" y="793" on="0"/>
        <pt x="1157" y="808" on="0"/>
        <pt x="1182" y="808" on="0"/>
        <pt x="1244" y="783" on="0"/>
        <pt x="1274" y="783" on="0"/>
        <pt x="1293" y="797" on="0"/>
        <pt x="1301" y="797" on="0"/>
        <pt x="1301" y="791" on="1"/>
        <pt x="1301" y="780" on="0"/>
        <pt x="1268" y="765" on="0"/>
        <pt x="1244" y="765" on="0"/>
        <pt x="1179" y="791" on="0"/>
        <pt x="1155" y="791" on="0"/>
        <pt x="1136" y="775" on="0"/>
        <pt x="1128" y="775" on="0"/>
        <pt x="1128" y="779" on="1"/>
      </contour>
      <contour>
        <pt x="804" y="294" on="1"/>
        <pt x="700" y="189" on="0"/>
        <pt x="646" y="141" on="1"/>
        <pt x="697" y="113" on="0"/>
        <pt x="770" y="109" on="1"/>
        <pt x="800" y="220" on="0"/>
      </contour>
      <contour>
        <pt x="1121" y="628" on="1"/>
        <pt x="875" y="367" on="0"/>
        <pt x="826" y="317" on="1"/>
        <pt x="823" y="255" on="0"/>
        <pt x="785" y="108" on="1"/>
        <pt x="792" y="108" on="1"/>
        <pt x="837" y="171" on="0"/>
        <pt x="853" y="198" on="0"/>
        <pt x="922" y="306" on="1"/>
        <pt x="1125" y="624" on="0"/>
        <pt x="1125" y="626" on="1"/>
      </contour>
      <contour>
        <pt x="632" y="150" on="1"/>
        <pt x="710" y="219" on="0"/>
        <pt x="805" y="317" on="1"/>
        <pt x="805" y="392" on="0"/>
        <pt x="774" y="470" on="1"/>
        <pt x="757" y="515" on="0"/>
        <pt x="704" y="586" on="0"/>
        <pt x="613" y="634" on="0"/>
        <pt x="556" y="634" on="1"/>
        <pt x="444" y="634" on="0"/>
        <pt x="444" y="510" on="1"/>
        <pt x="444" y="455" on="0"/>
        <pt x="525" y="347" on="0"/>
        <pt x="591" y="331" on="1"/>
        <pt x="635" y="372" on="0"/>
        <pt x="698" y="372" on="1"/>
        <pt x="731" y="372" on="0"/>
        <pt x="731" y="354" on="1"/>
        <pt x="731" y="340" on="0"/>
        <pt x="681" y="309" on="0"/>
        <pt x="616" y="309" on="0"/>
        <pt x="591" y="314" on="1"/>
        <pt x="570" y="288" on="0"/>
        <pt x="570" y="254" on="1"/>
        <pt x="570" y="193" on="0"/>
      </contour>
      <contour>
        <pt x="193" y="113" on="1"/>
        <pt x="193" y="129" on="0"/>
        <pt x="222" y="156" on="0"/>
        <pt x="236" y="162" on="1"/>
        <pt x="250" y="167" on="1"/>
        <pt x="265" y="167" on="0"/>
        <pt x="265" y="157" on="1"/>
        <pt x="265" y="147" on="0"/>
        <pt x="252" y="144" on="1"/>
        <pt x="225" y="138" on="0"/>
        <pt x="225" y="118" on="1"/>
        <pt x="225" y="89" on="0"/>
        <pt x="272" y="89" on="1"/>
        <pt x="360" y="89" on="0"/>
        <pt x="459" y="156" on="0"/>
        <pt x="459" y="201" on="1"/>
        <pt x="459" y="231" on="0"/>
        <pt x="402" y="272" on="0"/>
        <pt x="339" y="272" on="1"/>
        <pt x="220" y="272" on="0"/>
        <pt x="64" y="159" on="0"/>
        <pt x="64" y="91" on="1"/>
        <pt x="64" y="40" on="0"/>
        <pt x="166" y="-28" on="0"/>
        <pt x="352" y="-28" on="0"/>
        <pt x="517" y="49" on="0"/>
        <pt x="614" y="133" on="1"/>
        <pt x="549" y="173" on="0"/>
        <pt x="549" y="239" on="1"/>
        <pt x="549" y="281" on="0"/>
        <pt x="578" y="318" on="1"/>
        <pt x="509" y="340" on="0"/>
        <pt x="420" y="463" on="0"/>
        <pt x="420" y="582" on="0"/>
        <pt x="494" y="653" on="0"/>
        <pt x="569" y="653" on="1"/>
        <pt x="669" y="653" on="0"/>
        <pt x="825" y="474" on="0"/>
        <pt x="827" y="340" on="1"/>
        <pt x="896" y="413" on="0"/>
        <pt x="1039" y="566" on="1"/>
        <pt x="1162" y="698" on="1"/>
        <pt x="1187" y="723" on="0"/>
        <pt x="1200" y="723" on="0"/>
        <pt x="1207" y="715" on="0"/>
        <pt x="1207" y="698" on="0"/>
        <pt x="1186" y="682" on="0"/>
        <pt x="1065" y="489" on="0"/>
        <pt x="882" y="194" on="0"/>
        <pt x="826" y="109" on="1"/>
        <pt x="882" y="116" on="0"/>
        <pt x="946" y="144" on="1"/>
        <pt x="966" y="153" on="0"/>
        <pt x="975" y="153" on="0"/>
        <pt x="975" y="148" on="1"/>
        <pt x="975" y="138" on="0"/>
        <pt x="959" y="133" on="1"/>
        <pt x="897" y="104" on="0"/>
        <pt x="817" y="96" on="1"/>
        <pt x="732" y="-32" on="0"/>
        <pt x="718" y="-32" on="1"/>
        <pt x="708" y="-32" on="0"/>
        <pt x="708" y="-12" on="0"/>
        <pt x="728" y="15" on="1"/>
        <pt x="754" y="53" on="1"/>
        <pt x="767" y="95" on="1"/>
        <pt x="682" y="98" on="0"/>
        <pt x="629" y="125" on="1"/>
        <pt x="522" y="31" on="0"/>
        <pt x="348" y="-49" on="0"/>
        <pt x="148" y="-49" on="0"/>
        <pt x="44" y="26" on="0"/>
        <pt x="44" y="83" on="1"/>
        <pt x="44" y="161" on="0"/>
        <pt x="213" y="293" on="0"/>
        <pt x="343" y="293" on="1"/>
        <pt x="494" y="293" on="0"/>
        <pt x="494" y="208" on="1"/>
        <pt x="494" y="162" on="0"/>
        <pt x="405" y="96" on="0"/>
        <pt x="308" y="71" on="0"/>
        <pt x="271" y="71" on="1"/>
        <pt x="193" y="71" on="0"/>
      </contour>
    </TTGlyph>
    <TTGlyph name="B" xMin="13" yMin="-41" xMax="1185" yMax="727">
      <contour>
        <pt x="274" y="139" on="0"/>
        <pt x="286" y="166" on="0"/>
        <pt x="286" y="187" on="0"/>
        <pt x="284" y="197" on="1"/>
        <pt x="256" y="171" on="0"/>
        <pt x="256" y="146" on="1"/>
        <pt x="256" y="139" on="0"/>
        <pt x="261" y="139" on="1"/>
      </contour>
      <contour>
        <pt x="724" y="335" on="1"/>
        <pt x="724" y="322" on="0"/>
        <pt x="756" y="317" on="1"/>
        <pt x="785" y="354" on="1"/>
        <pt x="780" y="354" on="1"/>
        <pt x="724" y="354" on="0"/>
      </contour>
      <contour>
        <pt x="636" y="494" on="1"/>
        <pt x="660" y="494" on="0"/>
        <pt x="695" y="533" on="0"/>
        <pt x="700" y="563" on="1"/>
        <pt x="673" y="554" on="0"/>
        <pt x="630" y="511" on="0"/>
        <pt x="630" y="494" on="0"/>
      </contour>
      <contour>
        <pt x="785" y="316" on="1"/>
        <pt x="846" y="318" on="0"/>
        <pt x="897" y="337" on="1"/>
        <pt x="859" y="350" on="0"/>
        <pt x="813" y="353" on="1"/>
        <pt x="806" y="343" on="0"/>
        <pt x="795" y="329" on="0"/>
        <pt x="787" y="318" on="0"/>
      </contour>
      <contour>
        <pt x="557" y="-6" on="0"/>
        <pt x="617" y="-19" on="0"/>
        <pt x="682" y="-19" on="0"/>
        <pt x="723" y="-10" on="1"/>
        <pt x="704" y="-5" on="0"/>
        <pt x="669" y="5" on="1"/>
        <pt x="602" y="24" on="0"/>
        <pt x="557" y="24" on="0"/>
      </contour>
      <contour>
        <pt x="991" y="379" on="0"/>
        <pt x="1074" y="484" on="0"/>
        <pt x="1074" y="579" on="0"/>
        <pt x="1041" y="612" on="1"/>
        <pt x="994" y="572" on="0"/>
        <pt x="911" y="475" on="0"/>
        <pt x="877" y="434" on="0"/>
        <pt x="828" y="371" on="0"/>
        <pt x="823" y="365" on="1"/>
        <pt x="881" y="362" on="0"/>
        <pt x="923" y="348" on="1"/>
      </contour>
      <contour>
        <pt x="725" y="567" on="1"/>
        <pt x="718" y="566" on="1"/>
        <pt x="710" y="525" on="0"/>
        <pt x="657" y="468" on="0"/>
        <pt x="621" y="468" on="1"/>
        <pt x="602" y="468" on="0"/>
        <pt x="602" y="484" on="1"/>
        <pt x="602" y="505" on="0"/>
        <pt x="662" y="567" on="0"/>
        <pt x="701" y="578" on="1"/>
        <pt x="701" y="582" on="1"/>
        <pt x="701" y="615" on="0"/>
        <pt x="685" y="644" on="1"/>
        <pt x="593" y="612" on="0"/>
        <pt x="488" y="491" on="0"/>
        <pt x="488" y="437" on="1"/>
        <pt x="488" y="407" on="0"/>
        <pt x="524" y="370" on="0"/>
        <pt x="558" y="370" on="1"/>
        <pt x="618" y="370" on="0"/>
        <pt x="766" y="496" on="0"/>
        <pt x="766" y="539" on="1"/>
        <pt x="766" y="567" on="0"/>
      </contour>
      <contour>
        <pt x="460" y="290" on="1"/>
        <pt x="516" y="286" on="0"/>
        <pt x="516" y="265" on="1"/>
        <pt x="516" y="255" on="0"/>
        <pt x="506" y="255" on="1"/>
        <pt x="501" y="255" on="0"/>
        <pt x="482" y="268" on="0"/>
        <pt x="427" y="268" on="0"/>
        <pt x="338" y="236" on="0"/>
        <pt x="304" y="213" on="1"/>
        <pt x="310" y="201" on="0"/>
        <pt x="310" y="164" on="0"/>
        <pt x="281" y="122" on="0"/>
        <pt x="235" y="122" on="0"/>
        <pt x="235" y="171" on="0"/>
        <pt x="279" y="208" on="1"/>
        <pt x="258" y="244" on="0"/>
        <pt x="133" y="244" on="0"/>
        <pt x="44" y="155" on="0"/>
        <pt x="44" y="47" on="0"/>
        <pt x="139" y="-26" on="0"/>
        <pt x="314" y="-26" on="0"/>
        <pt x="460" y="25" on="0"/>
        <pt x="588" y="126" on="0"/>
        <pt x="685" y="228" on="0"/>
        <pt x="744" y="302" on="1"/>
        <pt x="683" y="303" on="0"/>
        <pt x="683" y="326" on="1"/>
        <pt x="683" y="341" on="0"/>
        <pt x="746" y="366" on="0"/>
        <pt x="794" y="366" on="1"/>
        <pt x="843" y="429" on="0"/>
        <pt x="872" y="465" on="1"/>
        <pt x="954" y="569" on="0"/>
        <pt x="1023" y="627" on="1"/>
        <pt x="962" y="669" on="0"/>
        <pt x="840" y="669" on="1"/>
        <pt x="770" y="669" on="0"/>
        <pt x="706" y="651" on="1"/>
        <pt x="720" y="626" on="0"/>
        <pt x="720" y="592" on="1"/>
        <pt x="720" y="585" on="0"/>
        <pt x="719" y="581" on="1"/>
        <pt x="723" y="582" on="0"/>
        <pt x="732" y="582" on="1"/>
        <pt x="796" y="582" on="0"/>
        <pt x="796" y="543" on="1"/>
        <pt x="796" y="511" on="0"/>
        <pt x="716" y="421" on="0"/>
        <pt x="598" y="353" on="0"/>
        <pt x="508" y="353" on="0"/>
        <pt x="463" y="396" on="0"/>
        <pt x="463" y="431" on="1"/>
        <pt x="463" y="490" on="0"/>
        <pt x="578" y="620" on="0"/>
        <pt x="677" y="655" on="1"/>
        <pt x="637" y="713" on="0"/>
        <pt x="545" y="713" on="1"/>
        <pt x="445" y="713" on="0"/>
        <pt x="366" y="668" on="1"/>
        <pt x="293" y="626" on="0"/>
        <pt x="250" y="576" on="1"/>
        <pt x="208" y="529" on="0"/>
        <pt x="192" y="500" on="1"/>
        <pt x="185" y="488" on="1"/>
        <pt x="180" y="480" on="0"/>
        <pt x="168" y="480" on="0"/>
        <pt x="168" y="491" on="1"/>
        <pt x="178" y="516" on="0"/>
        <pt x="258" y="614" on="0"/>
        <pt x="339" y="676" on="0"/>
        <pt x="475" y="727" on="0"/>
        <pt x="552" y="727" on="1"/>
        <pt x="656" y="727" on="0"/>
        <pt x="699" y="663" on="1"/>
        <pt x="771" y="685" on="0"/>
        <pt x="857" y="685" on="1"/>
        <pt x="976" y="685" on="0"/>
        <pt x="1043" y="643" on="1"/>
        <pt x="1110" y="692" on="0"/>
        <pt x="1174" y="707" on="1"/>
        <pt x="1183" y="707" on="0"/>
        <pt x="1185" y="700" on="1"/>
        <pt x="1185" y="694" on="0"/>
        <pt x="1166" y="688" on="1"/>
        <pt x="1122" y="675" on="0"/>
        <pt x="1062" y="629" on="1"/>
        <pt x="1103" y="592" on="0"/>
        <pt x="1103" y="486" on="0"/>
        <pt x="1015" y="376" on="0"/>
        <pt x="940" y="341" on="1"/>
        <pt x="1016" y="308" on="0"/>
        <pt x="1016" y="174" on="0"/>
        <pt x="892" y="37" on="0"/>
        <pt x="796" y="-1" on="1"/>
        <pt x="881" y="-19" on="0"/>
        <pt x="949" y="-19" on="0"/>
        <pt x="1004" y="-6" on="1"/>
        <pt x="1012" y="-6" on="0"/>
        <pt x="1012" y="-17" on="0"/>
        <pt x="1008" y="-18" on="1"/>
        <pt x="999" y="-23" on="0"/>
        <pt x="921" y="-37" on="0"/>
        <pt x="834" y="-37" on="0"/>
        <pt x="750" y="-17" on="1"/>
        <pt x="685" y="-35" on="0"/>
        <pt x="587" y="-35" on="0"/>
        <pt x="521" y="-12" on="0"/>
        <pt x="521" y="38" on="0"/>
        <pt x="598" y="38" on="1"/>
        <pt x="624" y="38" on="0"/>
        <pt x="754" y="7" on="0"/>
        <pt x="773" y="3" on="1"/>
        <pt x="867" y="35" on="0"/>
        <pt x="986" y="166" on="0"/>
        <pt x="986" y="298" on="0"/>
        <pt x="914" y="330" on="1"/>
        <pt x="850" y="305" on="0"/>
        <pt x="774" y="302" on="1"/>
        <pt x="727" y="242" on="0"/>
        <pt x="656" y="160" on="0"/>
        <pt x="546" y="61" on="0"/>
        <pt x="440" y="1" on="0"/>
        <pt x="297" y="-41" on="0"/>
        <pt x="118" y="-41" on="0"/>
        <pt x="13" y="39" on="0"/>
        <pt x="13" y="159" on="0"/>
        <pt x="121" y="256" on="0"/>
        <pt x="206" y="256" on="1"/>
        <pt x="271" y="256" on="0"/>
        <pt x="297" y="224" on="1"/>
        <pt x="384" y="289" on="0"/>
      </contour>
    </TTGlyph>
    <TTGlyph name="C" xMin="66" yMin="-21" xMax="829" yMax="700">
      <contour>
        <pt x="414" y="410" on="1"/>
        <pt x="414" y="409" on="1"/>
        <pt x="455" y="429" on="0"/>
        <pt x="505" y="470" on="0"/>
        <pt x="505" y="493" on="0"/>
        <pt x="495" y="493" on="1"/>
        <pt x="474" y="493" on="0"/>
        <pt x="414" y="438" on="0"/>
      </contour>
      <contour>
        <pt x="539" y="493" on="1"/>
        <pt x="539" y="471" on="0"/>
        <pt x="471" y="416" on="0"/>
        <pt x="417" y="393" on="1"/>
        <pt x="429" y="369" on="0"/>
        <pt x="472" y="369" on="1"/>
        <pt x="536" y="369" on="0"/>
        <pt x="694" y="453" on="0"/>
        <pt x="803" y="570" on="0"/>
        <pt x="803" y="614" on="1"/>
        <pt x="803" y="679" on="0"/>
        <pt x="558" y="679" on="0"/>
        <pt x="292" y="492" on="0"/>
        <pt x="199" y="360" on="1"/>
        <pt x="208" y="360" on="1"/>
        <pt x="296" y="360" on="0"/>
        <pt x="390" y="399" on="1"/>
        <pt x="390" y="407" on="1"/>
        <pt x="390" y="441" on="0"/>
        <pt x="484" y="513" on="0"/>
        <pt x="517" y="513" on="1"/>
        <pt x="539" y="513" on="0"/>
      </contour>
      <contour>
        <pt x="222" y="529" on="1"/>
        <pt x="197" y="531" on="1"/>
        <pt x="173" y="531" on="0"/>
        <pt x="119" y="461" on="0"/>
        <pt x="119" y="436" on="1"/>
        <pt x="119" y="380" on="0"/>
        <pt x="172" y="363" on="1"/>
        <pt x="273" y="503" on="0"/>
        <pt x="570" y="700" on="0"/>
        <pt x="714" y="700" on="1"/>
        <pt x="829" y="700" on="0"/>
        <pt x="829" y="631" on="1"/>
        <pt x="829" y="581" on="0"/>
        <pt x="715" y="448" on="0"/>
        <pt x="539" y="351" on="0"/>
        <pt x="461" y="351" on="1"/>
        <pt x="410" y="351" on="0"/>
        <pt x="394" y="384" on="1"/>
        <pt x="292" y="344" on="0"/>
        <pt x="204" y="344" on="1"/>
        <pt x="188" y="344" on="1"/>
        <pt x="98" y="212" on="0"/>
        <pt x="98" y="115" on="1"/>
        <pt x="98" y="60" on="0"/>
        <pt x="167" y="-3" on="0"/>
        <pt x="239" y="-3" on="1"/>
        <pt x="358" y="-3" on="0"/>
        <pt x="460" y="61" on="1"/>
        <pt x="484" y="76" on="0"/>
        <pt x="496" y="86" on="1"/>
        <pt x="508" y="96" on="1"/>
        <pt x="511" y="98" on="0"/>
        <pt x="523" y="98" on="0"/>
        <pt x="523" y="85" on="0"/>
        <pt x="514" y="79" on="1"/>
        <pt x="387" y="-21" on="0"/>
        <pt x="222" y="-21" on="1"/>
        <pt x="143" y="-21" on="0"/>
        <pt x="66" y="48" on="0"/>
        <pt x="66" y="108" on="1"/>
        <pt x="66" y="210" on="0"/>
        <pt x="161" y="347" on="1"/>
        <pt x="92" y="368" on="0"/>
        <pt x="92" y="429" on="1"/>
        <pt x="92" y="472" on="0"/>
        <pt x="176" y="553" on="0"/>
        <pt x="211" y="553" on="1"/>
        <pt x="231" y="553" on="0"/>
        <pt x="231" y="529" on="0"/>
      </contour>
    </TTGlyph>
    <TTGlyph name="Ccedilla" xMin="66" yMin="-95" xMax="829" yMax="700">
      <contour>
        <pt x="414" y="410" on="1"/>
        <pt x="414" y="409" on="1"/>
        <pt x="455" y="429" on="0"/>
        <pt x="505" y="470" on="0"/>
        <pt x="505" y="493" on="0"/>
        <pt x="495" y="493" on="1"/>
        <pt x="474" y="493" on="0"/>
        <pt x="414" y="438" on="0"/>
      </contour>
      <contour>
        <pt x="539" y="493" on="1"/>
        <pt x="539" y="471" on="0"/>
        <pt x="471" y="416" on="0"/>
        <pt x="417" y="393" on="1"/>
        <pt x="429" y="369" on="0"/>
        <pt x="472" y="369" on="1"/>
        <pt x="536" y="369" on="0"/>
        <pt x="694" y="453" on="0"/>
        <pt x="803" y="570" on="0"/>
        <pt x="803" y="614" on="1"/>
        <pt x="803" y="679" on="0"/>
        <pt x="558" y="679" on="0"/>
        <pt x="292" y="492" on="0"/>
        <pt x="199" y="360" on="1"/>
        <pt x="208" y="360" on="1"/>
        <pt x="296" y="360" on="0"/>
        <pt x="390" y="399" on="1"/>
        <pt x="390" y="407" on="1"/>
        <pt x="390" y="441" on="0"/>
        <pt x="484" y="513" on="0"/>
        <pt x="517" y="513" on="1"/>
        <pt x="539" y="513" on="0"/>
      </contour>
      <contour>
        <pt x="222" y="529" on="1"/>
        <pt x="197" y="531" on="1"/>
        <pt x="173" y="531" on="0"/>
        <pt x="119" y="461" on="0"/>
        <pt x="119" y="436" on="1"/>
        <pt x="119" y="380" on="0"/>
        <pt x="172" y="363" on="1"/>
        <pt x="273" y="503" on="0"/>
        <pt x="570" y="700" on="0"/>
        <pt x="714" y="700" on="1"/>
        <pt x="829" y="700" on="0"/>
        <pt x="829" y="631" on="1"/>
        <pt x="829" y="581" on="0"/>
        <pt x="715" y="448" on="0"/>
        <pt x="539" y="351" on="0"/>
        <pt x="461" y="351" on="1"/>
        <pt x="410" y="351" on="0"/>
        <pt x="394" y="384" on="1"/>
        <pt x="292" y="344" on="0"/>
        <pt x="204" y="344" on="1"/>
        <pt x="188" y="344" on="1"/>
        <pt x="98" y="212" on="0"/>
        <pt x="98" y="115" on="1"/>
        <pt x="98" y="60" on="0"/>
        <pt x="167" y="-3" on="0"/>
        <pt x="239" y="-3" on="1"/>
        <pt x="358" y="-3" on="0"/>
        <pt x="460" y="61" on="1"/>
        <pt x="484" y="76" on="0"/>
        <pt x="496" y="86" on="1"/>
        <pt x="508" y="96" on="1"/>
        <pt x="511" y="98" on="0"/>
        <pt x="523" y="98" on="0"/>
        <pt x="523" y="85" on="0"/>
        <pt x="514" y="79" on="1"/>
        <pt x="393" y="-16" on="0"/>
        <pt x="239" y="-21" on="1"/>
        <pt x="237" y="-38" on="1"/>
        <pt x="254" y="-46" on="0"/>
        <pt x="254" y="-73" on="0"/>
        <pt x="222" y="-95" on="0"/>
        <pt x="158" y="-95" on="0"/>
        <pt x="158" y="-84" on="1"/>
        <pt x="158" y="-76" on="0"/>
        <pt x="166" y="-76" on="1"/>
        <pt x="178" y="-80" on="0"/>
        <pt x="192" y="-80" on="1"/>
        <pt x="233" y="-80" on="0"/>
        <pt x="233" y="-56" on="1"/>
        <pt x="233" y="-52" on="0"/>
        <pt x="220" y="-48" on="0"/>
        <pt x="220" y="-40" on="0"/>
        <pt x="226" y="-21" on="1"/>
        <pt x="144" y="-21" on="0"/>
        <pt x="66" y="48" on="0"/>
        <pt x="66" y="108" on="1"/>
        <pt x="66" y="210" on="0"/>
        <pt x="161" y="347" on="1"/>
        <pt x="92" y="368" on="0"/>
        <pt x="92" y="429" on="1"/>
        <pt x="92" y="472" on="0"/>
        <pt x="176" y="553" on="0"/>
        <pt x="211" y="553" on="1"/>
        <pt x="231" y="553" on="0"/>
        <pt x="231" y="529" on="0"/>
      </contour>
    </TTGlyph>
    <TTGlyph name="D" xMin="29" yMin="-11" xMax="1134" yMax="723">
      <contour>
        <pt x="480" y="454" on="1"/>
        <pt x="510" y="454" on="0"/>
        <pt x="553" y="507" on="0"/>
        <pt x="559" y="546" on="1"/>
        <pt x="522" y="536" on="0"/>
        <pt x="472" y="481" on="0"/>
        <pt x="472" y="454" on="0"/>
      </contour>
      <contour>
        <pt x="61" y="41" on="1"/>
        <pt x="62" y="1" on="0"/>
        <pt x="214" y="1" on="0"/>
        <pt x="278" y="24" on="1"/>
        <pt x="153" y="60" on="0"/>
        <pt x="61" y="60" on="0"/>
      </contour>
      <contour>
        <pt x="560" y="558" on="1"/>
        <pt x="561" y="562" on="0"/>
        <pt x="561" y="604" on="0"/>
        <pt x="549" y="632" on="1"/>
        <pt x="426" y="580" on="0"/>
        <pt x="253" y="381" on="0"/>
        <pt x="253" y="308" on="1"/>
        <pt x="253" y="240" on="0"/>
        <pt x="333" y="240" on="1"/>
        <pt x="402" y="240" on="0"/>
        <pt x="547" y="342" on="0"/>
        <pt x="632" y="469" on="0"/>
        <pt x="632" y="551" on="0"/>
        <pt x="591" y="551" on="1"/>
        <pt x="583" y="551" on="0"/>
        <pt x="579" y="550" on="1"/>
        <pt x="571" y="503" on="0"/>
        <pt x="512" y="437" on="0"/>
        <pt x="471" y="437" on="1"/>
        <pt x="444" y="437" on="0"/>
        <pt x="444" y="456" on="1"/>
        <pt x="444" y="479" on="0"/>
        <pt x="514" y="544" on="0"/>
      </contour>
      <contour>
        <pt x="1043" y="464" on="1"/>
        <pt x="1043" y="569" on="0"/>
        <pt x="948" y="622" on="1"/>
        <pt x="839" y="540" on="0"/>
        <pt x="662" y="310" on="1"/>
        <pt x="601" y="232" on="0"/>
        <pt x="427" y="71" on="0"/>
        <pt x="339" y="32" on="1"/>
        <pt x="434" y="6" on="0"/>
        <pt x="490" y="6" on="1"/>
        <pt x="594" y="6" on="0"/>
        <pt x="802" y="95" on="0"/>
        <pt x="950" y="229" on="0"/>
        <pt x="1043" y="392" on="0"/>
      </contour>
      <contour>
        <pt x="89" y="520" on="1"/>
        <pt x="82" y="508" on="0"/>
        <pt x="68" y="508" on="0"/>
        <pt x="68" y="516" on="1"/>
        <pt x="68" y="521" on="0"/>
        <pt x="72" y="528" on="1"/>
        <pt x="120" y="595" on="0"/>
        <pt x="321" y="723" on="0"/>
        <pt x="526" y="723" on="0"/>
        <pt x="564" y="653" on="1"/>
        <pt x="649" y="683" on="0"/>
        <pt x="735" y="683" on="1"/>
        <pt x="869" y="683" on="0"/>
        <pt x="953" y="645" on="1"/>
        <pt x="1042" y="702" on="0"/>
        <pt x="1126" y="719" on="1"/>
        <pt x="1134" y="719" on="0"/>
        <pt x="1134" y="707" on="0"/>
        <pt x="1127" y="706" on="1"/>
        <pt x="1046" y="689" on="0"/>
        <pt x="969" y="638" on="1"/>
        <pt x="1077" y="582" on="0"/>
        <pt x="1077" y="469" on="1"/>
        <pt x="1077" y="393" on="0"/>
        <pt x="976" y="223" on="0"/>
        <pt x="815" y="82" on="0"/>
        <pt x="589" y="-11" on="0"/>
        <pt x="475" y="-11" on="1"/>
        <pt x="410" y="-11" on="0"/>
        <pt x="302" y="17" on="1"/>
        <pt x="221" y="-10" on="0"/>
        <pt x="136" y="-10" on="1"/>
        <pt x="29" y="-10" on="0"/>
        <pt x="29" y="38" on="1"/>
        <pt x="29" y="75" on="0"/>
        <pt x="132" y="75" on="1"/>
        <pt x="190" y="75" on="0"/>
        <pt x="317" y="38" on="1"/>
        <pt x="399" y="75" on="0"/>
        <pt x="567" y="234" on="0"/>
        <pt x="690" y="393" on="0"/>
        <pt x="857" y="578" on="0"/>
        <pt x="932" y="631" on="1"/>
        <pt x="853" y="669" on="0"/>
        <pt x="724" y="669" on="1"/>
        <pt x="649" y="669" on="0"/>
        <pt x="570" y="640" on="1"/>
        <pt x="582" y="613" on="0"/>
        <pt x="582" y="569" on="0"/>
        <pt x="581" y="563" on="1"/>
        <pt x="597" y="565" on="0"/>
        <pt x="607" y="565" on="1"/>
        <pt x="664" y="565" on="0"/>
        <pt x="664" y="517" on="1"/>
        <pt x="664" y="482" on="0"/>
        <pt x="600" y="380" on="0"/>
        <pt x="503" y="286" on="0"/>
        <pt x="374" y="220" on="0"/>
        <pt x="268" y="220" on="0"/>
        <pt x="220" y="263" on="0"/>
        <pt x="220" y="300" on="1"/>
        <pt x="220" y="380" on="0"/>
        <pt x="407" y="591" on="0"/>
        <pt x="543" y="645" on="1"/>
        <pt x="506" y="712" on="0"/>
        <pt x="320" y="712" on="0"/>
        <pt x="118" y="578" on="0"/>
      </contour>
    </TTGlyph>
    <TTGlyph name="E" xMin="19" yMin="-24" xMax="1090" yMax="708">
      <contour>
        <pt x="689" y="517" on="1"/>
        <pt x="675" y="517" on="0"/>
        <pt x="668" y="516" on="1"/>
        <pt x="693" y="483" on="0"/>
        <pt x="735" y="483" on="1"/>
        <pt x="761" y="483" on="0"/>
        <pt x="761" y="494" on="1"/>
        <pt x="761" y="513" on="0"/>
      </contour>
      <contour>
        <pt x="385" y="181" on="1"/>
        <pt x="464" y="247" on="0"/>
        <pt x="481" y="337" on="1"/>
        <pt x="397" y="281" on="0"/>
      </contour>
      <contour>
        <pt x="485" y="357" on="1"/>
        <pt x="485" y="371" on="1"/>
        <pt x="485" y="413" on="0"/>
        <pt x="462" y="444" on="1"/>
        <pt x="377" y="390" on="0"/>
        <pt x="272" y="236" on="0"/>
        <pt x="272" y="162" on="1"/>
        <pt x="272" y="143" on="0"/>
        <pt x="275" y="125" on="1"/>
        <pt x="320" y="136" on="0"/>
        <pt x="361" y="163" on="1"/>
        <pt x="363" y="222" on="0"/>
        <pt x="431" y="326" on="0"/>
      </contour>
      <contour>
        <pt x="350" y="504" on="1"/>
        <pt x="425" y="504" on="0"/>
        <pt x="469" y="470" on="1"/>
        <pt x="505" y="488" on="0"/>
        <pt x="528" y="496" on="1"/>
        <pt x="415" y="563" on="0"/>
        <pt x="344" y="563" on="1"/>
        <pt x="215" y="562" on="0"/>
        <pt x="51" y="375" on="0"/>
        <pt x="51" y="268" on="1"/>
        <pt x="51" y="201" on="0"/>
        <pt x="126" y="115" on="0"/>
        <pt x="198" y="115" on="1"/>
        <pt x="199" y="115" on="1"/>
        <pt x="220" y="115" on="0"/>
        <pt x="240" y="118" on="1"/>
        <pt x="237" y="136" on="0"/>
        <pt x="237" y="157" on="1"/>
        <pt x="237" y="254" on="0"/>
        <pt x="354" y="409" on="0"/>
        <pt x="447" y="460" on="1"/>
        <pt x="415" y="487" on="0"/>
        <pt x="359" y="487" on="1"/>
        <pt x="343" y="487" on="0"/>
        <pt x="325" y="484" on="1"/>
        <pt x="320" y="484" on="0"/>
        <pt x="320" y="490" on="1"/>
        <pt x="320" y="504" on="0"/>
      </contour>
      <contour>
        <pt x="378" y="107" on="1"/>
        <pt x="361" y="107" on="0"/>
        <pt x="361" y="143" on="1"/>
        <pt x="319" y="118" on="0"/>
        <pt x="278" y="107" on="1"/>
        <pt x="290" y="57" on="0"/>
        <pt x="363" y="-6" on="0"/>
        <pt x="492" y="-6" on="0"/>
        <pt x="612" y="46" on="0"/>
        <pt x="691" y="125" on="0"/>
        <pt x="736" y="218" on="0"/>
        <pt x="736" y="312" on="0"/>
        <pt x="671" y="374" on="0"/>
        <pt x="555" y="374" on="0"/>
        <pt x="512" y="354" on="1"/>
        <pt x="506" y="302" on="0"/>
        <pt x="437" y="195" on="0"/>
        <pt x="383" y="157" on="1"/>
        <pt x="383" y="154" on="1"/>
        <pt x="383" y="145" on="0"/>
        <pt x="391" y="123" on="0"/>
        <pt x="391" y="114" on="0"/>
        <pt x="382" y="107" on="0"/>
      </contour>
      <contour>
        <pt x="894" y="551" on="1"/>
        <pt x="882" y="552" on="0"/>
        <pt x="882" y="560" on="0"/>
        <pt x="889" y="566" on="1"/>
        <pt x="919" y="595" on="0"/>
        <pt x="919" y="653" on="0"/>
        <pt x="837" y="698" on="0"/>
        <pt x="791" y="698" on="1"/>
        <pt x="723" y="698" on="0"/>
        <pt x="650" y="624" on="0"/>
        <pt x="650" y="576" on="1"/>
        <pt x="650" y="551" on="0"/>
        <pt x="661" y="527" on="1"/>
        <pt x="681" y="529" on="0"/>
        <pt x="730" y="529" on="0"/>
        <pt x="784" y="511" on="0"/>
        <pt x="784" y="493" on="1"/>
        <pt x="781" y="471" on="0"/>
        <pt x="747" y="471" on="1"/>
        <pt x="674" y="471" on="0"/>
        <pt x="640" y="513" on="1"/>
        <pt x="607" y="508" on="0"/>
        <pt x="566" y="494" on="1"/>
        <pt x="628" y="458" on="0"/>
        <pt x="742" y="418" on="0"/>
        <pt x="815" y="418" on="1"/>
        <pt x="924" y="418" on="0"/>
        <pt x="1064" y="542" on="0"/>
        <pt x="1064" y="609" on="1"/>
        <pt x="1064" y="644" on="0"/>
        <pt x="1018" y="688" on="0"/>
        <pt x="973" y="688" on="1"/>
        <pt x="957" y="688" on="0"/>
        <pt x="957" y="696" on="1"/>
        <pt x="957" y="701" on="0"/>
        <pt x="980" y="701" on="1"/>
        <pt x="1031" y="701" on="0"/>
        <pt x="1090" y="643" on="0"/>
        <pt x="1090" y="599" on="1"/>
        <pt x="1090" y="525" on="0"/>
        <pt x="931" y="403" on="0"/>
        <pt x="785" y="403" on="1"/>
        <pt x="741" y="403" on="0"/>
        <pt x="649" y="430" on="0"/>
        <pt x="589" y="461" on="0"/>
        <pt x="545" y="487" on="1"/>
        <pt x="516" y="475" on="0"/>
        <pt x="483" y="457" on="1"/>
        <pt x="513" y="422" on="0"/>
        <pt x="513" y="374" on="1"/>
        <pt x="513" y="370" on="1"/>
        <pt x="563" y="391" on="0"/>
        <pt x="616" y="391" on="1"/>
        <pt x="694" y="391" on="0"/>
        <pt x="772" y="325" on="0"/>
        <pt x="772" y="225" on="0"/>
        <pt x="717" y="121" on="0"/>
        <pt x="623" y="33" on="0"/>
        <pt x="485" y="-24" on="0"/>
        <pt x="345" y="-24" on="0"/>
        <pt x="260" y="44" on="0"/>
        <pt x="244" y="100" on="1"/>
        <pt x="223" y="96" on="0"/>
        <pt x="193" y="96" on="1"/>
        <pt x="107" y="96" on="0"/>
        <pt x="19" y="189" on="0"/>
        <pt x="19" y="333" on="0"/>
        <pt x="97" y="476" on="0"/>
        <pt x="252" y="577" on="0"/>
        <pt x="347" y="577" on="1"/>
        <pt x="384" y="577" on="0"/>
        <pt x="461" y="553" on="0"/>
        <pt x="507" y="529" on="0"/>
        <pt x="550" y="504" on="1"/>
        <pt x="594" y="518" on="0"/>
        <pt x="632" y="524" on="1"/>
        <pt x="620" y="545" on="0"/>
        <pt x="620" y="571" on="1"/>
        <pt x="620" y="624" on="0"/>
        <pt x="713" y="708" on="0"/>
        <pt x="862" y="708" on="0"/>
        <pt x="945" y="656" on="0"/>
        <pt x="945" y="577" on="0"/>
      </contour>
    </TTGlyph>
    <TTGlyph name="Eacute" xMin="19" yMin="-24" xMax="1090" yMax="829">
      <contour>
        <pt x="689" y="517" on="1"/>
        <pt x="675" y="517" on="0"/>
        <pt x="668" y="516" on="1"/>
        <pt x="693" y="483" on="0"/>
        <pt x="735" y="483" on="1"/>
        <pt x="761" y="483" on="0"/>
        <pt x="761" y="494" on="1"/>
        <pt x="761" y="513" on="0"/>
      </contour>
      <contour>
        <pt x="385" y="181" on="1"/>
        <pt x="464" y="247" on="0"/>
        <pt x="481" y="337" on="1"/>
        <pt x="397" y="281" on="0"/>
      </contour>
      <contour>
        <pt x="485" y="357" on="1"/>
        <pt x="485" y="371" on="1"/>
        <pt x="485" y="413" on="0"/>
        <pt x="462" y="444" on="1"/>
        <pt x="377" y="390" on="0"/>
        <pt x="272" y="236" on="0"/>
        <pt x="272" y="162" on="1"/>
        <pt x="272" y="143" on="0"/>
        <pt x="275" y="125" on="1"/>
        <pt x="320" y="136" on="0"/>
        <pt x="361" y="163" on="1"/>
        <pt x="363" y="222" on="0"/>
        <pt x="431" y="326" on="0"/>
      </contour>
      <contour>
        <pt x="350" y="504" on="1"/>
        <pt x="425" y="504" on="0"/>
        <pt x="469" y="470" on="1"/>
        <pt x="505" y="488" on="0"/>
        <pt x="528" y="496" on="1"/>
        <pt x="415" y="563" on="0"/>
        <pt x="344" y="563" on="1"/>
        <pt x="215" y="562" on="0"/>
        <pt x="51" y="375" on="0"/>
        <pt x="51" y="268" on="1"/>
        <pt x="51" y="201" on="0"/>
        <pt x="126" y="115" on="0"/>
        <pt x="198" y="115" on="1"/>
        <pt x="199" y="115" on="1"/>
        <pt x="220" y="115" on="0"/>
        <pt x="240" y="118" on="1"/>
        <pt x="237" y="136" on="0"/>
        <pt x="237" y="157" on="1"/>
        <pt x="237" y="254" on="0"/>
        <pt x="354" y="409" on="0"/>
        <pt x="447" y="460" on="1"/>
        <pt x="415" y="487" on="0"/>
        <pt x="359" y="487" on="1"/>
        <pt x="343" y="487" on="0"/>
        <pt x="325" y="484" on="1"/>
        <pt x="320" y="484" on="0"/>
        <pt x="320" y="490" on="1"/>
        <pt x="320" y="504" on="0"/>
      </contour>
      <contour>
        <pt x="378" y="107" on="1"/>
        <pt x="361" y="107" on="0"/>
        <pt x="361" y="143" on="1"/>
        <pt x="319" y="118" on="0"/>
        <pt x="278" y="107" on="1"/>
        <pt x="290" y="57" on="0"/>
        <pt x="363" y="-6" on="0"/>
        <pt x="492" y="-6" on="0"/>
        <pt x="612" y="46" on="0"/>
        <pt x="691" y="125" on="0"/>
        <pt x="736" y="218" on="0"/>
        <pt x="736" y="312" on="0"/>
        <pt x="671" y="374" on="0"/>
        <pt x="555" y="374" on="0"/>
        <pt x="512" y="354" on="1"/>
        <pt x="506" y="302" on="0"/>
        <pt x="437" y="195" on="0"/>
        <pt x="383" y="157" on="1"/>
        <pt x="383" y="154" on="1"/>
        <pt x="383" y="145" on="0"/>
        <pt x="391" y="123" on="0"/>
        <pt x="391" y="114" on="0"/>
        <pt x="382" y="107" on="0"/>
      </contour>
      <contour>
        <pt x="894" y="551" on="1"/>
        <pt x="882" y="552" on="0"/>
        <pt x="882" y="560" on="0"/>
        <pt x="889" y="566" on="1"/>
        <pt x="919" y="595" on="0"/>
        <pt x="919" y="653" on="0"/>
        <pt x="837" y="698" on="0"/>
        <pt x="791" y="698" on="1"/>
        <pt x="723" y="698" on="0"/>
        <pt x="650" y="624" on="0"/>
        <pt x="650" y="576" on="1"/>
        <pt x="650" y="551" on="0"/>
        <pt x="661" y="527" on="1"/>
        <pt x="681" y="529" on="0"/>
        <pt x="730" y="529" on="0"/>
        <pt x="784" y="511" on="0"/>
        <pt x="784" y="493" on="1"/>
        <pt x="781" y="471" on="0"/>
        <pt x="747" y="471" on="1"/>
        <pt x="674" y="471" on="0"/>
        <pt x="640" y="513" on="1"/>
        <pt x="607" y="508" on="0"/>
        <pt x="566" y="494" on="1"/>
        <pt x="628" y="458" on="0"/>
        <pt x="742" y="418" on="0"/>
        <pt x="815" y="418" on="1"/>
        <pt x="924" y="418" on="0"/>
        <pt x="1064" y="542" on="0"/>
        <pt x="1064" y="609" on="1"/>
        <pt x="1064" y="644" on="0"/>
        <pt x="1018" y="688" on="0"/>
        <pt x="973" y="688" on="1"/>
        <pt x="957" y="688" on="0"/>
        <pt x="957" y="696" on="1"/>
        <pt x="957" y="701" on="0"/>
        <pt x="980" y="701" on="1"/>
        <pt x="1031" y="701" on="0"/>
        <pt x="1090" y="643" on="0"/>
        <pt x="1090" y="599" on="1"/>
        <pt x="1090" y="525" on="0"/>
        <pt x="931" y="403" on="0"/>
        <pt x="785" y="403" on="1"/>
        <pt x="741" y="403" on="0"/>
        <pt x="649" y="430" on="0"/>
        <pt x="589" y="461" on="0"/>
        <pt x="545" y="487" on="1"/>
        <pt x="516" y="475" on="0"/>
        <pt x="483" y="457" on="1"/>
        <pt x="513" y="422" on="0"/>
        <pt x="513" y="374" on="1"/>
        <pt x="513" y="370" on="1"/>
        <pt x="563" y="391" on="0"/>
        <pt x="616" y="391" on="1"/>
        <pt x="694" y="391" on="0"/>
        <pt x="772" y="325" on="0"/>
        <pt x="772" y="225" on="0"/>
        <pt x="717" y="121" on="0"/>
        <pt x="623" y="33" on="0"/>
        <pt x="485" y="-24" on="0"/>
        <pt x="345" y="-24" on="0"/>
        <pt x="260" y="44" on="0"/>
        <pt x="244" y="100" on="1"/>
        <pt x="223" y="96" on="0"/>
        <pt x="193" y="96" on="1"/>
        <pt x="107" y="96" on="0"/>
        <pt x="19" y="189" on="0"/>
        <pt x="19" y="333" on="0"/>
        <pt x="97" y="476" on="0"/>
        <pt x="252" y="577" on="0"/>
        <pt x="347" y="577" on="1"/>
        <pt x="384" y="577" on="0"/>
        <pt x="461" y="553" on="0"/>
        <pt x="507" y="529" on="0"/>
        <pt x="550" y="504" on="1"/>
        <pt x="594" y="518" on="0"/>
        <pt x="632" y="524" on="1"/>
        <pt x="620" y="545" on="0"/>
        <pt x="620" y="571" on="1"/>
        <pt x="620" y="624" on="0"/>
        <pt x="713" y="708" on="0"/>
        <pt x="862" y="708" on="0"/>
        <pt x="945" y="656" on="0"/>
        <pt x="945" y="577" on="0"/>
      </contour>
      <contour>
        <pt x="887" y="768" on="1"/>
        <pt x="887" y="771" on="0"/>
        <pt x="900" y="774" on="1"/>
        <pt x="949" y="786" on="0"/>
        <pt x="978" y="818" on="1"/>
        <pt x="989" y="829" on="0"/>
        <pt x="1008" y="829" on="0"/>
        <pt x="1008" y="820" on="1"/>
        <pt x="1008" y="804" on="0"/>
        <pt x="920" y="763" on="0"/>
        <pt x="894" y="763" on="1"/>
        <pt x="887" y="763" on="0"/>
      </contour>
    </TTGlyph>
    <TTGlyph name="Ecircumflex" xMin="19" yMin="-24" xMax="1090" yMax="830">
      <contour>
        <pt x="689" y="517" on="1"/>
        <pt x="675" y="517" on="0"/>
        <pt x="668" y="516" on="1"/>
        <pt x="693" y="483" on="0"/>
        <pt x="735" y="483" on="1"/>
        <pt x="761" y="483" on="0"/>
        <pt x="761" y="494" on="1"/>
        <pt x="761" y="513" on="0"/>
      </contour>
      <contour>
        <pt x="385" y="181" on="1"/>
        <pt x="464" y="247" on="0"/>
        <pt x="481" y="337" on="1"/>
        <pt x="397" y="281" on="0"/>
      </contour>
      <contour>
        <pt x="485" y="357" on="1"/>
        <pt x="485" y="371" on="1"/>
        <pt x="485" y="413" on="0"/>
        <pt x="462" y="444" on="1"/>
        <pt x="377" y="390" on="0"/>
        <pt x="272" y="236" on="0"/>
        <pt x="272" y="162" on="1"/>
        <pt x="272" y="143" on="0"/>
        <pt x="275" y="125" on="1"/>
        <pt x="320" y="136" on="0"/>
        <pt x="361" y="163" on="1"/>
        <pt x="363" y="222" on="0"/>
        <pt x="431" y="326" on="0"/>
      </contour>
      <contour>
        <pt x="350" y="504" on="1"/>
        <pt x="425" y="504" on="0"/>
        <pt x="469" y="470" on="1"/>
        <pt x="505" y="488" on="0"/>
        <pt x="528" y="496" on="1"/>
        <pt x="415" y="563" on="0"/>
        <pt x="344" y="563" on="1"/>
        <pt x="215" y="562" on="0"/>
        <pt x="51" y="375" on="0"/>
        <pt x="51" y="268" on="1"/>
        <pt x="51" y="201" on="0"/>
        <pt x="126" y="115" on="0"/>
        <pt x="198" y="115" on="1"/>
        <pt x="199" y="115" on="1"/>
        <pt x="220" y="115" on="0"/>
        <pt x="240" y="118" on="1"/>
        <pt x="237" y="136" on="0"/>
        <pt x="237" y="157" on="1"/>
        <pt x="237" y="254" on="0"/>
        <pt x="354" y="409" on="0"/>
        <pt x="447" y="460" on="1"/>
        <pt x="415" y="487" on="0"/>
        <pt x="359" y="487" on="1"/>
        <pt x="343" y="487" on="0"/>
        <pt x="325" y="484" on="1"/>
        <pt x="320" y="484" on="0"/>
        <pt x="320" y="490" on="1"/>
        <pt x="320" y="504" on="0"/>
      </contour>
      <contour>
        <pt x="378" y="107" on="1"/>
        <pt x="361" y="107" on="0"/>
        <pt x="361" y="143" on="1"/>
        <pt x="319" y="118" on="0"/>
        <pt x="278" y="107" on="1"/>
        <pt x="290" y="57" on="0"/>
        <pt x="363" y="-6" on="0"/>
        <pt x="492" y="-6" on="0"/>
        <pt x="612" y="46" on="0"/>
        <pt x="691" y="125" on="0"/>
        <pt x="736" y="218" on="0"/>
        <pt x="736" y="312" on="0"/>
        <pt x="671" y="374" on="0"/>
        <pt x="555" y="374" on="0"/>
        <pt x="512" y="354" on="1"/>
        <pt x="506" y="302" on="0"/>
        <pt x="437" y="195" on="0"/>
        <pt x="383" y="157" on="1"/>
        <pt x="383" y="154" on="1"/>
        <pt x="383" y="145" on="0"/>
        <pt x="391" y="123" on="0"/>
        <pt x="391" y="114" on="0"/>
        <pt x="382" y="107" on="0"/>
      </contour>
      <contour>
        <pt x="894" y="551" on="1"/>
        <pt x="882" y="552" on="0"/>
        <pt x="882" y="560" on="0"/>
        <pt x="889" y="566" on="1"/>
        <pt x="919" y="595" on="0"/>
        <pt x="919" y="653" on="0"/>
        <pt x="837" y="698" on="0"/>
        <pt x="791" y="698" on="1"/>
        <pt x="723" y="698" on="0"/>
        <pt x="650" y="624" on="0"/>
        <pt x="650" y="576" on="1"/>
        <pt x="650" y="551" on="0"/>
        <pt x="661" y="527" on="1"/>
        <pt x="681" y="529" on="0"/>
        <pt x="730" y="529" on="0"/>
        <pt x="784" y="511" on="0"/>
        <pt x="784" y="493" on="1"/>
        <pt x="781" y="471" on="0"/>
        <pt x="747" y="471" on="1"/>
        <pt x="674" y="471" on="0"/>
        <pt x="640" y="513" on="1"/>
        <pt x="607" y="508" on="0"/>
        <pt x="566" y="494" on="1"/>
        <pt x="628" y="458" on="0"/>
        <pt x="742" y="418" on="0"/>
        <pt x="815" y="418" on="1"/>
        <pt x="924" y="418" on="0"/>
        <pt x="1064" y="542" on="0"/>
        <pt x="1064" y="609" on="1"/>
        <pt x="1064" y="644" on="0"/>
        <pt x="1018" y="688" on="0"/>
        <pt x="973" y="688" on="1"/>
        <pt x="957" y="688" on="0"/>
        <pt x="957" y="696" on="1"/>
        <pt x="957" y="701" on="0"/>
        <pt x="980" y="701" on="1"/>
        <pt x="1031" y="701" on="0"/>
        <pt x="1090" y="643" on="0"/>
        <pt x="1090" y="599" on="1"/>
        <pt x="1090" y="525" on="0"/>
        <pt x="931" y="403" on="0"/>
        <pt x="785" y="403" on="1"/>
        <pt x="741" y="403" on="0"/>
        <pt x="649" y="430" on="0"/>
        <pt x="589" y="461" on="0"/>
        <pt x="545" y="487" on="1"/>
        <pt x="516" y="475" on="0"/>
        <pt x="483" y="457" on="1"/>
        <pt x="513" y="422" on="0"/>
        <pt x="513" y="374" on="1"/>
        <pt x="513" y="370" on="1"/>
        <pt x="563" y="391" on="0"/>
        <pt x="616" y="391" on="1"/>
        <pt x="694" y="391" on="0"/>
        <pt x="772" y="325" on="0"/>
        <pt x="772" y="225" on="0"/>
        <pt x="717" y="121" on="0"/>
        <pt x="623" y="33" on="0"/>
        <pt x="485" y="-24" on="0"/>
        <pt x="345" y="-24" on="0"/>
        <pt x="260" y="44" on="0"/>
        <pt x="244" y="100" on="1"/>
        <pt x="223" y="96" on="0"/>
        <pt x="193" y="96" on="1"/>
        <pt x="107" y="96" on="0"/>
        <pt x="19" y="189" on="0"/>
        <pt x="19" y="333" on="0"/>
        <pt x="97" y="476" on="0"/>
        <pt x="252" y="577" on="0"/>
        <pt x="347" y="577" on="1"/>
        <pt x="384" y="577" on="0"/>
        <pt x="461" y="553" on="0"/>
        <pt x="507" y="529" on="0"/>
        <pt x="550" y="504" on="1"/>
        <pt x="594" y="518" on="0"/>
        <pt x="632" y="524" on="1"/>
        <pt x="620" y="545" on="0"/>
        <pt x="620" y="571" on="1"/>
        <pt x="620" y="624" on="0"/>
        <pt x="713" y="708" on="0"/>
        <pt x="862" y="708" on="0"/>
        <pt x="945" y="656" on="0"/>
        <pt x="945" y="577" on="0"/>
      </contour>
      <contour>
        <pt x="808" y="776" on="1"/>
        <pt x="801" y="776" on="0"/>
        <pt x="801" y="785" on="0"/>
        <pt x="845" y="793" on="0"/>
        <pt x="878" y="830" on="0"/>
        <pt x="893" y="830" on="0"/>
        <pt x="898" y="819" on="0"/>
        <pt x="899" y="812" on="1"/>
        <pt x="902" y="792" on="0"/>
        <pt x="929" y="780" on="1"/>
        <pt x="932" y="778" on="0"/>
        <pt x="932" y="775" on="0"/>
        <pt x="925" y="769" on="0"/>
        <pt x="921" y="769" on="1"/>
        <pt x="899" y="769" on="0"/>
        <pt x="881" y="803" on="1"/>
        <pt x="841" y="776" on="0"/>
      </contour>
    </TTGlyph>
    <TTGlyph name="Edieresis" xMin="19" yMin="-24" xMax="1090" yMax="815">
      <contour>
        <pt x="689" y="517" on="1"/>
        <pt x="761" y="513" on="0"/>
        <pt x="761" y="494" on="1"/>
        <pt x="761" y="483" on="0"/>
        <pt x="735" y="483" on="1"/>
        <pt x="693" y="483" on="0"/>
        <pt x="668" y="516" on="1"/>
        <pt x="675" y="517" on="0"/>
      </contour>
      <contour>
        <pt x="385" y="181" on="1"/>
        <pt x="397" y="281" on="0"/>
        <pt x="481" y="337" on="1"/>
        <pt x="464" y="247" on="0"/>
      </contour>
      <contour>
        <pt x="485" y="371" on="1"/>
        <pt x="485" y="357" on="1"/>
        <pt x="431" y="326" on="0"/>
        <pt x="363" y="222" on="0"/>
        <pt x="361" y="163" on="1"/>
        <pt x="320" y="136" on="0"/>
        <pt x="275" y="125" on="1"/>
        <pt x="272" y="143" on="0"/>
        <pt x="272" y="162" on="1"/>
        <pt x="272" y="236" on="0"/>
        <pt x="377" y="390" on="0"/>
        <pt x="462" y="444" on="1"/>
        <pt x="485" y="413" on="0"/>
      </contour>
      <contour>
        <pt x="350" y="504" on="1"/>
        <pt x="320" y="504" on="0"/>
        <pt x="320" y="490" on="1"/>
        <pt x="320" y="484" on="0"/>
        <pt x="325" y="484" on="1"/>
        <pt x="343" y="487" on="0"/>
        <pt x="359" y="487" on="1"/>
        <pt x="415" y="487" on="0"/>
        <pt x="447" y="460" on="1"/>
        <pt x="354" y="409" on="0"/>
        <pt x="237" y="254" on="0"/>
        <pt x="237" y="157" on="1"/>
        <pt x="237" y="136" on="0"/>
        <pt x="240" y="118" on="1"/>
        <pt x="221" y="115" on="0"/>
        <pt x="199" y="115" on="1"/>
        <pt x="198" y="115" on="1"/>
        <pt x="126" y="115" on="0"/>
        <pt x="51" y="201" on="0"/>
        <pt x="51" y="268" on="1"/>
        <pt x="51" y="375" on="0"/>
        <pt x="215" y="562" on="0"/>
        <pt x="344" y="563" on="1"/>
        <pt x="401" y="563" on="0"/>
        <pt x="467" y="530" on="1"/>
        <pt x="491" y="518" on="0"/>
        <pt x="528" y="496" on="1"/>
        <pt x="505" y="488" on="0"/>
        <pt x="469" y="470" on="1"/>
        <pt x="425" y="504" on="0"/>
      </contour>
      <contour>
        <pt x="361" y="143" on="1"/>
        <pt x="361" y="107" on="0"/>
        <pt x="378" y="107" on="1"/>
        <pt x="382" y="107" on="0"/>
        <pt x="391" y="114" on="0"/>
        <pt x="391" y="123" on="0"/>
        <pt x="383" y="145" on="0"/>
        <pt x="383" y="154" on="1"/>
        <pt x="383" y="157" on="1"/>
        <pt x="437" y="195" on="0"/>
        <pt x="506" y="302" on="0"/>
        <pt x="512" y="354" on="1"/>
        <pt x="555" y="374" on="0"/>
        <pt x="671" y="374" on="0"/>
        <pt x="736" y="312" on="0"/>
        <pt x="736" y="218" on="0"/>
        <pt x="691" y="125" on="0"/>
        <pt x="612" y="46" on="0"/>
        <pt x="492" y="-6" on="0"/>
        <pt x="363" y="-6" on="0"/>
        <pt x="290" y="57" on="0"/>
        <pt x="278" y="107" on="1"/>
        <pt x="319" y="118" on="0"/>
      </contour>
      <contour>
        <pt x="894" y="551" on="1"/>
        <pt x="945" y="577" on="0"/>
        <pt x="945" y="656" on="0"/>
        <pt x="862" y="708" on="0"/>
        <pt x="713" y="708" on="0"/>
        <pt x="620" y="624" on="0"/>
        <pt x="620" y="571" on="1"/>
        <pt x="620" y="545" on="0"/>
        <pt x="632" y="524" on="1"/>
        <pt x="594" y="518" on="0"/>
        <pt x="550" y="504" on="1"/>
        <pt x="507" y="529" on="0"/>
        <pt x="461" y="553" on="0"/>
        <pt x="384" y="577" on="0"/>
        <pt x="347" y="577" on="1"/>
        <pt x="252" y="577" on="0"/>
        <pt x="97" y="476" on="0"/>
        <pt x="19" y="333" on="0"/>
        <pt x="19" y="189" on="0"/>
        <pt x="107" y="96" on="0"/>
        <pt x="193" y="96" on="1"/>
        <pt x="223" y="96" on="0"/>
        <pt x="244" y="100" on="1"/>
        <pt x="260" y="44" on="0"/>
        <pt x="345" y="-24" on="0"/>
        <pt x="485" y="-24" on="0"/>
        <pt x="623" y="33" on="0"/>
        <pt x="717" y="121" on="0"/>
        <pt x="772" y="225" on="0"/>
        <pt x="772" y="325" on="0"/>
        <pt x="694" y="391" on="0"/>
        <pt x="616" y="391" on="1"/>
        <pt x="563" y="391" on="0"/>
        <pt x="513" y="370" on="1"/>
        <pt x="513" y="374" on="1"/>
        <pt x="513" y="422" on="0"/>
        <pt x="483" y="457" on="1"/>
        <pt x="516" y="475" on="0"/>
        <pt x="545" y="487" on="1"/>
        <pt x="589" y="461" on="0"/>
        <pt x="649" y="430" on="0"/>
        <pt x="741" y="403" on="0"/>
        <pt x="785" y="403" on="1"/>
        <pt x="931" y="403" on="0"/>
        <pt x="1090" y="525" on="0"/>
        <pt x="1090" y="599" on="1"/>
        <pt x="1090" y="643" on="0"/>
        <pt x="1031" y="701" on="0"/>
        <pt x="980" y="701" on="1"/>
        <pt x="957" y="701" on="0"/>
        <pt x="957" y="696" on="1"/>
        <pt x="957" y="688" on="0"/>
        <pt x="973" y="688" on="1"/>
        <pt x="1018" y="688" on="0"/>
        <pt x="1064" y="644" on="0"/>
        <pt x="1064" y="609" on="1"/>
        <pt x="1064" y="542" on="0"/>
        <pt x="924" y="418" on="0"/>
        <pt x="815" y="418" on="1"/>
        <pt x="742" y="418" on="0"/>
        <pt x="628" y="458" on="0"/>
        <pt x="566" y="494" on="1"/>
        <pt x="607" y="508" on="0"/>
        <pt x="640" y="513" on="1"/>
        <pt x="674" y="471" on="0"/>
        <pt x="747" y="471" on="1"/>
        <pt x="781" y="471" on="0"/>
        <pt x="784" y="493" on="1"/>
        <pt x="784" y="511" on="0"/>
        <pt x="730" y="529" on="0"/>
        <pt x="681" y="529" on="0"/>
        <pt x="661" y="527" on="1"/>
        <pt x="650" y="551" on="0"/>
        <pt x="650" y="576" on="1"/>
        <pt x="650" y="624" on="0"/>
        <pt x="723" y="698" on="0"/>
        <pt x="791" y="698" on="1"/>
        <pt x="837" y="698" on="0"/>
        <pt x="919" y="653" on="0"/>
        <pt x="919" y="595" on="0"/>
        <pt x="889" y="566" on="1"/>
        <pt x="882" y="560" on="0"/>
        <pt x="882" y="558" on="1"/>
        <pt x="882" y="553" on="0"/>
      </contour>
      <contour>
        <pt x="902" y="785" on="0"/>
        <pt x="920" y="806" on="0"/>
        <pt x="935" y="806" on="0"/>
        <pt x="944" y="797" on="0"/>
        <pt x="944" y="779" on="0"/>
        <pt x="923" y="763" on="0"/>
        <pt x="916" y="763" on="1"/>
        <pt x="902" y="763" on="0"/>
        <pt x="902" y="776" on="1"/>
      </contour>
      <contour>
        <pt x="829" y="794" on="0"/>
        <pt x="847" y="815" on="0"/>
        <pt x="862" y="815" on="0"/>
        <pt x="871" y="806" on="0"/>
        <pt x="871" y="788" on="0"/>
        <pt x="850" y="772" on="0"/>
        <pt x="843" y="772" on="1"/>
        <pt x="829" y="772" on="0"/>
        <pt x="829" y="785" on="1"/>
      </contour>
    </TTGlyph>
    <TTGlyph name="Egrave" xMin="19" yMin="-24" xMax="1090" yMax="833">
      <contour>
        <pt x="689" y="517" on="1"/>
        <pt x="761" y="513" on="0"/>
        <pt x="761" y="494" on="1"/>
        <pt x="761" y="483" on="0"/>
        <pt x="735" y="483" on="1"/>
        <pt x="693" y="483" on="0"/>
        <pt x="668" y="516" on="1"/>
        <pt x="675" y="517" on="0"/>
      </contour>
      <contour>
        <pt x="385" y="181" on="1"/>
        <pt x="397" y="281" on="0"/>
        <pt x="481" y="337" on="1"/>
        <pt x="464" y="247" on="0"/>
      </contour>
      <contour>
        <pt x="485" y="371" on="1"/>
        <pt x="485" y="357" on="1"/>
        <pt x="431" y="326" on="0"/>
        <pt x="363" y="222" on="0"/>
        <pt x="361" y="163" on="1"/>
        <pt x="320" y="136" on="0"/>
        <pt x="275" y="125" on="1"/>
        <pt x="272" y="143" on="0"/>
        <pt x="272" y="162" on="1"/>
        <pt x="272" y="236" on="0"/>
        <pt x="377" y="390" on="0"/>
        <pt x="462" y="444" on="1"/>
        <pt x="485" y="413" on="0"/>
      </contour>
      <contour>
        <pt x="350" y="504" on="1"/>
        <pt x="320" y="504" on="0"/>
        <pt x="320" y="490" on="1"/>
        <pt x="320" y="484" on="0"/>
        <pt x="325" y="484" on="1"/>
        <pt x="343" y="487" on="0"/>
        <pt x="359" y="487" on="1"/>
        <pt x="415" y="487" on="0"/>
        <pt x="447" y="460" on="1"/>
        <pt x="354" y="409" on="0"/>
        <pt x="237" y="254" on="0"/>
        <pt x="237" y="157" on="1"/>
        <pt x="237" y="136" on="0"/>
        <pt x="240" y="118" on="1"/>
        <pt x="221" y="115" on="0"/>
        <pt x="199" y="115" on="1"/>
        <pt x="198" y="115" on="1"/>
        <pt x="126" y="115" on="0"/>
        <pt x="51" y="201" on="0"/>
        <pt x="51" y="268" on="1"/>
        <pt x="51" y="375" on="0"/>
        <pt x="215" y="562" on="0"/>
        <pt x="344" y="563" on="1"/>
        <pt x="401" y="563" on="0"/>
        <pt x="467" y="530" on="1"/>
        <pt x="491" y="518" on="0"/>
        <pt x="528" y="496" on="1"/>
        <pt x="505" y="488" on="0"/>
        <pt x="469" y="470" on="1"/>
        <pt x="425" y="504" on="0"/>
      </contour>
      <contour>
        <pt x="361" y="143" on="1"/>
        <pt x="361" y="107" on="0"/>
        <pt x="378" y="107" on="1"/>
        <pt x="382" y="107" on="0"/>
        <pt x="391" y="114" on="0"/>
        <pt x="391" y="123" on="0"/>
        <pt x="383" y="145" on="0"/>
        <pt x="383" y="154" on="1"/>
        <pt x="383" y="157" on="1"/>
        <pt x="437" y="195" on="0"/>
        <pt x="506" y="302" on="0"/>
        <pt x="512" y="354" on="1"/>
        <pt x="555" y="374" on="0"/>
        <pt x="671" y="374" on="0"/>
        <pt x="736" y="312" on="0"/>
        <pt x="736" y="218" on="0"/>
        <pt x="691" y="125" on="0"/>
        <pt x="612" y="46" on="0"/>
        <pt x="492" y="-6" on="0"/>
        <pt x="363" y="-6" on="0"/>
        <pt x="290" y="57" on="0"/>
        <pt x="278" y="107" on="1"/>
        <pt x="319" y="118" on="0"/>
      </contour>
      <contour>
        <pt x="894" y="551" on="1"/>
        <pt x="945" y="577" on="0"/>
        <pt x="945" y="656" on="0"/>
        <pt x="862" y="708" on="0"/>
        <pt x="713" y="708" on="0"/>
        <pt x="620" y="624" on="0"/>
        <pt x="620" y="571" on="1"/>
        <pt x="620" y="545" on="0"/>
        <pt x="632" y="524" on="1"/>
        <pt x="594" y="518" on="0"/>
        <pt x="550" y="504" on="1"/>
        <pt x="507" y="529" on="0"/>
        <pt x="461" y="553" on="0"/>
        <pt x="384" y="577" on="0"/>
        <pt x="347" y="577" on="1"/>
        <pt x="252" y="577" on="0"/>
        <pt x="97" y="476" on="0"/>
        <pt x="19" y="333" on="0"/>
        <pt x="19" y="189" on="0"/>
        <pt x="107" y="96" on="0"/>
        <pt x="193" y="96" on="1"/>
        <pt x="223" y="96" on="0"/>
        <pt x="244" y="100" on="1"/>
        <pt x="260" y="44" on="0"/>
        <pt x="345" y="-24" on="0"/>
        <pt x="485" y="-24" on="0"/>
        <pt x="623" y="33" on="0"/>
        <pt x="717" y="121" on="0"/>
        <pt x="772" y="225" on="0"/>
        <pt x="772" y="325" on="0"/>
        <pt x="694" y="391" on="0"/>
        <pt x="616" y="391" on="1"/>
        <pt x="563" y="391" on="0"/>
        <pt x="513" y="370" on="1"/>
        <pt x="513" y="374" on="1"/>
        <pt x="513" y="422" on="0"/>
        <pt x="483" y="457" on="1"/>
        <pt x="516" y="475" on="0"/>
        <pt x="545" y="487" on="1"/>
        <pt x="589" y="461" on="0"/>
        <pt x="649" y="430" on="0"/>
        <pt x="741" y="403" on="0"/>
        <pt x="785" y="403" on="1"/>
        <pt x="931" y="403" on="0"/>
        <pt x="1090" y="525" on="0"/>
        <pt x="1090" y="599" on="1"/>
        <pt x="1090" y="643" on="0"/>
        <pt x="1031" y="701" on="0"/>
        <pt x="980" y="701" on="1"/>
        <pt x="957" y="701" on="0"/>
        <pt x="957" y="696" on="1"/>
        <pt x="957" y="688" on="0"/>
        <pt x="973" y="688" on="1"/>
        <pt x="1018" y="688" on="0"/>
        <pt x="1064" y="644" on="0"/>
        <pt x="1064" y="609" on="1"/>
        <pt x="1064" y="542" on="0"/>
        <pt x="924" y="418" on="0"/>
        <pt x="815" y="418" on="1"/>
        <pt x="742" y="418" on="0"/>
        <pt x="628" y="458" on="0"/>
        <pt x="566" y="494" on="1"/>
        <pt x="607" y="508" on="0"/>
        <pt x="640" y="513" on="1"/>
        <pt x="674" y="471" on="0"/>
        <pt x="747" y="471" on="1"/>
        <pt x="781" y="471" on="0"/>
        <pt x="784" y="493" on="1"/>
        <pt x="784" y="511" on="0"/>
        <pt x="730" y="529" on="0"/>
        <pt x="681" y="529" on="0"/>
        <pt x="661" y="527" on="1"/>
        <pt x="650" y="551" on="0"/>
        <pt x="650" y="576" on="1"/>
        <pt x="650" y="624" on="0"/>
        <pt x="723" y="698" on="0"/>
        <pt x="791" y="698" on="1"/>
        <pt x="837" y="698" on="0"/>
        <pt x="919" y="653" on="0"/>
        <pt x="919" y="595" on="0"/>
        <pt x="889" y="566" on="1"/>
        <pt x="882" y="560" on="0"/>
        <pt x="882" y="558" on="1"/>
        <pt x="882" y="553" on="0"/>
      </contour>
      <contour>
        <pt x="939" y="772" on="1"/>
        <pt x="939" y="767" on="0"/>
        <pt x="932" y="767" on="1"/>
        <pt x="906" y="767" on="0"/>
        <pt x="818" y="808" on="0"/>
        <pt x="818" y="824" on="1"/>
        <pt x="818" y="833" on="0"/>
        <pt x="837" y="833" on="0"/>
        <pt x="848" y="822" on="1"/>
        <pt x="877" y="790" on="0"/>
        <pt x="926" y="778" on="1"/>
        <pt x="939" y="775" on="0"/>
      </contour>
    </TTGlyph>
    <TTGlyph name="Eth" xMin="29" yMin="-11" xMax="1134" yMax="723">
      <contour>
        <pt x="480" y="454" on="1"/>
        <pt x="510" y="454" on="0"/>
        <pt x="553" y="507" on="0"/>
        <pt x="559" y="546" on="1"/>
        <pt x="522" y="536" on="0"/>
        <pt x="472" y="481" on="0"/>
        <pt x="472" y="454" on="0"/>
      </contour>
      <contour>
        <pt x="61" y="41" on="1"/>
        <pt x="62" y="1" on="0"/>
        <pt x="214" y="1" on="0"/>
        <pt x="278" y="24" on="1"/>
        <pt x="153" y="60" on="0"/>
        <pt x="61" y="60" on="0"/>
      </contour>
      <contour>
        <pt x="560" y="558" on="1"/>
        <pt x="561" y="562" on="0"/>
        <pt x="561" y="604" on="0"/>
        <pt x="549" y="632" on="1"/>
        <pt x="426" y="580" on="0"/>
        <pt x="253" y="381" on="0"/>
        <pt x="253" y="308" on="1"/>
        <pt x="253" y="240" on="0"/>
        <pt x="333" y="240" on="1"/>
        <pt x="402" y="240" on="0"/>
        <pt x="547" y="342" on="0"/>
        <pt x="632" y="469" on="0"/>
        <pt x="632" y="551" on="0"/>
        <pt x="591" y="551" on="1"/>
        <pt x="583" y="551" on="0"/>
        <pt x="579" y="550" on="1"/>
        <pt x="571" y="503" on="0"/>
        <pt x="512" y="437" on="0"/>
        <pt x="471" y="437" on="1"/>
        <pt x="444" y="437" on="0"/>
        <pt x="444" y="456" on="1"/>
        <pt x="444" y="479" on="0"/>
        <pt x="514" y="544" on="0"/>
      </contour>
      <contour>
        <pt x="1043" y="464" on="1"/>
        <pt x="1043" y="569" on="0"/>
        <pt x="948" y="622" on="1"/>
        <pt x="886" y="576" on="0"/>
        <pt x="757" y="430" on="0"/>
        <pt x="612" y="250" on="0"/>
        <pt x="562" y="198" on="1"/>
        <pt x="625" y="198" on="1"/>
        <pt x="634" y="197" on="0"/>
        <pt x="634" y="188" on="0"/>
        <pt x="630" y="183" on="1"/>
        <pt x="622" y="175" on="0"/>
        <pt x="614" y="175" on="1"/>
        <pt x="539" y="175" on="1"/>
        <pt x="438" y="75" on="0"/>
        <pt x="339" y="32" on="1"/>
        <pt x="434" y="6" on="0"/>
        <pt x="490" y="6" on="1"/>
        <pt x="594" y="6" on="0"/>
        <pt x="802" y="95" on="0"/>
        <pt x="950" y="229" on="0"/>
        <pt x="1043" y="392" on="0"/>
      </contour>
      <contour>
        <pt x="399" y="181" on="1"/>
        <pt x="406" y="198" on="0"/>
        <pt x="426" y="198" on="1"/>
        <pt x="527" y="198" on="1"/>
        <pt x="573" y="246" on="0"/>
        <pt x="726" y="434" on="0"/>
        <pt x="863" y="582" on="0"/>
        <pt x="932" y="631" on="1"/>
        <pt x="853" y="669" on="0"/>
        <pt x="724" y="669" on="1"/>
        <pt x="649" y="669" on="0"/>
        <pt x="570" y="640" on="1"/>
        <pt x="582" y="613" on="0"/>
        <pt x="582" y="581" on="1"/>
        <pt x="582" y="578" on="0"/>
        <pt x="581" y="566" on="0"/>
        <pt x="581" y="563" on="1"/>
        <pt x="597" y="565" on="0"/>
        <pt x="607" y="565" on="1"/>
        <pt x="664" y="565" on="0"/>
        <pt x="664" y="517" on="1"/>
        <pt x="664" y="482" on="0"/>
        <pt x="600" y="380" on="0"/>
        <pt x="503" y="286" on="0"/>
        <pt x="374" y="220" on="0"/>
        <pt x="268" y="220" on="0"/>
        <pt x="220" y="263" on="0"/>
        <pt x="220" y="300" on="1"/>
        <pt x="220" y="380" on="0"/>
        <pt x="407" y="591" on="0"/>
        <pt x="543" y="645" on="1"/>
        <pt x="506" y="712" on="0"/>
        <pt x="320" y="712" on="0"/>
        <pt x="118" y="578" on="0"/>
        <pt x="89" y="520" on="1"/>
        <pt x="82" y="508" on="0"/>
        <pt x="68" y="508" on="0"/>
        <pt x="68" y="516" on="1"/>
        <pt x="68" y="521" on="0"/>
        <pt x="72" y="528" on="1"/>
        <pt x="120" y="595" on="0"/>
        <pt x="321" y="723" on="0"/>
        <pt x="526" y="723" on="0"/>
        <pt x="564" y="653" on="1"/>
        <pt x="649" y="683" on="0"/>
        <pt x="735" y="683" on="1"/>
        <pt x="869" y="683" on="0"/>
        <pt x="953" y="645" on="1"/>
        <pt x="1042" y="702" on="0"/>
        <pt x="1126" y="719" on="1"/>
        <pt x="1134" y="719" on="0"/>
        <pt x="1134" y="707" on="0"/>
        <pt x="1127" y="706" on="1"/>
        <pt x="1046" y="689" on="0"/>
        <pt x="969" y="638" on="1"/>
        <pt x="1077" y="582" on="0"/>
        <pt x="1077" y="469" on="1"/>
        <pt x="1077" y="393" on="0"/>
        <pt x="976" y="223" on="0"/>
        <pt x="815" y="82" on="0"/>
        <pt x="589" y="-11" on="0"/>
        <pt x="475" y="-11" on="1"/>
        <pt x="410" y="-11" on="0"/>
        <pt x="302" y="17" on="1"/>
        <pt x="221" y="-10" on="0"/>
        <pt x="136" y="-10" on="1"/>
        <pt x="29" y="-10" on="0"/>
        <pt x="29" y="38" on="1"/>
        <pt x="29" y="75" on="0"/>
        <pt x="132" y="75" on="1"/>
        <pt x="183" y="75" on="0"/>
        <pt x="280" y="48" on="1"/>
        <pt x="308" y="40" on="0"/>
        <pt x="317" y="38" on="1"/>
        <pt x="408" y="79" on="0"/>
        <pt x="504" y="175" on="1"/>
        <pt x="410" y="175" on="1"/>
        <pt x="399" y="175" on="0"/>
      </contour>
    </TTGlyph>
    <TTGlyph name="Euro" xMin="65" yMin="-40" xMax="895" yMax="641">
      <contour>
        <pt x="506" y="400" on="1"/>
        <pt x="506" y="399" on="1"/>
        <pt x="547" y="419" on="0"/>
        <pt x="597" y="460" on="0"/>
        <pt x="597" y="483" on="0"/>
        <pt x="587" y="483" on="1"/>
        <pt x="566" y="483" on="0"/>
        <pt x="506" y="428" on="0"/>
      </contour>
      <contour>
        <pt x="631" y="483" on="1"/>
        <pt x="631" y="461" on="0"/>
        <pt x="563" y="406" on="0"/>
        <pt x="509" y="383" on="1"/>
        <pt x="521" y="359" on="0"/>
        <pt x="564" y="359" on="1"/>
        <pt x="665" y="359" on="0"/>
        <pt x="869" y="488" on="0"/>
        <pt x="869" y="555" on="1"/>
        <pt x="869" y="620" on="0"/>
        <pt x="626" y="620" on="0"/>
        <pt x="374" y="465" on="0"/>
        <pt x="286" y="350" on="1"/>
        <pt x="300" y="350" on="1"/>
        <pt x="388" y="350" on="0"/>
        <pt x="482" y="389" on="1"/>
        <pt x="482" y="397" on="1"/>
        <pt x="482" y="431" on="0"/>
        <pt x="576" y="503" on="0"/>
        <pt x="609" y="503" on="1"/>
        <pt x="631" y="503" on="0"/>
      </contour>
      <contour>
        <pt x="110" y="266" on="1"/>
        <pt x="117" y="283" on="0"/>
        <pt x="137" y="283" on="1"/>
        <pt x="216" y="283" on="1"/>
        <pt x="227" y="301" on="0"/>
        <pt x="253" y="337" on="1"/>
        <pt x="211" y="345" on="0"/>
        <pt x="170" y="390" on="0"/>
        <pt x="170" y="420" on="1"/>
        <pt x="170" y="462" on="0"/>
        <pt x="257" y="528" on="0"/>
        <pt x="292" y="528" on="1"/>
        <pt x="299" y="528" on="0"/>
        <pt x="311" y="518" on="0"/>
        <pt x="311" y="499" on="0"/>
        <pt x="302" y="499" on="1"/>
        <pt x="292" y="502" on="1"/>
        <pt x="282" y="506" on="0"/>
        <pt x="247" y="506" on="0"/>
        <pt x="193" y="457" on="0"/>
        <pt x="193" y="398" on="0"/>
        <pt x="229" y="358" on="0"/>
        <pt x="265" y="352" on="1"/>
        <pt x="362" y="475" on="0"/>
        <pt x="641" y="641" on="0"/>
        <pt x="780" y="641" on="1"/>
        <pt x="895" y="641" on="0"/>
        <pt x="895" y="572" on="1"/>
        <pt x="895" y="522" on="0"/>
        <pt x="793" y="414" on="0"/>
        <pt x="632" y="341" on="0"/>
        <pt x="553" y="341" on="1"/>
        <pt x="502" y="341" on="0"/>
        <pt x="486" y="374" on="1"/>
        <pt x="384" y="334" on="0"/>
        <pt x="296" y="334" on="1"/>
        <pt x="275" y="334" on="1"/>
        <pt x="258" y="311" on="0"/>
        <pt x="241" y="283" on="1"/>
        <pt x="436" y="283" on="1"/>
        <pt x="445" y="282" on="0"/>
        <pt x="445" y="273" on="0"/>
        <pt x="440" y="268" on="1"/>
        <pt x="433" y="260" on="0"/>
        <pt x="426" y="260" on="1"/>
        <pt x="228" y="260" on="1"/>
        <pt x="222" y="249" on="0"/>
        <pt x="212" y="227" on="1"/>
        <pt x="391" y="227" on="1"/>
        <pt x="400" y="226" on="0"/>
        <pt x="400" y="217" on="0"/>
        <pt x="396" y="212" on="1"/>
        <pt x="388" y="204" on="0"/>
        <pt x="380" y="204" on="1"/>
        <pt x="203" y="204" on="1"/>
        <pt x="181" y="144" on="0"/>
        <pt x="181" y="41" on="0"/>
        <pt x="250" y="-22" on="0"/>
        <pt x="322" y="-22" on="1"/>
        <pt x="441" y="-22" on="0"/>
        <pt x="543" y="42" on="1"/>
        <pt x="567" y="57" on="0"/>
        <pt x="579" y="67" on="1"/>
        <pt x="591" y="77" on="1"/>
        <pt x="594" y="79" on="0"/>
        <pt x="606" y="79" on="0"/>
        <pt x="606" y="66" on="0"/>
        <pt x="597" y="60" on="1"/>
        <pt x="470" y="-40" on="0"/>
        <pt x="305" y="-40" on="1"/>
        <pt x="226" y="-40" on="0"/>
        <pt x="149" y="29" on="0"/>
        <pt x="149" y="141" on="0"/>
        <pt x="175" y="204" on="1"/>
        <pt x="76" y="204" on="1"/>
        <pt x="65" y="204" on="0"/>
        <pt x="65" y="210" on="1"/>
        <pt x="72" y="227" on="0"/>
        <pt x="92" y="227" on="1"/>
        <pt x="185" y="227" on="1"/>
        <pt x="190" y="238" on="0"/>
        <pt x="202" y="260" on="1"/>
        <pt x="121" y="260" on="1"/>
        <pt x="110" y="260" on="0"/>
      </contour>
    </TTGlyph>
    <TTGlyph name="F" xMin="25" yMin="-152" xMax="1533" yMax="721">
      <contour>
        <pt x="617" y="497" on="1"/>
        <pt x="617" y="491" on="0"/>
        <pt x="639" y="491" on="0"/>
        <pt x="664" y="522" on="0"/>
        <pt x="670" y="545" on="1"/>
        <pt x="648" y="534" on="0"/>
        <pt x="617" y="505" on="0"/>
      </contour>
      <contour>
        <pt x="254" y="164" on="0"/>
        <pt x="254" y="144" on="0"/>
        <pt x="283" y="144" on="0"/>
        <pt x="305" y="180" on="0"/>
        <pt x="305" y="205" on="1"/>
        <pt x="282" y="194" on="0"/>
      </contour>
      <contour>
        <pt x="746" y="319" on="1"/>
        <pt x="599" y="300" on="0"/>
        <pt x="487" y="221" on="1"/>
        <pt x="544" y="191" on="0"/>
        <pt x="557" y="119" on="1"/>
        <pt x="639" y="189" on="0"/>
      </contour>
      <contour>
        <pt x="535" y="101" on="1"/>
        <pt x="525" y="176" on="0"/>
        <pt x="467" y="207" on="1"/>
        <pt x="351" y="115" on="0"/>
        <pt x="319" y="-2" on="1"/>
        <pt x="428" y="17" on="0"/>
      </contour>
      <contour>
        <pt x="376" y="-135" on="1"/>
        <pt x="443" y="-135" on="0"/>
        <pt x="536" y="-5" on="0"/>
        <pt x="537" y="73" on="1"/>
        <pt x="433" y="-1" on="0"/>
        <pt x="315" y="-19" on="1"/>
        <pt x="312" y="-38" on="0"/>
        <pt x="312" y="-92" on="0"/>
        <pt x="345" y="-135" on="0"/>
      </contour>
      <contour>
        <pt x="673" y="561" on="1"/>
        <pt x="674" y="566" on="0"/>
        <pt x="674" y="597" on="0"/>
        <pt x="666" y="619" on="1"/>
        <pt x="494" y="554" on="0"/>
        <pt x="494" y="436" on="1"/>
        <pt x="494" y="408" on="0"/>
        <pt x="529" y="378" on="0"/>
        <pt x="552" y="378" on="1"/>
        <pt x="594" y="378" on="0"/>
        <pt x="695" y="439" on="0"/>
        <pt x="760" y="516" on="0"/>
        <pt x="760" y="540" on="1"/>
        <pt x="760" y="561" on="0"/>
        <pt x="731" y="561" on="1"/>
        <pt x="716" y="561" on="0"/>
        <pt x="693" y="554" on="1"/>
        <pt x="685" y="518" on="0"/>
        <pt x="640" y="467" on="0"/>
        <pt x="595" y="467" on="0"/>
        <pt x="595" y="482" on="1"/>
        <pt x="595" y="499" on="0"/>
        <pt x="639" y="547" on="0"/>
      </contour>
      <contour>
        <pt x="247" y="-9" on="1"/>
        <pt x="272" y="-9" on="0"/>
        <pt x="285" y="-7" on="1"/>
        <pt x="317" y="117" on="0"/>
        <pt x="449" y="215" on="1"/>
        <pt x="424" y="224" on="0"/>
        <pt x="358" y="224" on="0"/>
        <pt x="323" y="213" on="1"/>
        <pt x="321" y="177" on="0"/>
        <pt x="279" y="120" on="0"/>
        <pt x="230" y="120" on="0"/>
        <pt x="230" y="154" on="0"/>
        <pt x="271" y="201" on="0"/>
        <pt x="304" y="218" on="1"/>
        <pt x="300" y="244" on="0"/>
        <pt x="264" y="279" on="0"/>
        <pt x="232" y="279" on="1"/>
        <pt x="154" y="279" on="0"/>
        <pt x="54" y="184" on="0"/>
        <pt x="54" y="68" on="0"/>
        <pt x="151" y="-9" on="0"/>
      </contour>
      <contour>
        <pt x="858" y="247" on="1"/>
        <pt x="862" y="247" on="0"/>
        <pt x="862" y="240" on="1"/>
        <pt x="862" y="237" on="1"/>
        <pt x="862" y="230" on="0"/>
        <pt x="837" y="230" on="0"/>
        <pt x="816" y="242" on="0"/>
        <pt x="816" y="272" on="0"/>
        <pt x="853" y="317" on="0"/>
        <pt x="853" y="325" on="0"/>
        <pt x="812" y="325" on="0"/>
        <pt x="783" y="322" on="1"/>
        <pt x="653" y="161" on="0"/>
        <pt x="560" y="90" on="1"/>
        <pt x="560" y="84" on="1"/>
        <pt x="560" y="-3" on="0"/>
        <pt x="448" y="-152" on="0"/>
        <pt x="368" y="-152" on="1"/>
        <pt x="324" y="-152" on="0"/>
        <pt x="278" y="-100" on="0"/>
        <pt x="278" y="-56" on="1"/>
        <pt x="278" y="-40" on="0"/>
        <pt x="281" y="-24" on="1"/>
        <pt x="251" y="-26" on="0"/>
        <pt x="235" y="-26" on="1"/>
        <pt x="131" y="-26" on="0"/>
        <pt x="25" y="56" on="0"/>
        <pt x="25" y="185" on="0"/>
        <pt x="146" y="295" on="0"/>
        <pt x="239" y="295" on="1"/>
        <pt x="279" y="295" on="0"/>
        <pt x="321" y="256" on="0"/>
        <pt x="323" y="226" on="1"/>
        <pt x="360" y="241" on="0"/>
        <pt x="440" y="241" on="0"/>
        <pt x="469" y="229" on="1"/>
        <pt x="591" y="312" on="0"/>
        <pt x="760" y="336" on="1"/>
        <pt x="770" y="348" on="0"/>
        <pt x="829" y="420" on="0"/>
        <pt x="854" y="450" on="0"/>
        <pt x="906" y="511" on="0"/>
        <pt x="940" y="546" on="0"/>
        <pt x="963" y="570" on="1"/>
        <pt x="1001" y="608" on="0"/>
        <pt x="1050" y="644" on="1"/>
        <pt x="922" y="656" on="0"/>
        <pt x="783" y="656" on="0"/>
        <pt x="690" y="627" on="1"/>
        <pt x="697" y="607" on="0"/>
        <pt x="697" y="574" on="0"/>
        <pt x="696" y="569" on="1"/>
        <pt x="722" y="576" on="0"/>
        <pt x="743" y="576" on="1"/>
        <pt x="788" y="576" on="0"/>
        <pt x="788" y="516" on="0"/>
        <pt x="712" y="429" on="0"/>
        <pt x="593" y="361" on="0"/>
        <pt x="511" y="361" on="0"/>
        <pt x="473" y="386" on="0"/>
        <pt x="465" y="410" on="0"/>
        <pt x="465" y="423" on="1"/>
        <pt x="465" y="561" on="0"/>
        <pt x="660" y="632" on="1"/>
        <pt x="626" y="697" on="0"/>
        <pt x="518" y="697" on="1"/>
        <pt x="418" y="697" on="0"/>
        <pt x="339" y="652" on="1"/>
        <pt x="266" y="610" on="0"/>
        <pt x="222" y="560" on="1"/>
        <pt x="181" y="513" on="0"/>
        <pt x="165" y="484" on="1"/>
        <pt x="158" y="472" on="1"/>
        <pt x="153" y="464" on="0"/>
        <pt x="141" y="464" on="0"/>
        <pt x="141" y="475" on="1"/>
        <pt x="151" y="500" on="0"/>
        <pt x="231" y="598" on="0"/>
        <pt x="312" y="660" on="0"/>
        <pt x="448" y="711" on="0"/>
        <pt x="525" y="711" on="1"/>
        <pt x="646" y="711" on="0"/>
        <pt x="684" y="639" on="1"/>
        <pt x="798" y="675" on="0"/>
        <pt x="909" y="675" on="1"/>
        <pt x="972" y="675" on="0"/>
        <pt x="1082" y="666" on="1"/>
        <pt x="1155" y="711" on="0"/>
        <pt x="1232" y="721" on="1"/>
        <pt x="1242" y="721" on="0"/>
        <pt x="1242" y="718" on="1"/>
        <pt x="1242" y="715" on="1"/>
        <pt x="1242" y="710" on="0"/>
        <pt x="1234" y="708" on="0"/>
        <pt x="1232" y="708" on="1"/>
        <pt x="1174" y="693" on="0"/>
        <pt x="1121" y="663" on="1"/>
        <pt x="1234" y="654" on="0"/>
        <pt x="1355" y="654" on="0"/>
        <pt x="1465" y="674" on="0"/>
        <pt x="1516" y="695" on="0"/>
        <pt x="1518" y="695" on="1"/>
        <pt x="1533" y="695" on="0"/>
        <pt x="1533" y="685" on="1"/>
        <pt x="1533" y="677" on="0"/>
        <pt x="1454" y="651" on="0"/>
        <pt x="1313" y="630" on="0"/>
        <pt x="1199" y="630" on="0"/>
        <pt x="1085" y="641" on="1"/>
        <pt x="1035" y="607" on="0"/>
        <pt x="925" y="497" on="0"/>
        <pt x="858" y="416" on="0"/>
        <pt x="798" y="340" on="1"/>
        <pt x="833" y="344" on="0"/>
        <pt x="891" y="344" on="0"/>
        <pt x="893" y="343" on="1"/>
        <pt x="898" y="342" on="0"/>
        <pt x="898" y="326" on="0"/>
        <pt x="888" y="320" on="1"/>
        <pt x="845" y="295" on="0"/>
        <pt x="845" y="262" on="1"/>
        <pt x="845" y="247" on="0"/>
      </contour>
    </TTGlyph>
    <TTGlyph name="G" xMin="-243" yMin="-367" xMax="854" yMax="774">
      <contour>
        <pt x="513" y="565" on="1"/>
        <pt x="481" y="565" on="0"/>
        <pt x="435" y="515" on="0"/>
        <pt x="434" y="486" on="1"/>
        <pt x="519" y="533" on="0"/>
        <pt x="519" y="560" on="1"/>
        <pt x="519" y="565" on="0"/>
      </contour>
      <contour>
        <pt x="358" y="-180" on="1"/>
        <pt x="358" y="-174" on="0"/>
        <pt x="356" y="-164" on="1"/>
        <pt x="318" y="-186" on="0"/>
        <pt x="272" y="-234" on="0"/>
        <pt x="272" y="-263" on="0"/>
        <pt x="318" y="-263" on="0"/>
        <pt x="358" y="-212" on="0"/>
      </contour>
      <contour>
        <pt x="753" y="411" on="1"/>
        <pt x="753" y="418" on="0"/>
        <pt x="732" y="418" on="0"/>
        <pt x="695" y="390" on="0"/>
        <pt x="664" y="356" on="1"/>
        <pt x="627" y="313" on="0"/>
        <pt x="544" y="208" on="1"/>
        <pt x="631" y="268" on="0"/>
        <pt x="753" y="388" on="0"/>
      </contour>
      <contour>
        <pt x="-138" y="-349" on="1"/>
        <pt x="-44" y="-349" on="0"/>
        <pt x="155" y="-209" on="0"/>
        <pt x="266" y="-86" on="1"/>
        <pt x="227" y="-75" on="0"/>
        <pt x="172" y="-75" on="1"/>
        <pt x="75" y="-75" on="0"/>
        <pt x="-110" y="-157" on="0"/>
        <pt x="-213" y="-262" on="0"/>
        <pt x="-213" y="-302" on="1"/>
        <pt x="-213" y="-349" on="0"/>
      </contour>
      <contour>
        <pt x="552" y="572" on="1"/>
        <pt x="552" y="554" on="0"/>
        <pt x="486" y="498" on="0"/>
        <pt x="435" y="472" on="1"/>
        <pt x="444" y="439" on="0"/>
        <pt x="536" y="439" on="0"/>
        <pt x="697" y="531" on="0"/>
        <pt x="821" y="660" on="0"/>
        <pt x="821" y="705" on="1"/>
        <pt x="821" y="757" on="0"/>
        <pt x="727" y="757" on="1"/>
        <pt x="581" y="757" on="0"/>
        <pt x="294" y="563" on="0"/>
        <pt x="199" y="425" on="1"/>
        <pt x="217" y="423" on="0"/>
        <pt x="230" y="423" on="1"/>
        <pt x="304" y="423" on="0"/>
        <pt x="412" y="475" on="1"/>
        <pt x="412" y="478" on="1"/>
        <pt x="412" y="517" on="0"/>
        <pt x="481" y="586" on="0"/>
        <pt x="533" y="586" on="1"/>
        <pt x="552" y="586" on="0"/>
      </contour>
      <contour>
        <pt x="228" y="596" on="1"/>
        <pt x="203" y="598" on="1"/>
        <pt x="179" y="598" on="0"/>
        <pt x="125" y="528" on="0"/>
        <pt x="125" y="503" on="1"/>
        <pt x="125" y="447" on="0"/>
        <pt x="178" y="430" on="1"/>
        <pt x="281" y="573" on="0"/>
        <pt x="582" y="774" on="0"/>
        <pt x="732" y="774" on="1"/>
        <pt x="854" y="774" on="0"/>
        <pt x="854" y="709" on="1"/>
        <pt x="854" y="660" on="0"/>
        <pt x="725" y="522" on="0"/>
        <pt x="544" y="422" on="0"/>
        <pt x="424" y="422" on="0"/>
        <pt x="414" y="461" on="1"/>
        <pt x="301" y="408" on="0"/>
        <pt x="211" y="408" on="1"/>
        <pt x="196" y="408" on="0"/>
        <pt x="188" y="409" on="1"/>
        <pt x="101" y="278" on="0"/>
        <pt x="101" y="180" on="1"/>
        <pt x="101" y="128" on="0"/>
        <pt x="160" y="68" on="0"/>
        <pt x="222" y="68" on="1"/>
        <pt x="318" y="68" on="0"/>
        <pt x="471" y="160" on="1"/>
        <pt x="575" y="290" on="0"/>
        <pt x="681" y="401" on="0"/>
        <pt x="746" y="442" on="0"/>
        <pt x="772" y="442" on="1"/>
        <pt x="787" y="442" on="0"/>
        <pt x="787" y="425" on="1"/>
        <pt x="787" y="393" on="0"/>
        <pt x="621" y="238" on="0"/>
        <pt x="512" y="168" on="1"/>
        <pt x="397" y="21" on="0"/>
        <pt x="304" y="-79" on="1"/>
        <pt x="357" y="-98" on="0"/>
        <pt x="376" y="-137" on="1"/>
        <pt x="457" y="-101" on="0"/>
        <pt x="552" y="-101" on="1"/>
        <pt x="609" y="-101" on="0"/>
        <pt x="636" y="-111" on="1"/>
        <pt x="646" y="-114" on="0"/>
        <pt x="646" y="-128" on="0"/>
        <pt x="638" y="-128" on="1"/>
        <pt x="636" y="-128" on="0"/>
        <pt x="632" y="-126" on="1"/>
        <pt x="601" y="-113" on="0"/>
        <pt x="546" y="-113" on="1"/>
        <pt x="459" y="-113" on="0"/>
        <pt x="381" y="-151" on="1"/>
        <pt x="383" y="-163" on="0"/>
        <pt x="383" y="-170" on="1"/>
        <pt x="383" y="-213" on="0"/>
        <pt x="313" y="-285" on="0"/>
        <pt x="272" y="-285" on="1"/>
        <pt x="246" y="-285" on="0"/>
        <pt x="246" y="-240" on="0"/>
        <pt x="303" y="-174" on="0"/>
        <pt x="351" y="-148" on="1"/>
        <pt x="335" y="-111" on="0"/>
        <pt x="291" y="-94" on="1"/>
        <pt x="34" y="-367" on="0"/>
        <pt x="-147" y="-367" on="1"/>
        <pt x="-243" y="-367" on="0"/>
        <pt x="-243" y="-306" on="1"/>
        <pt x="-243" y="-272" on="0"/>
        <pt x="-177" y="-188" on="0"/>
        <pt x="-68" y="-113" on="0"/>
        <pt x="94" y="-62" on="0"/>
        <pt x="240" y="-62" on="0"/>
        <pt x="279" y="-72" on="1"/>
        <pt x="343" y="1" on="0"/>
        <pt x="445" y="128" on="1"/>
        <pt x="294" y="44" on="0"/>
        <pt x="199" y="44" on="1"/>
        <pt x="67" y="44" on="0"/>
        <pt x="67" y="162" on="1"/>
        <pt x="67" y="267" on="0"/>
        <pt x="167" y="414" on="1"/>
        <pt x="98" y="435" on="0"/>
        <pt x="98" y="496" on="1"/>
        <pt x="98" y="539" on="0"/>
        <pt x="182" y="620" on="0"/>
        <pt x="217" y="620" on="1"/>
        <pt x="237" y="620" on="0"/>
        <pt x="237" y="596" on="0"/>
      </contour>
    </TTGlyph>
    <TTGlyph name="H" xMin="14" yMin="-116" xMax="1658" yMax="773">
      <contour>
        <pt x="255" y="182" on="0"/>
        <pt x="274" y="222" on="0"/>
        <pt x="274" y="238" on="0"/>
        <pt x="271" y="253" on="1"/>
        <pt x="233" y="223" on="0"/>
        <pt x="233" y="191" on="1"/>
        <pt x="233" y="187" on="0"/>
        <pt x="238" y="182" on="0"/>
        <pt x="240" y="182" on="1"/>
      </contour>
      <contour>
        <pt x="884" y="615" on="0"/>
        <pt x="852" y="615" on="0"/>
        <pt x="814" y="579" on="0"/>
        <pt x="799" y="550" on="1"/>
        <pt x="884" y="588" on="0"/>
        <pt x="884" y="608" on="1"/>
      </contour>
      <contour>
        <pt x="711" y="44" on="1"/>
        <pt x="753" y="44" on="0"/>
        <pt x="813" y="99" on="1"/>
        <pt x="811" y="99" on="1"/>
        <pt x="770" y="99" on="0"/>
        <pt x="701" y="69" on="0"/>
        <pt x="701" y="50" on="1"/>
        <pt x="701" y="44" on="0"/>
      </contour>
      <contour>
        <pt x="1450" y="607" on="0"/>
        <pt x="1416" y="559" on="0"/>
        <pt x="1416" y="525" on="0"/>
        <pt x="1420" y="518" on="1"/>
        <pt x="1488" y="573" on="0"/>
        <pt x="1488" y="596" on="1"/>
        <pt x="1488" y="607" on="0"/>
      </contour>
      <contour>
        <pt x="1522" y="615" on="1"/>
        <pt x="1522" y="581" on="0"/>
        <pt x="1431" y="507" on="1"/>
        <pt x="1438" y="503" on="0"/>
        <pt x="1452" y="503" on="1"/>
        <pt x="1515" y="503" on="0"/>
        <pt x="1625" y="618" on="0"/>
        <pt x="1625" y="673" on="1"/>
        <pt x="1625" y="703" on="0"/>
        <pt x="1583" y="738" on="0"/>
        <pt x="1493" y="738" on="0"/>
        <pt x="1387" y="687" on="0"/>
        <pt x="1296" y="615" on="0"/>
        <pt x="1179" y="493" on="0"/>
        <pt x="1138" y="446" on="1"/>
        <pt x="1059" y="352" on="0"/>
        <pt x="1026" y="311" on="1"/>
        <pt x="1116" y="334" on="0"/>
        <pt x="1322" y="443" on="0"/>
        <pt x="1399" y="502" on="1"/>
        <pt x="1390" y="512" on="0"/>
        <pt x="1390" y="530" on="1"/>
        <pt x="1390" y="564" on="0"/>
        <pt x="1452" y="634" on="0"/>
        <pt x="1522" y="634" on="0"/>
      </contour>
      <contour>
        <pt x="494" y="485" on="1"/>
        <pt x="584" y="485" on="0"/>
        <pt x="680" y="509" on="1"/>
        <pt x="661" y="611" on="0"/>
        <pt x="493" y="741" on="0"/>
        <pt x="369" y="741" on="1"/>
        <pt x="290" y="741" on="0"/>
        <pt x="207" y="686" on="0"/>
        <pt x="207" y="644" on="1"/>
        <pt x="207" y="584" on="0"/>
        <pt x="363" y="485" on="0"/>
      </contour>
      <contour>
        <pt x="319" y="299" on="0"/>
        <pt x="410" y="334" on="0"/>
        <pt x="457" y="336" on="0"/>
        <pt x="482" y="329" on="0"/>
        <pt x="489" y="324" on="1"/>
        <pt x="504" y="315" on="0"/>
        <pt x="509" y="303" on="1"/>
        <pt x="509" y="293" on="0"/>
        <pt x="500" y="293" on="1"/>
        <pt x="496" y="293" on="0"/>
        <pt x="490" y="300" on="1"/>
        <pt x="473" y="320" on="0"/>
        <pt x="408" y="320" on="0"/>
        <pt x="319" y="288" on="0"/>
        <pt x="284" y="264" on="1"/>
        <pt x="289" y="251" on="0"/>
        <pt x="289" y="210" on="0"/>
        <pt x="273" y="190" on="1"/>
        <pt x="250" y="163" on="0"/>
        <pt x="209" y="163" on="0"/>
        <pt x="209" y="181" on="1"/>
        <pt x="209" y="220" on="0"/>
        <pt x="267" y="263" on="1"/>
        <pt x="256" y="281" on="0"/>
        <pt x="214" y="302" on="0"/>
        <pt x="199" y="303" on="1"/>
        <pt x="41" y="285" on="0"/>
        <pt x="41" y="156" on="1"/>
        <pt x="41" y="98" on="0"/>
        <pt x="147" y="28" on="0"/>
        <pt x="279" y="28" on="0"/>
        <pt x="406" y="67" on="0"/>
        <pt x="500" y="120" on="0"/>
        <pt x="610" y="219" on="0"/>
        <pt x="644" y="255" on="1"/>
        <pt x="704" y="320" on="0"/>
        <pt x="749" y="375" on="1"/>
        <pt x="741" y="396" on="0"/>
        <pt x="741" y="473" on="0"/>
        <pt x="761" y="518" on="1"/>
        <pt x="723" y="504" on="0"/>
        <pt x="702" y="498" on="1"/>
        <pt x="704" y="478" on="0"/>
        <pt x="704" y="466" on="1"/>
        <pt x="704" y="389" on="0"/>
        <pt x="678" y="328" on="1"/>
        <pt x="675" y="320" on="0"/>
        <pt x="670" y="320" on="1"/>
        <pt x="664" y="323" on="0"/>
        <pt x="664" y="327" on="1"/>
        <pt x="685" y="398" on="0"/>
        <pt x="685" y="474" on="0"/>
        <pt x="682" y="493" on="1"/>
        <pt x="589" y="469" on="0"/>
        <pt x="486" y="469" on="1"/>
        <pt x="332" y="469" on="0"/>
        <pt x="169" y="563" on="0"/>
        <pt x="169" y="627" on="1"/>
        <pt x="169" y="680" on="0"/>
        <pt x="282" y="758" on="0"/>
        <pt x="377" y="758" on="1"/>
        <pt x="507" y="758" on="0"/>
        <pt x="681" y="619" on="0"/>
        <pt x="699" y="514" on="1"/>
        <pt x="735" y="524" on="0"/>
        <pt x="770" y="537" on="1"/>
        <pt x="792" y="581" on="0"/>
        <pt x="858" y="637" on="0"/>
        <pt x="916" y="637" on="0"/>
        <pt x="916" y="623" on="1"/>
        <pt x="916" y="607" on="0"/>
        <pt x="847" y="554" on="0"/>
        <pt x="790" y="529" on="1"/>
        <pt x="769" y="482" on="0"/>
        <pt x="769" y="433" on="1"/>
        <pt x="769" y="423" on="0"/>
        <pt x="771" y="403" on="1"/>
        <pt x="883" y="537" on="0"/>
        <pt x="925" y="583" on="1"/>
        <pt x="1096" y="773" on="0"/>
        <pt x="1186" y="773" on="1"/>
        <pt x="1191" y="773" on="0"/>
        <pt x="1194" y="767" on="0"/>
        <pt x="1194" y="766" on="1"/>
        <pt x="1194" y="755" on="0"/>
        <pt x="1174" y="751" on="1"/>
        <pt x="1120" y="731" on="0"/>
        <pt x="1015" y="645" on="0"/>
        <pt x="986" y="613" on="1"/>
        <pt x="934" y="561" on="0"/>
        <pt x="807" y="401" on="0"/>
        <pt x="781" y="371" on="1"/>
        <pt x="814" y="297" on="0"/>
        <pt x="929" y="297" on="1"/>
        <pt x="958" y="297" on="0"/>
        <pt x="991" y="303" on="1"/>
        <pt x="1041" y="365" on="0"/>
        <pt x="1086" y="422" on="0"/>
        <pt x="1186" y="538" on="0"/>
        <pt x="1248" y="597" on="0"/>
        <pt x="1344" y="682" on="0"/>
        <pt x="1382" y="702" on="1"/>
        <pt x="1478" y="755" on="0"/>
        <pt x="1552" y="755" on="1"/>
        <pt x="1658" y="755" on="0"/>
        <pt x="1658" y="685" on="1"/>
        <pt x="1658" y="624" on="0"/>
        <pt x="1515" y="486" on="0"/>
        <pt x="1447" y="486" on="1"/>
        <pt x="1424" y="486" on="0"/>
        <pt x="1412" y="492" on="1"/>
        <pt x="1327" y="427" on="0"/>
        <pt x="1105" y="313" on="0"/>
        <pt x="1009" y="292" on="1"/>
        <pt x="898" y="160" on="0"/>
        <pt x="845" y="110" on="1"/>
        <pt x="935" y="101" on="0"/>
        <pt x="935" y="37" on="1"/>
        <pt x="935" y="-9" on="0"/>
        <pt x="851" y="-84" on="0"/>
        <pt x="759" y="-116" on="0"/>
        <pt x="730" y="-116" on="1"/>
        <pt x="723" y="-115" on="0"/>
        <pt x="723" y="-100" on="0"/>
        <pt x="729" y="-100" on="1"/>
        <pt x="736" y="-101" on="1"/>
        <pt x="810" y="-91" on="0"/>
        <pt x="903" y="-15" on="0"/>
        <pt x="903" y="31" on="1"/>
        <pt x="903" y="89" on="0"/>
        <pt x="832" y="98" on="1"/>
        <pt x="749" y="23" on="0"/>
        <pt x="694" y="23" on="1"/>
        <pt x="686" y="23" on="0"/>
        <pt x="673" y="34" on="0"/>
        <pt x="673" y="42" on="1"/>
        <pt x="673" y="70" on="0"/>
        <pt x="769" y="111" on="0"/>
        <pt x="824" y="111" on="1"/>
        <pt x="825" y="111" on="1"/>
        <pt x="878" y="162" on="0"/>
        <pt x="976" y="285" on="1"/>
        <pt x="952" y="281" on="0"/>
        <pt x="924" y="281" on="1"/>
        <pt x="804" y="281" on="0"/>
        <pt x="762" y="349" on="1"/>
        <pt x="745" y="330" on="1"/>
        <pt x="688" y="267" on="0"/>
        <pt x="609" y="187" on="0"/>
        <pt x="496" y="95" on="0"/>
        <pt x="446" y="68" on="1"/>
        <pt x="332" y="7" on="0"/>
        <pt x="201" y="7" on="1"/>
        <pt x="118" y="7" on="0"/>
        <pt x="14" y="80" on="0"/>
        <pt x="14" y="222" on="0"/>
        <pt x="121" y="315" on="0"/>
        <pt x="185" y="315" on="1"/>
        <pt x="195" y="315" on="0"/>
        <pt x="200" y="314" on="1"/>
        <pt x="261" y="304" on="0"/>
        <pt x="280" y="273" on="1"/>
      </contour>
    </TTGlyph>
    <TTGlyph name="I" xMin="18" yMin="-49" xMax="1275" yMax="709">
      <contour>
        <pt x="610" y="494" on="1"/>
        <pt x="610" y="488" on="0"/>
        <pt x="632" y="488" on="0"/>
        <pt x="657" y="519" on="0"/>
        <pt x="663" y="542" on="1"/>
        <pt x="641" y="531" on="0"/>
        <pt x="610" y="502" on="0"/>
      </contour>
      <contour>
        <pt x="1223" y="688" on="1"/>
        <pt x="1162" y="688" on="0"/>
        <pt x="1095" y="640" on="1"/>
        <pt x="1103" y="639" on="0"/>
        <pt x="1153" y="639" on="0"/>
        <pt x="1239" y="661" on="0"/>
        <pt x="1239" y="688" on="0"/>
      </contour>
      <contour>
        <pt x="276" y="121" on="0"/>
        <pt x="298" y="157" on="0"/>
        <pt x="298" y="199" on="0"/>
        <pt x="290" y="217" on="1"/>
        <pt x="231" y="174" on="0"/>
        <pt x="231" y="141" on="1"/>
        <pt x="231" y="121" on="0"/>
        <pt x="259" y="121" on="1"/>
      </contour>
      <contour>
        <pt x="588" y="479" on="1"/>
        <pt x="588" y="496" on="0"/>
        <pt x="632" y="544" on="0"/>
        <pt x="666" y="558" on="1"/>
        <pt x="667" y="563" on="0"/>
        <pt x="667" y="574" on="1"/>
        <pt x="667" y="608" on="0"/>
        <pt x="650" y="635" on="1"/>
        <pt x="573" y="609" on="0"/>
        <pt x="480" y="496" on="0"/>
        <pt x="480" y="444" on="1"/>
        <pt x="480" y="409" on="0"/>
        <pt x="525" y="367" on="0"/>
        <pt x="570" y="367" on="1"/>
        <pt x="631" y="367" on="0"/>
        <pt x="756" y="487" on="0"/>
        <pt x="756" y="531" on="1"/>
        <pt x="756" y="558" on="0"/>
        <pt x="724" y="558" on="1"/>
        <pt x="709" y="558" on="0"/>
        <pt x="686" y="551" on="1"/>
        <pt x="678" y="515" on="0"/>
        <pt x="633" y="464" on="0"/>
        <pt x="588" y="464" on="0"/>
      </contour>
      <contour>
        <pt x="470" y="275" on="1"/>
        <pt x="381" y="274" on="0"/>
        <pt x="310" y="230" on="1"/>
        <pt x="317" y="215" on="0"/>
        <pt x="317" y="158" on="0"/>
        <pt x="274" y="97" on="0"/>
        <pt x="245" y="97" on="1"/>
        <pt x="205" y="97" on="0"/>
        <pt x="205" y="128" on="1"/>
        <pt x="205" y="150" on="0"/>
        <pt x="246" y="206" on="0"/>
        <pt x="282" y="231" on="1"/>
        <pt x="264" y="256" on="0"/>
        <pt x="225" y="256" on="1"/>
        <pt x="147" y="256" on="0"/>
        <pt x="47" y="161" on="0"/>
        <pt x="47" y="45" on="0"/>
        <pt x="144" y="-32" on="0"/>
        <pt x="313" y="-32" on="0"/>
        <pt x="454" y="20" on="0"/>
        <pt x="574" y="111" on="0"/>
        <pt x="686" y="223" on="0"/>
        <pt x="793" y="353" on="0"/>
        <pt x="841" y="412" on="1"/>
        <pt x="958" y="557" on="0"/>
        <pt x="1045" y="626" on="1"/>
        <pt x="1022" y="628" on="0"/>
        <pt x="963" y="636" on="1"/>
        <pt x="838" y="653" on="0"/>
        <pt x="715" y="653" on="0"/>
        <pt x="674" y="642" on="1"/>
        <pt x="690" y="616" on="0"/>
        <pt x="690" y="571" on="0"/>
        <pt x="689" y="566" on="1"/>
        <pt x="715" y="573" on="0"/>
        <pt x="736" y="573" on="1"/>
        <pt x="784" y="573" on="0"/>
        <pt x="784" y="536" on="1"/>
        <pt x="784" y="485" on="0"/>
        <pt x="635" y="350" on="0"/>
        <pt x="561" y="350" on="1"/>
        <pt x="506" y="350" on="0"/>
        <pt x="451" y="396" on="0"/>
        <pt x="451" y="434" on="1"/>
        <pt x="451" y="489" on="0"/>
        <pt x="557" y="612" on="0"/>
        <pt x="642" y="646" on="1"/>
        <pt x="601" y="694" on="0"/>
        <pt x="511" y="694" on="1"/>
        <pt x="443" y="694" on="0"/>
        <pt x="326" y="654" on="0"/>
        <pt x="292" y="626" on="1"/>
        <pt x="219" y="566" on="0"/>
        <pt x="198" y="520" on="1"/>
        <pt x="188" y="500" on="1"/>
        <pt x="183" y="492" on="0"/>
        <pt x="171" y="492" on="0"/>
        <pt x="171" y="503" on="1"/>
        <pt x="182" y="533" on="0"/>
        <pt x="242" y="610" on="0"/>
        <pt x="313" y="664" on="0"/>
        <pt x="441" y="709" on="0"/>
        <pt x="518" y="709" on="1"/>
        <pt x="623" y="709" on="0"/>
        <pt x="666" y="654" on="1"/>
        <pt x="729" y="675" on="0"/>
        <pt x="833" y="675" on="0"/>
        <pt x="918" y="668" on="0"/>
        <pt x="972" y="660" on="0"/>
        <pt x="1056" y="646" on="0"/>
        <pt x="1069" y="644" on="1"/>
        <pt x="1155" y="704" on="0"/>
        <pt x="1238" y="704" on="1"/>
        <pt x="1275" y="704" on="0"/>
        <pt x="1275" y="682" on="1"/>
        <pt x="1275" y="653" on="0"/>
        <pt x="1151" y="623" on="0"/>
        <pt x="1083" y="623" on="0"/>
        <pt x="1072" y="624" on="1"/>
        <pt x="999" y="567" on="0"/>
        <pt x="874" y="412" on="1"/>
        <pt x="826" y="352" on="0"/>
        <pt x="714" y="218" on="0"/>
        <pt x="594" y="101" on="0"/>
        <pt x="529" y="54" on="1"/>
        <pt x="389" y="-49" on="0"/>
        <pt x="228" y="-49" on="1"/>
        <pt x="124" y="-49" on="0"/>
        <pt x="18" y="33" on="0"/>
        <pt x="18" y="162" on="0"/>
        <pt x="139" y="272" on="0"/>
        <pt x="232" y="272" on="1"/>
        <pt x="278" y="272" on="0"/>
        <pt x="301" y="244" on="1"/>
        <pt x="381" y="291" on="0"/>
        <pt x="478" y="291" on="1"/>
        <pt x="502" y="291" on="0"/>
        <pt x="536" y="274" on="0"/>
        <pt x="540" y="266" on="1"/>
        <pt x="545" y="258" on="1"/>
        <pt x="545" y="248" on="0"/>
        <pt x="536" y="248" on="1"/>
        <pt x="532" y="248" on="0"/>
        <pt x="526" y="255" on="1"/>
        <pt x="511" y="275" on="0"/>
      </contour>
    </TTGlyph>
    <TTGlyph name="Iacute" xMin="18" yMin="-49" xMax="1275" yMax="829">
      <contour>
        <pt x="1081" y="768" on="1"/>
        <pt x="1081" y="771" on="0"/>
        <pt x="1094" y="774" on="1"/>
        <pt x="1143" y="786" on="0"/>
        <pt x="1172" y="818" on="1"/>
        <pt x="1183" y="829" on="0"/>
        <pt x="1202" y="829" on="0"/>
        <pt x="1202" y="820" on="1"/>
        <pt x="1202" y="804" on="0"/>
        <pt x="1114" y="763" on="0"/>
        <pt x="1088" y="763" on="1"/>
        <pt x="1081" y="763" on="0"/>
      </contour>
      <contour>
        <pt x="610" y="494" on="1"/>
        <pt x="610" y="488" on="0"/>
        <pt x="632" y="488" on="0"/>
        <pt x="657" y="519" on="0"/>
        <pt x="663" y="542" on="1"/>
        <pt x="641" y="531" on="0"/>
        <pt x="610" y="502" on="0"/>
      </contour>
      <contour>
        <pt x="1223" y="688" on="1"/>
        <pt x="1162" y="688" on="0"/>
        <pt x="1095" y="640" on="1"/>
        <pt x="1103" y="639" on="0"/>
        <pt x="1117" y="639" on="1"/>
        <pt x="1120" y="639" on="1"/>
        <pt x="1153" y="639" on="0"/>
        <pt x="1239" y="661" on="0"/>
        <pt x="1239" y="688" on="0"/>
      </contour>
      <contour>
        <pt x="276" y="121" on="0"/>
        <pt x="298" y="157" on="0"/>
        <pt x="298" y="199" on="0"/>
        <pt x="290" y="217" on="1"/>
        <pt x="231" y="174" on="0"/>
        <pt x="231" y="141" on="1"/>
        <pt x="231" y="121" on="0"/>
        <pt x="259" y="121" on="1"/>
      </contour>
      <contour>
        <pt x="588" y="479" on="1"/>
        <pt x="588" y="496" on="0"/>
        <pt x="632" y="544" on="0"/>
        <pt x="666" y="558" on="1"/>
        <pt x="667" y="563" on="0"/>
        <pt x="667" y="574" on="1"/>
        <pt x="667" y="608" on="0"/>
        <pt x="650" y="635" on="1"/>
        <pt x="573" y="609" on="0"/>
        <pt x="480" y="496" on="0"/>
        <pt x="480" y="444" on="1"/>
        <pt x="480" y="409" on="0"/>
        <pt x="525" y="367" on="0"/>
        <pt x="570" y="367" on="1"/>
        <pt x="631" y="367" on="0"/>
        <pt x="756" y="487" on="0"/>
        <pt x="756" y="531" on="1"/>
        <pt x="756" y="558" on="0"/>
        <pt x="724" y="558" on="1"/>
        <pt x="709" y="558" on="0"/>
        <pt x="686" y="551" on="1"/>
        <pt x="678" y="515" on="0"/>
        <pt x="633" y="464" on="0"/>
        <pt x="588" y="464" on="0"/>
      </contour>
      <contour>
        <pt x="470" y="275" on="1"/>
        <pt x="381" y="274" on="0"/>
        <pt x="310" y="230" on="1"/>
        <pt x="317" y="215" on="0"/>
        <pt x="317" y="158" on="0"/>
        <pt x="274" y="97" on="0"/>
        <pt x="245" y="97" on="1"/>
        <pt x="205" y="97" on="0"/>
        <pt x="205" y="128" on="1"/>
        <pt x="205" y="150" on="0"/>
        <pt x="246" y="206" on="0"/>
        <pt x="282" y="231" on="1"/>
        <pt x="264" y="256" on="0"/>
        <pt x="225" y="256" on="1"/>
        <pt x="147" y="256" on="0"/>
        <pt x="47" y="161" on="0"/>
        <pt x="47" y="45" on="0"/>
        <pt x="144" y="-32" on="0"/>
        <pt x="313" y="-32" on="0"/>
        <pt x="454" y="20" on="0"/>
        <pt x="574" y="111" on="0"/>
        <pt x="686" y="223" on="0"/>
        <pt x="793" y="353" on="0"/>
        <pt x="841" y="412" on="1"/>
        <pt x="958" y="557" on="0"/>
        <pt x="1045" y="626" on="1"/>
        <pt x="1022" y="628" on="0"/>
        <pt x="963" y="636" on="1"/>
        <pt x="838" y="653" on="0"/>
        <pt x="715" y="653" on="0"/>
        <pt x="674" y="642" on="1"/>
        <pt x="690" y="616" on="0"/>
        <pt x="690" y="571" on="0"/>
        <pt x="689" y="566" on="1"/>
        <pt x="715" y="573" on="0"/>
        <pt x="736" y="573" on="1"/>
        <pt x="784" y="573" on="0"/>
        <pt x="784" y="536" on="1"/>
        <pt x="784" y="485" on="0"/>
        <pt x="635" y="350" on="0"/>
        <pt x="561" y="350" on="1"/>
        <pt x="506" y="350" on="0"/>
        <pt x="451" y="396" on="0"/>
        <pt x="451" y="434" on="1"/>
        <pt x="451" y="489" on="0"/>
        <pt x="557" y="612" on="0"/>
        <pt x="642" y="646" on="1"/>
        <pt x="601" y="694" on="0"/>
        <pt x="511" y="694" on="1"/>
        <pt x="443" y="694" on="0"/>
        <pt x="326" y="654" on="0"/>
        <pt x="292" y="626" on="1"/>
        <pt x="219" y="566" on="0"/>
        <pt x="198" y="520" on="1"/>
        <pt x="188" y="500" on="1"/>
        <pt x="183" y="492" on="0"/>
        <pt x="171" y="492" on="0"/>
        <pt x="171" y="503" on="1"/>
        <pt x="182" y="533" on="0"/>
        <pt x="242" y="610" on="0"/>
        <pt x="313" y="664" on="0"/>
        <pt x="441" y="709" on="0"/>
        <pt x="518" y="709" on="1"/>
        <pt x="623" y="709" on="0"/>
        <pt x="666" y="654" on="1"/>
        <pt x="729" y="675" on="0"/>
        <pt x="833" y="675" on="0"/>
        <pt x="918" y="668" on="0"/>
        <pt x="972" y="660" on="0"/>
        <pt x="1056" y="646" on="0"/>
        <pt x="1069" y="644" on="1"/>
        <pt x="1155" y="704" on="0"/>
        <pt x="1238" y="704" on="1"/>
        <pt x="1275" y="704" on="0"/>
        <pt x="1275" y="682" on="1"/>
        <pt x="1275" y="653" on="0"/>
        <pt x="1151" y="623" on="0"/>
        <pt x="1083" y="623" on="0"/>
        <pt x="1072" y="624" on="1"/>
        <pt x="999" y="567" on="0"/>
        <pt x="874" y="412" on="1"/>
        <pt x="826" y="352" on="0"/>
        <pt x="714" y="218" on="0"/>
        <pt x="594" y="101" on="0"/>
        <pt x="529" y="54" on="1"/>
        <pt x="389" y="-49" on="0"/>
        <pt x="228" y="-49" on="1"/>
        <pt x="124" y="-49" on="0"/>
        <pt x="18" y="33" on="0"/>
        <pt x="18" y="162" on="0"/>
        <pt x="139" y="272" on="0"/>
        <pt x="232" y="272" on="1"/>
        <pt x="278" y="272" on="0"/>
        <pt x="301" y="244" on="1"/>
        <pt x="381" y="291" on="0"/>
        <pt x="478" y="291" on="1"/>
        <pt x="502" y="291" on="0"/>
        <pt x="536" y="274" on="0"/>
        <pt x="540" y="266" on="1"/>
        <pt x="545" y="258" on="1"/>
        <pt x="545" y="248" on="0"/>
        <pt x="536" y="248" on="1"/>
        <pt x="532" y="248" on="0"/>
        <pt x="526" y="255" on="1"/>
        <pt x="511" y="275" on="0"/>
      </contour>
    </TTGlyph>
    <TTGlyph name="Icircumflex" xMin="18" yMin="-49" xMax="1275" yMax="827">
      <contour>
        <pt x="1000" y="773" on="1"/>
        <pt x="993" y="773" on="0"/>
        <pt x="993" y="782" on="0"/>
        <pt x="1037" y="790" on="0"/>
        <pt x="1070" y="827" on="0"/>
        <pt x="1085" y="827" on="0"/>
        <pt x="1090" y="816" on="0"/>
        <pt x="1091" y="808" on="1"/>
        <pt x="1094" y="789" on="0"/>
        <pt x="1121" y="777" on="1"/>
        <pt x="1124" y="776" on="0"/>
        <pt x="1124" y="772" on="0"/>
        <pt x="1117" y="766" on="0"/>
        <pt x="1113" y="766" on="1"/>
        <pt x="1091" y="766" on="0"/>
        <pt x="1073" y="800" on="1"/>
        <pt x="1033" y="773" on="0"/>
      </contour>
      <contour>
        <pt x="610" y="494" on="1"/>
        <pt x="610" y="488" on="0"/>
        <pt x="632" y="488" on="0"/>
        <pt x="657" y="519" on="0"/>
        <pt x="663" y="542" on="1"/>
        <pt x="641" y="531" on="0"/>
        <pt x="610" y="502" on="0"/>
      </contour>
      <contour>
        <pt x="1223" y="688" on="1"/>
        <pt x="1162" y="688" on="0"/>
        <pt x="1095" y="640" on="1"/>
        <pt x="1103" y="639" on="0"/>
        <pt x="1117" y="639" on="1"/>
        <pt x="1120" y="639" on="1"/>
        <pt x="1153" y="639" on="0"/>
        <pt x="1239" y="661" on="0"/>
        <pt x="1239" y="688" on="0"/>
      </contour>
      <contour>
        <pt x="276" y="121" on="0"/>
        <pt x="298" y="157" on="0"/>
        <pt x="298" y="199" on="0"/>
        <pt x="290" y="217" on="1"/>
        <pt x="231" y="174" on="0"/>
        <pt x="231" y="141" on="1"/>
        <pt x="231" y="121" on="0"/>
        <pt x="259" y="121" on="1"/>
      </contour>
      <contour>
        <pt x="588" y="479" on="1"/>
        <pt x="588" y="496" on="0"/>
        <pt x="632" y="544" on="0"/>
        <pt x="666" y="558" on="1"/>
        <pt x="667" y="563" on="0"/>
        <pt x="667" y="574" on="1"/>
        <pt x="667" y="608" on="0"/>
        <pt x="650" y="635" on="1"/>
        <pt x="573" y="609" on="0"/>
        <pt x="480" y="496" on="0"/>
        <pt x="480" y="444" on="1"/>
        <pt x="480" y="409" on="0"/>
        <pt x="525" y="367" on="0"/>
        <pt x="570" y="367" on="1"/>
        <pt x="631" y="367" on="0"/>
        <pt x="756" y="487" on="0"/>
        <pt x="756" y="531" on="1"/>
        <pt x="756" y="558" on="0"/>
        <pt x="724" y="558" on="1"/>
        <pt x="709" y="558" on="0"/>
        <pt x="686" y="551" on="1"/>
        <pt x="678" y="515" on="0"/>
        <pt x="633" y="464" on="0"/>
        <pt x="588" y="464" on="0"/>
      </contour>
      <contour>
        <pt x="470" y="275" on="1"/>
        <pt x="381" y="274" on="0"/>
        <pt x="310" y="230" on="1"/>
        <pt x="317" y="215" on="0"/>
        <pt x="317" y="158" on="0"/>
        <pt x="274" y="97" on="0"/>
        <pt x="245" y="97" on="1"/>
        <pt x="205" y="97" on="0"/>
        <pt x="205" y="128" on="1"/>
        <pt x="205" y="150" on="0"/>
        <pt x="246" y="206" on="0"/>
        <pt x="282" y="231" on="1"/>
        <pt x="264" y="256" on="0"/>
        <pt x="225" y="256" on="1"/>
        <pt x="147" y="256" on="0"/>
        <pt x="47" y="161" on="0"/>
        <pt x="47" y="45" on="0"/>
        <pt x="144" y="-32" on="0"/>
        <pt x="313" y="-32" on="0"/>
        <pt x="454" y="20" on="0"/>
        <pt x="574" y="111" on="0"/>
        <pt x="686" y="223" on="0"/>
        <pt x="793" y="353" on="0"/>
        <pt x="841" y="412" on="1"/>
        <pt x="958" y="557" on="0"/>
        <pt x="1045" y="626" on="1"/>
        <pt x="1022" y="628" on="0"/>
        <pt x="963" y="636" on="1"/>
        <pt x="838" y="653" on="0"/>
        <pt x="715" y="653" on="0"/>
        <pt x="674" y="642" on="1"/>
        <pt x="690" y="616" on="0"/>
        <pt x="690" y="571" on="0"/>
        <pt x="689" y="566" on="1"/>
        <pt x="715" y="573" on="0"/>
        <pt x="736" y="573" on="1"/>
        <pt x="784" y="573" on="0"/>
        <pt x="784" y="536" on="1"/>
        <pt x="784" y="485" on="0"/>
        <pt x="635" y="350" on="0"/>
        <pt x="561" y="350" on="1"/>
        <pt x="506" y="350" on="0"/>
        <pt x="451" y="396" on="0"/>
        <pt x="451" y="434" on="1"/>
        <pt x="451" y="489" on="0"/>
        <pt x="557" y="612" on="0"/>
        <pt x="642" y="646" on="1"/>
        <pt x="601" y="694" on="0"/>
        <pt x="511" y="694" on="1"/>
        <pt x="443" y="694" on="0"/>
        <pt x="326" y="654" on="0"/>
        <pt x="292" y="626" on="1"/>
        <pt x="219" y="566" on="0"/>
        <pt x="198" y="520" on="1"/>
        <pt x="188" y="500" on="1"/>
        <pt x="183" y="492" on="0"/>
        <pt x="171" y="492" on="0"/>
        <pt x="171" y="503" on="1"/>
        <pt x="182" y="533" on="0"/>
        <pt x="242" y="610" on="0"/>
        <pt x="313" y="664" on="0"/>
        <pt x="441" y="709" on="0"/>
        <pt x="518" y="709" on="1"/>
        <pt x="623" y="709" on="0"/>
        <pt x="666" y="654" on="1"/>
        <pt x="729" y="675" on="0"/>
        <pt x="833" y="675" on="0"/>
        <pt x="918" y="668" on="0"/>
        <pt x="972" y="660" on="0"/>
        <pt x="1056" y="646" on="0"/>
        <pt x="1069" y="644" on="1"/>
        <pt x="1155" y="704" on="0"/>
        <pt x="1238" y="704" on="1"/>
        <pt x="1275" y="704" on="0"/>
        <pt x="1275" y="682" on="1"/>
        <pt x="1275" y="653" on="0"/>
        <pt x="1151" y="623" on="0"/>
        <pt x="1083" y="623" on="0"/>
        <pt x="1072" y="624" on="1"/>
        <pt x="999" y="567" on="0"/>
        <pt x="874" y="412" on="1"/>
        <pt x="826" y="352" on="0"/>
        <pt x="714" y="218" on="0"/>
        <pt x="594" y="101" on="0"/>
        <pt x="529" y="54" on="1"/>
        <pt x="389" y="-49" on="0"/>
        <pt x="228" y="-49" on="1"/>
        <pt x="124" y="-49" on="0"/>
        <pt x="18" y="33" on="0"/>
        <pt x="18" y="162" on="0"/>
        <pt x="139" y="272" on="0"/>
        <pt x="232" y="272" on="1"/>
        <pt x="278" y="272" on="0"/>
        <pt x="301" y="244" on="1"/>
        <pt x="381" y="291" on="0"/>
        <pt x="478" y="291" on="1"/>
        <pt x="502" y="291" on="0"/>
        <pt x="536" y="274" on="0"/>
        <pt x="540" y="266" on="1"/>
        <pt x="545" y="258" on="1"/>
        <pt x="545" y="248" on="0"/>
        <pt x="536" y="248" on="1"/>
        <pt x="532" y="248" on="0"/>
        <pt x="526" y="255" on="1"/>
        <pt x="511" y="275" on="0"/>
      </contour>
    </TTGlyph>
    <TTGlyph name="Idieresis" xMin="18" yMin="-49" xMax="1275" yMax="816">
      <contour>
        <pt x="1059" y="786" on="0"/>
        <pt x="1077" y="807" on="0"/>
        <pt x="1092" y="807" on="0"/>
        <pt x="1101" y="798" on="0"/>
        <pt x="1101" y="780" on="0"/>
        <pt x="1080" y="764" on="0"/>
        <pt x="1073" y="764" on="1"/>
        <pt x="1059" y="764" on="0"/>
        <pt x="1059" y="777" on="1"/>
      </contour>
      <contour>
        <pt x="986" y="795" on="0"/>
        <pt x="1004" y="816" on="0"/>
        <pt x="1019" y="816" on="0"/>
        <pt x="1028" y="807" on="0"/>
        <pt x="1028" y="789" on="0"/>
        <pt x="1007" y="773" on="0"/>
        <pt x="1000" y="773" on="1"/>
        <pt x="986" y="773" on="0"/>
        <pt x="986" y="786" on="1"/>
      </contour>
      <contour>
        <pt x="657" y="519" on="0"/>
        <pt x="632" y="488" on="0"/>
        <pt x="610" y="488" on="0"/>
        <pt x="610" y="494" on="1"/>
        <pt x="610" y="502" on="0"/>
        <pt x="641" y="531" on="0"/>
        <pt x="663" y="542" on="1"/>
      </contour>
      <contour>
        <pt x="1223" y="688" on="1"/>
        <pt x="1239" y="688" on="0"/>
        <pt x="1239" y="661" on="0"/>
        <pt x="1153" y="639" on="0"/>
        <pt x="1120" y="639" on="1"/>
        <pt x="1117" y="639" on="1"/>
        <pt x="1103" y="639" on="0"/>
        <pt x="1095" y="640" on="1"/>
        <pt x="1162" y="688" on="0"/>
      </contour>
      <contour>
        <pt x="290" y="217" on="1"/>
        <pt x="298" y="199" on="0"/>
        <pt x="298" y="157" on="0"/>
        <pt x="276" y="121" on="0"/>
        <pt x="259" y="121" on="1"/>
        <pt x="231" y="121" on="0"/>
        <pt x="231" y="141" on="1"/>
        <pt x="231" y="174" on="0"/>
      </contour>
      <contour>
        <pt x="588" y="479" on="1"/>
        <pt x="588" y="464" on="0"/>
        <pt x="633" y="464" on="0"/>
        <pt x="678" y="515" on="0"/>
        <pt x="686" y="551" on="1"/>
        <pt x="709" y="558" on="0"/>
        <pt x="724" y="558" on="1"/>
        <pt x="756" y="558" on="0"/>
        <pt x="756" y="531" on="1"/>
        <pt x="756" y="487" on="0"/>
        <pt x="631" y="367" on="0"/>
        <pt x="570" y="367" on="1"/>
        <pt x="525" y="367" on="0"/>
        <pt x="480" y="409" on="0"/>
        <pt x="480" y="444" on="1"/>
        <pt x="480" y="496" on="0"/>
        <pt x="573" y="609" on="0"/>
        <pt x="650" y="635" on="1"/>
        <pt x="667" y="608" on="0"/>
        <pt x="667" y="574" on="1"/>
        <pt x="667" y="563" on="0"/>
        <pt x="666" y="558" on="1"/>
        <pt x="632" y="544" on="0"/>
        <pt x="588" y="496" on="0"/>
      </contour>
      <contour>
        <pt x="470" y="275" on="1"/>
        <pt x="507" y="275" on="0"/>
        <pt x="518" y="262" on="1"/>
        <pt x="535" y="241" on="0"/>
        <pt x="543" y="252" on="1"/>
        <pt x="545" y="254" on="0"/>
        <pt x="545" y="258" on="1"/>
        <pt x="542" y="270" on="0"/>
        <pt x="502" y="291" on="0"/>
        <pt x="478" y="291" on="1"/>
        <pt x="381" y="291" on="0"/>
        <pt x="301" y="244" on="1"/>
        <pt x="278" y="272" on="0"/>
        <pt x="232" y="272" on="1"/>
        <pt x="139" y="272" on="0"/>
        <pt x="18" y="162" on="0"/>
        <pt x="18" y="33" on="0"/>
        <pt x="124" y="-49" on="0"/>
        <pt x="309" y="-49" on="0"/>
        <pt x="464" y="6" on="0"/>
        <pt x="594" y="101" on="0"/>
        <pt x="714" y="218" on="0"/>
        <pt x="826" y="352" on="0"/>
        <pt x="874" y="412" on="1"/>
        <pt x="999" y="567" on="0"/>
        <pt x="1072" y="624" on="1"/>
        <pt x="1083" y="623" on="0"/>
        <pt x="1151" y="623" on="0"/>
        <pt x="1275" y="653" on="0"/>
        <pt x="1275" y="682" on="1"/>
        <pt x="1275" y="704" on="0"/>
        <pt x="1238" y="704" on="1"/>
        <pt x="1155" y="704" on="0"/>
        <pt x="1069" y="644" on="1"/>
        <pt x="1056" y="646" on="0"/>
        <pt x="972" y="660" on="0"/>
        <pt x="945" y="664" on="1"/>
        <pt x="871" y="675" on="0"/>
        <pt x="729" y="675" on="0"/>
        <pt x="666" y="654" on="1"/>
        <pt x="623" y="709" on="0"/>
        <pt x="518" y="709" on="1"/>
        <pt x="406" y="709" on="0"/>
        <pt x="329" y="668" on="1"/>
        <pt x="256" y="629" on="0"/>
        <pt x="221" y="584" on="1"/>
        <pt x="184" y="536" on="0"/>
        <pt x="176" y="514" on="1"/>
        <pt x="171" y="503" on="1"/>
        <pt x="171" y="492" on="0"/>
        <pt x="183" y="492" on="0"/>
        <pt x="188" y="500" on="1"/>
        <pt x="197" y="524" on="0"/>
        <pt x="259" y="601" on="0"/>
        <pt x="326" y="652" on="0"/>
        <pt x="443" y="694" on="0"/>
        <pt x="511" y="694" on="1"/>
        <pt x="601" y="694" on="0"/>
        <pt x="642" y="646" on="1"/>
        <pt x="557" y="612" on="0"/>
        <pt x="451" y="489" on="0"/>
        <pt x="451" y="434" on="1"/>
        <pt x="451" y="396" on="0"/>
        <pt x="506" y="350" on="0"/>
        <pt x="561" y="350" on="1"/>
        <pt x="635" y="350" on="0"/>
        <pt x="784" y="485" on="0"/>
        <pt x="784" y="536" on="1"/>
        <pt x="784" y="573" on="0"/>
        <pt x="736" y="573" on="1"/>
        <pt x="715" y="573" on="0"/>
        <pt x="689" y="566" on="1"/>
        <pt x="690" y="571" on="0"/>
        <pt x="690" y="616" on="0"/>
        <pt x="674" y="642" on="1"/>
        <pt x="715" y="653" on="0"/>
        <pt x="803" y="653" on="0"/>
        <pt x="904" y="644" on="0"/>
        <pt x="1022" y="628" on="0"/>
        <pt x="1045" y="626" on="1"/>
        <pt x="958" y="557" on="0"/>
        <pt x="841" y="412" on="1"/>
        <pt x="793" y="353" on="0"/>
        <pt x="686" y="223" on="0"/>
        <pt x="574" y="111" on="0"/>
        <pt x="514" y="66" on="1"/>
        <pt x="385" y="-32" on="0"/>
        <pt x="240" y="-32" on="1"/>
        <pt x="144" y="-32" on="0"/>
        <pt x="47" y="45" on="0"/>
        <pt x="47" y="161" on="0"/>
        <pt x="147" y="256" on="0"/>
        <pt x="225" y="256" on="1"/>
        <pt x="264" y="256" on="0"/>
        <pt x="282" y="231" on="1"/>
        <pt x="246" y="206" on="0"/>
        <pt x="205" y="150" on="0"/>
        <pt x="205" y="128" on="1"/>
        <pt x="205" y="97" on="0"/>
        <pt x="245" y="97" on="1"/>
        <pt x="274" y="97" on="0"/>
        <pt x="317" y="158" on="0"/>
        <pt x="317" y="215" on="0"/>
        <pt x="310" y="230" on="1"/>
        <pt x="381" y="274" on="0"/>
      </contour>
    </TTGlyph>
    <TTGlyph name="Igrave" xMin="18" yMin="-49" xMax="1275" yMax="845">
      <contour>
        <pt x="1129" y="784" on="1"/>
        <pt x="1129" y="779" on="0"/>
        <pt x="1122" y="779" on="1"/>
        <pt x="1096" y="779" on="0"/>
        <pt x="1008" y="820" on="0"/>
        <pt x="1008" y="836" on="1"/>
        <pt x="1008" y="845" on="0"/>
        <pt x="1027" y="845" on="0"/>
        <pt x="1038" y="834" on="1"/>
        <pt x="1067" y="802" on="0"/>
        <pt x="1116" y="790" on="1"/>
        <pt x="1129" y="787" on="0"/>
      </contour>
      <contour>
        <pt x="657" y="519" on="0"/>
        <pt x="632" y="488" on="0"/>
        <pt x="610" y="488" on="0"/>
        <pt x="610" y="494" on="1"/>
        <pt x="610" y="502" on="0"/>
        <pt x="641" y="531" on="0"/>
        <pt x="663" y="542" on="1"/>
      </contour>
      <contour>
        <pt x="1223" y="688" on="1"/>
        <pt x="1239" y="688" on="0"/>
        <pt x="1239" y="661" on="0"/>
        <pt x="1153" y="639" on="0"/>
        <pt x="1120" y="639" on="1"/>
        <pt x="1117" y="639" on="1"/>
        <pt x="1103" y="639" on="0"/>
        <pt x="1095" y="640" on="1"/>
        <pt x="1162" y="688" on="0"/>
      </contour>
      <contour>
        <pt x="290" y="217" on="1"/>
        <pt x="298" y="199" on="0"/>
        <pt x="298" y="157" on="0"/>
        <pt x="276" y="121" on="0"/>
        <pt x="259" y="121" on="1"/>
        <pt x="231" y="121" on="0"/>
        <pt x="231" y="141" on="1"/>
        <pt x="231" y="174" on="0"/>
      </contour>
      <contour>
        <pt x="588" y="479" on="1"/>
        <pt x="588" y="464" on="0"/>
        <pt x="633" y="464" on="0"/>
        <pt x="678" y="515" on="0"/>
        <pt x="686" y="551" on="1"/>
        <pt x="709" y="558" on="0"/>
        <pt x="724" y="558" on="1"/>
        <pt x="756" y="558" on="0"/>
        <pt x="756" y="531" on="1"/>
        <pt x="756" y="487" on="0"/>
        <pt x="631" y="367" on="0"/>
        <pt x="570" y="367" on="1"/>
        <pt x="525" y="367" on="0"/>
        <pt x="480" y="409" on="0"/>
        <pt x="480" y="444" on="1"/>
        <pt x="480" y="496" on="0"/>
        <pt x="573" y="609" on="0"/>
        <pt x="650" y="635" on="1"/>
        <pt x="667" y="608" on="0"/>
        <pt x="667" y="574" on="1"/>
        <pt x="667" y="563" on="0"/>
        <pt x="666" y="558" on="1"/>
        <pt x="632" y="544" on="0"/>
        <pt x="588" y="496" on="0"/>
      </contour>
      <contour>
        <pt x="470" y="275" on="1"/>
        <pt x="507" y="275" on="0"/>
        <pt x="518" y="262" on="1"/>
        <pt x="535" y="241" on="0"/>
        <pt x="543" y="252" on="1"/>
        <pt x="545" y="254" on="0"/>
        <pt x="545" y="258" on="1"/>
        <pt x="542" y="270" on="0"/>
        <pt x="502" y="291" on="0"/>
        <pt x="478" y="291" on="1"/>
        <pt x="381" y="291" on="0"/>
        <pt x="301" y="244" on="1"/>
        <pt x="278" y="272" on="0"/>
        <pt x="232" y="272" on="1"/>
        <pt x="139" y="272" on="0"/>
        <pt x="18" y="162" on="0"/>
        <pt x="18" y="33" on="0"/>
        <pt x="124" y="-49" on="0"/>
        <pt x="309" y="-49" on="0"/>
        <pt x="464" y="6" on="0"/>
        <pt x="594" y="101" on="0"/>
        <pt x="714" y="218" on="0"/>
        <pt x="826" y="352" on="0"/>
        <pt x="874" y="412" on="1"/>
        <pt x="999" y="567" on="0"/>
        <pt x="1072" y="624" on="1"/>
        <pt x="1083" y="623" on="0"/>
        <pt x="1151" y="623" on="0"/>
        <pt x="1275" y="653" on="0"/>
        <pt x="1275" y="682" on="1"/>
        <pt x="1275" y="704" on="0"/>
        <pt x="1238" y="704" on="1"/>
        <pt x="1155" y="704" on="0"/>
        <pt x="1069" y="644" on="1"/>
        <pt x="1056" y="646" on="0"/>
        <pt x="972" y="660" on="0"/>
        <pt x="945" y="664" on="1"/>
        <pt x="871" y="675" on="0"/>
        <pt x="729" y="675" on="0"/>
        <pt x="666" y="654" on="1"/>
        <pt x="623" y="709" on="0"/>
        <pt x="518" y="709" on="1"/>
        <pt x="406" y="709" on="0"/>
        <pt x="329" y="668" on="1"/>
        <pt x="256" y="629" on="0"/>
        <pt x="221" y="584" on="1"/>
        <pt x="184" y="536" on="0"/>
        <pt x="176" y="514" on="1"/>
        <pt x="171" y="503" on="1"/>
        <pt x="171" y="492" on="0"/>
        <pt x="183" y="492" on="0"/>
        <pt x="188" y="500" on="1"/>
        <pt x="197" y="524" on="0"/>
        <pt x="259" y="601" on="0"/>
        <pt x="326" y="652" on="0"/>
        <pt x="443" y="694" on="0"/>
        <pt x="511" y="694" on="1"/>
        <pt x="601" y="694" on="0"/>
        <pt x="642" y="646" on="1"/>
        <pt x="557" y="612" on="0"/>
        <pt x="451" y="489" on="0"/>
        <pt x="451" y="434" on="1"/>
        <pt x="451" y="396" on="0"/>
        <pt x="506" y="350" on="0"/>
        <pt x="561" y="350" on="1"/>
        <pt x="635" y="350" on="0"/>
        <pt x="784" y="485" on="0"/>
        <pt x="784" y="536" on="1"/>
        <pt x="784" y="573" on="0"/>
        <pt x="736" y="573" on="1"/>
        <pt x="715" y="573" on="0"/>
        <pt x="689" y="566" on="1"/>
        <pt x="690" y="571" on="0"/>
        <pt x="690" y="616" on="0"/>
        <pt x="674" y="642" on="1"/>
        <pt x="715" y="653" on="0"/>
        <pt x="803" y="653" on="0"/>
        <pt x="904" y="644" on="0"/>
        <pt x="1022" y="628" on="0"/>
        <pt x="1045" y="626" on="1"/>
        <pt x="958" y="557" on="0"/>
        <pt x="841" y="412" on="1"/>
        <pt x="793" y="353" on="0"/>
        <pt x="686" y="223" on="0"/>
        <pt x="574" y="111" on="0"/>
        <pt x="514" y="66" on="1"/>
        <pt x="385" y="-32" on="0"/>
        <pt x="240" y="-32" on="1"/>
        <pt x="144" y="-32" on="0"/>
        <pt x="47" y="45" on="0"/>
        <pt x="47" y="161" on="0"/>
        <pt x="147" y="256" on="0"/>
        <pt x="225" y="256" on="1"/>
        <pt x="264" y="256" on="0"/>
        <pt x="282" y="231" on="1"/>
        <pt x="246" y="206" on="0"/>
        <pt x="205" y="150" on="0"/>
        <pt x="205" y="128" on="1"/>
        <pt x="205" y="97" on="0"/>
        <pt x="245" y="97" on="1"/>
        <pt x="274" y="97" on="0"/>
        <pt x="317" y="158" on="0"/>
        <pt x="317" y="215" on="0"/>
        <pt x="310" y="230" on="1"/>
        <pt x="381" y="274" on="0"/>
      </contour>
    </TTGlyph>
    <TTGlyph name="J" xMin="-146" yMin="-356" xMax="1098" yMax="711">
      <contour>
        <pt x="447" y="494" on="1"/>
        <pt x="447" y="488" on="0"/>
        <pt x="469" y="488" on="0"/>
        <pt x="494" y="519" on="0"/>
        <pt x="500" y="542" on="1"/>
        <pt x="478" y="531" on="0"/>
        <pt x="447" y="502" on="0"/>
      </contour>
      <contour>
        <pt x="364" y="135" on="1"/>
        <pt x="364" y="142" on="0"/>
        <pt x="363" y="146" on="1"/>
        <pt x="330" y="123" on="0"/>
        <pt x="291" y="79" on="0"/>
        <pt x="291" y="67" on="1"/>
        <pt x="291" y="58" on="0"/>
        <pt x="303" y="58" on="1"/>
        <pt x="326" y="58" on="0"/>
        <pt x="364" y="108" on="0"/>
      </contour>
      <contour>
        <pt x="1046" y="695" on="1"/>
        <pt x="995" y="695" on="0"/>
        <pt x="924" y="641" on="1"/>
        <pt x="935" y="639" on="0"/>
        <pt x="984" y="639" on="0"/>
        <pt x="1062" y="667" on="0"/>
        <pt x="1062" y="682" on="1"/>
        <pt x="1062" y="695" on="0"/>
      </contour>
      <contour>
        <pt x="425" y="479" on="1"/>
        <pt x="425" y="496" on="0"/>
        <pt x="469" y="544" on="0"/>
        <pt x="503" y="558" on="1"/>
        <pt x="504" y="563" on="0"/>
        <pt x="504" y="574" on="1"/>
        <pt x="504" y="608" on="0"/>
        <pt x="487" y="635" on="1"/>
        <pt x="410" y="609" on="0"/>
        <pt x="317" y="496" on="0"/>
        <pt x="317" y="444" on="1"/>
        <pt x="317" y="409" on="0"/>
        <pt x="362" y="367" on="0"/>
        <pt x="407" y="367" on="1"/>
        <pt x="468" y="367" on="0"/>
        <pt x="593" y="487" on="0"/>
        <pt x="593" y="531" on="1"/>
        <pt x="593" y="558" on="0"/>
        <pt x="561" y="558" on="1"/>
        <pt x="546" y="558" on="0"/>
        <pt x="523" y="551" on="1"/>
        <pt x="515" y="515" on="0"/>
        <pt x="470" y="464" on="0"/>
        <pt x="425" y="464" on="0"/>
      </contour>
      <contour>
        <pt x="-61" y="-338" on="1"/>
        <pt x="-18" y="-338" on="0"/>
        <pt x="90" y="-274" on="0"/>
        <pt x="195" y="-177" on="0"/>
        <pt x="261" y="-101" on="1"/>
        <pt x="358" y="10" on="0"/>
        <pt x="506" y="203" on="1"/>
        <pt x="514" y="214" on="0"/>
        <pt x="518" y="219" on="1"/>
        <pt x="447" y="201" on="0"/>
        <pt x="382" y="158" on="1"/>
        <pt x="385" y="149" on="0"/>
        <pt x="385" y="140" on="1"/>
        <pt x="385" y="105" on="0"/>
        <pt x="333" y="45" on="0"/>
        <pt x="296" y="45" on="1"/>
        <pt x="272" y="45" on="0"/>
        <pt x="272" y="79" on="0"/>
        <pt x="318" y="134" on="0"/>
        <pt x="357" y="161" on="1"/>
        <pt x="343" y="184" on="0"/>
        <pt x="304" y="184" on="1"/>
        <pt x="225" y="184" on="0"/>
        <pt x="22" y="7" on="0"/>
        <pt x="-115" y="-215" on="0"/>
        <pt x="-115" y="-282" on="1"/>
        <pt x="-115" y="-338" on="0"/>
      </contour>
      <contour>
        <pt x="503" y="654" on="1"/>
        <pt x="566" y="675" on="0"/>
        <pt x="680" y="675" on="0"/>
        <pt x="770" y="665" on="0"/>
        <pt x="899" y="643" on="0"/>
        <pt x="902" y="643" on="1"/>
        <pt x="992" y="711" on="0"/>
        <pt x="1061" y="711" on="1"/>
        <pt x="1098" y="711" on="0"/>
        <pt x="1098" y="689" on="1"/>
        <pt x="1098" y="660" on="0"/>
        <pt x="982" y="623" on="0"/>
        <pt x="916" y="623" on="0"/>
        <pt x="904" y="624" on="1"/>
        <pt x="858" y="586" on="0"/>
        <pt x="737" y="452" on="0"/>
        <pt x="647" y="339" on="0"/>
        <pt x="571" y="242" on="1"/>
        <pt x="594" y="245" on="0"/>
        <pt x="617" y="245" on="1"/>
        <pt x="686" y="245" on="0"/>
        <pt x="686" y="225" on="1"/>
        <pt x="686" y="218" on="0"/>
        <pt x="675" y="218" on="0"/>
        <pt x="668" y="221" on="0"/>
        <pt x="662" y="224" on="1"/>
        <pt x="642" y="232" on="0"/>
        <pt x="583" y="232" on="0"/>
        <pt x="560" y="228" on="1"/>
        <pt x="406" y="29" on="0"/>
        <pt x="338" y="-48" on="0"/>
        <pt x="254" y="-147" on="0"/>
        <pt x="204" y="-194" on="0"/>
        <pt x="129" y="-266" on="0"/>
        <pt x="75" y="-301" on="0"/>
        <pt x="43" y="-321" on="1"/>
        <pt x="-13" y="-356" on="0"/>
        <pt x="-72" y="-356" on="1"/>
        <pt x="-146" y="-356" on="0"/>
        <pt x="-146" y="-287" on="1"/>
        <pt x="-146" y="-232" on="0"/>
        <pt x="-54" y="-64" on="0"/>
        <pt x="80" y="89" on="0"/>
        <pt x="247" y="200" on="0"/>
        <pt x="313" y="200" on="1"/>
        <pt x="357" y="200" on="0"/>
        <pt x="376" y="173" on="1"/>
        <pt x="446" y="217" on="0"/>
        <pt x="530" y="235" on="1"/>
        <pt x="755" y="524" on="0"/>
        <pt x="880" y="626" on="1"/>
        <pt x="858" y="628" on="0"/>
        <pt x="799" y="636" on="1"/>
        <pt x="674" y="653" on="0"/>
        <pt x="552" y="653" on="0"/>
        <pt x="511" y="642" on="1"/>
        <pt x="527" y="616" on="0"/>
        <pt x="527" y="571" on="0"/>
        <pt x="526" y="566" on="1"/>
        <pt x="552" y="573" on="0"/>
        <pt x="573" y="573" on="1"/>
        <pt x="621" y="573" on="0"/>
        <pt x="621" y="536" on="1"/>
        <pt x="621" y="485" on="0"/>
        <pt x="472" y="350" on="0"/>
        <pt x="398" y="350" on="1"/>
        <pt x="343" y="350" on="0"/>
        <pt x="288" y="396" on="0"/>
        <pt x="288" y="434" on="1"/>
        <pt x="288" y="489" on="0"/>
        <pt x="394" y="612" on="0"/>
        <pt x="479" y="646" on="1"/>
        <pt x="438" y="694" on="0"/>
        <pt x="348" y="694" on="1"/>
        <pt x="280" y="694" on="0"/>
        <pt x="163" y="654" on="0"/>
        <pt x="128" y="626" on="1"/>
        <pt x="56" y="566" on="0"/>
        <pt x="34" y="520" on="1"/>
        <pt x="25" y="500" on="1"/>
        <pt x="20" y="492" on="0"/>
        <pt x="8" y="492" on="0"/>
        <pt x="8" y="503" on="1"/>
        <pt x="19" y="533" on="0"/>
        <pt x="79" y="610" on="0"/>
        <pt x="150" y="664" on="0"/>
        <pt x="278" y="709" on="0"/>
        <pt x="355" y="709" on="1"/>
        <pt x="460" y="709" on="0"/>
      </contour>
    </TTGlyph>
    <TTGlyph name="K" xMin="19" yMin="-59" xMax="1617" yMax="710">
      <contour>
        <pt x="611" y="484" on="1"/>
        <pt x="611" y="478" on="0"/>
        <pt x="633" y="478" on="0"/>
        <pt x="658" y="509" on="0"/>
        <pt x="664" y="532" on="1"/>
        <pt x="642" y="521" on="0"/>
        <pt x="611" y="492" on="0"/>
      </contour>
      <contour>
        <pt x="648" y="246" on="1"/>
        <pt x="648" y="229" on="0"/>
        <pt x="678" y="220" on="1"/>
        <pt x="714" y="264" on="1"/>
        <pt x="698" y="266" on="0"/>
        <pt x="676" y="266" on="0"/>
        <pt x="648" y="254" on="0"/>
      </contour>
      <contour>
        <pt x="704" y="214" on="1"/>
        <pt x="713" y="212" on="0"/>
        <pt x="767" y="212" on="0"/>
        <pt x="804" y="222" on="1"/>
        <pt x="768" y="247" on="0"/>
        <pt x="740" y="256" on="1"/>
      </contour>
      <contour>
        <pt x="248" y="151" on="1"/>
        <pt x="248" y="131" on="0"/>
        <pt x="309" y="131" on="0"/>
        <pt x="309" y="174" on="1"/>
        <pt x="309" y="194" on="0"/>
        <pt x="296" y="213" on="1"/>
        <pt x="248" y="179" on="0"/>
      </contour>
      <contour>
        <pt x="1187" y="694" on="1"/>
        <pt x="1129" y="694" on="0"/>
        <pt x="1067" y="645" on="1"/>
        <pt x="1082" y="644" on="0"/>
        <pt x="1148" y="644" on="0"/>
        <pt x="1202" y="673" on="0"/>
        <pt x="1202" y="685" on="1"/>
        <pt x="1202" y="694" on="0"/>
      </contour>
      <contour>
        <pt x="589" y="469" on="1"/>
        <pt x="589" y="486" on="0"/>
        <pt x="633" y="534" on="0"/>
        <pt x="667" y="548" on="1"/>
        <pt x="668" y="553" on="0"/>
        <pt x="668" y="593" on="0"/>
        <pt x="653" y="620" on="1"/>
        <pt x="582" y="589" on="0"/>
        <pt x="498" y="476" on="0"/>
        <pt x="498" y="426" on="1"/>
        <pt x="498" y="395" on="0"/>
        <pt x="535" y="357" on="0"/>
        <pt x="571" y="357" on="1"/>
        <pt x="632" y="357" on="0"/>
        <pt x="757" y="477" on="0"/>
        <pt x="757" y="521" on="1"/>
        <pt x="757" y="548" on="0"/>
        <pt x="725" y="548" on="1"/>
        <pt x="710" y="548" on="0"/>
        <pt x="687" y="541" on="1"/>
        <pt x="679" y="505" on="0"/>
        <pt x="634" y="454" on="0"/>
        <pt x="589" y="454" on="0"/>
      </contour>
      <contour>
        <pt x="472" y="266" on="1"/>
        <pt x="386" y="266" on="0"/>
        <pt x="315" y="226" on="1"/>
        <pt x="327" y="207" on="0"/>
        <pt x="327" y="154" on="0"/>
        <pt x="291" y="107" on="0"/>
        <pt x="264" y="107" on="1"/>
        <pt x="227" y="107" on="0"/>
        <pt x="227" y="137" on="1"/>
        <pt x="227" y="179" on="0"/>
        <pt x="287" y="224" on="1"/>
        <pt x="263" y="246" on="0"/>
        <pt x="226" y="246" on="1"/>
        <pt x="148" y="246" on="0"/>
        <pt x="48" y="151" on="0"/>
        <pt x="48" y="35" on="0"/>
        <pt x="145" y="-42" on="0"/>
        <pt x="241" y="-42" on="1"/>
        <pt x="361" y="-42" on="0"/>
        <pt x="566" y="90" on="0"/>
        <pt x="667" y="207" on="1"/>
        <pt x="628" y="222" on="0"/>
        <pt x="628" y="246" on="1"/>
        <pt x="628" y="261" on="0"/>
        <pt x="665" y="278" on="0"/>
        <pt x="706" y="278" on="0"/>
        <pt x="722" y="274" on="1"/>
        <pt x="746" y="304" on="0"/>
        <pt x="883" y="485" on="0"/>
        <pt x="973" y="590" on="0"/>
        <pt x="1018" y="628" on="1"/>
        <pt x="999" y="630" on="0"/>
        <pt x="950" y="636" on="1"/>
        <pt x="853" y="648" on="0"/>
        <pt x="728" y="648" on="0"/>
        <pt x="676" y="629" on="1"/>
        <pt x="691" y="602" on="0"/>
        <pt x="691" y="561" on="0"/>
        <pt x="690" y="556" on="1"/>
        <pt x="716" y="563" on="0"/>
        <pt x="737" y="563" on="1"/>
        <pt x="785" y="563" on="0"/>
        <pt x="785" y="526" on="1"/>
        <pt x="785" y="475" on="0"/>
        <pt x="636" y="340" on="0"/>
        <pt x="562" y="340" on="1"/>
        <pt x="519" y="340" on="0"/>
        <pt x="474" y="384" on="0"/>
        <pt x="474" y="420" on="1"/>
        <pt x="474" y="474" on="0"/>
        <pt x="566" y="596" on="0"/>
        <pt x="646" y="632" on="1"/>
        <pt x="606" y="684" on="0"/>
        <pt x="512" y="684" on="1"/>
        <pt x="444" y="684" on="0"/>
        <pt x="327" y="644" on="0"/>
        <pt x="292" y="616" on="1"/>
        <pt x="220" y="556" on="0"/>
        <pt x="198" y="510" on="1"/>
        <pt x="189" y="490" on="1"/>
        <pt x="184" y="482" on="0"/>
        <pt x="172" y="482" on="0"/>
        <pt x="172" y="493" on="1"/>
        <pt x="183" y="523" on="0"/>
        <pt x="243" y="600" on="0"/>
        <pt x="314" y="654" on="0"/>
        <pt x="442" y="699" on="0"/>
        <pt x="519" y="699" on="1"/>
        <pt x="626" y="699" on="0"/>
        <pt x="669" y="642" on="1"/>
        <pt x="743" y="670" on="0"/>
        <pt x="825" y="670" on="1"/>
        <pt x="854" y="670" on="0"/>
        <pt x="1012" y="650" on="0"/>
        <pt x="1041" y="647" on="1"/>
        <pt x="1123" y="710" on="0"/>
        <pt x="1202" y="710" on="1"/>
        <pt x="1233" y="710" on="0"/>
        <pt x="1233" y="694" on="1"/>
        <pt x="1233" y="673" on="0"/>
        <pt x="1145" y="625" on="0"/>
        <pt x="1087" y="625" on="1"/>
        <pt x="1058" y="625" on="0"/>
        <pt x="1044" y="626" on="1"/>
        <pt x="976" y="565" on="0"/>
        <pt x="848" y="394" on="1"/>
        <pt x="785" y="311" on="0"/>
        <pt x="748" y="266" on="1"/>
        <pt x="781" y="254" on="0"/>
        <pt x="825" y="228" on="1"/>
        <pt x="952" y="268" on="0"/>
        <pt x="1136" y="432" on="1"/>
        <pt x="1208" y="496" on="0"/>
        <pt x="1359" y="620" on="0"/>
        <pt x="1527" y="701" on="0"/>
        <pt x="1607" y="701" on="1"/>
        <pt x="1617" y="701" on="0"/>
        <pt x="1617" y="689" on="1"/>
        <pt x="1617" y="685" on="0"/>
        <pt x="1615" y="685" on="1"/>
        <pt x="1608" y="685" on="1"/>
        <pt x="1524" y="685" on="0"/>
        <pt x="1365" y="605" on="0"/>
        <pt x="1231" y="484" on="0"/>
        <pt x="1099" y="357" on="0"/>
        <pt x="930" y="241" on="0"/>
        <pt x="842" y="217" on="1"/>
        <pt x="878" y="194" on="0"/>
        <pt x="1010" y="94" on="0"/>
        <pt x="1100" y="30" on="0"/>
        <pt x="1217" y="-23" on="0"/>
        <pt x="1291" y="-23" on="0"/>
        <pt x="1344" y="-6" on="1"/>
        <pt x="1345" y="-5" on="0"/>
        <pt x="1346" y="-5" on="1"/>
        <pt x="1356" y="-5" on="0"/>
        <pt x="1356" y="-11" on="1"/>
        <pt x="1356" y="-22" on="0"/>
        <pt x="1277" y="-36" on="0"/>
        <pt x="1246" y="-36" on="1"/>
        <pt x="1185" y="-36" on="0"/>
        <pt x="1056" y="21" on="0"/>
        <pt x="972" y="85" on="0"/>
        <pt x="847" y="191" on="0"/>
        <pt x="819" y="211" on="1"/>
        <pt x="765" y="199" on="0"/>
        <pt x="697" y="199" on="0"/>
        <pt x="692" y="200" on="1"/>
        <pt x="585" y="79" on="0"/>
        <pt x="360" y="-59" on="0"/>
        <pt x="229" y="-59" on="1"/>
        <pt x="125" y="-59" on="0"/>
        <pt x="19" y="23" on="0"/>
        <pt x="19" y="152" on="0"/>
        <pt x="140" y="262" on="0"/>
        <pt x="233" y="262" on="1"/>
        <pt x="282" y="262" on="0"/>
        <pt x="306" y="236" on="1"/>
        <pt x="379" y="281" on="0"/>
        <pt x="479" y="281" on="1"/>
        <pt x="486" y="281" on="0"/>
        <pt x="486" y="275" on="1"/>
        <pt x="486" y="266" on="0"/>
      </contour>
    </TTGlyph>
    <TTGlyph name="L" xMin="-31" yMin="-16" xMax="1239" yMax="722">
      <contour>
        <pt x="979" y="500" on="1"/>
        <pt x="979" y="492" on="0"/>
        <pt x="980" y="489" on="1"/>
        <pt x="1057" y="540" on="0"/>
        <pt x="1057" y="567" on="1"/>
        <pt x="1057" y="576" on="0"/>
        <pt x="1018" y="576" on="0"/>
        <pt x="979" y="526" on="0"/>
      </contour>
      <contour>
        <pt x="-3" y="35" on="1"/>
        <pt x="-2" y="-2" on="0"/>
        <pt x="216" y="-2" on="0"/>
        <pt x="315" y="42" on="1"/>
        <pt x="192" y="67" on="0"/>
        <pt x="94" y="67" on="1"/>
        <pt x="-3" y="61" on="0"/>
      </contour>
      <contour>
        <pt x="1081" y="576" on="1"/>
        <pt x="1081" y="537" on="0"/>
        <pt x="986" y="476" on="1"/>
        <pt x="1000" y="459" on="0"/>
        <pt x="1030" y="459" on="1"/>
        <pt x="1090" y="459" on="0"/>
        <pt x="1209" y="588" on="0"/>
        <pt x="1209" y="645" on="1"/>
        <pt x="1209" y="709" on="0"/>
        <pt x="1125" y="709" on="1"/>
        <pt x="1009" y="709" on="0"/>
        <pt x="912" y="610" on="1"/>
        <pt x="864" y="562" on="0"/>
        <pt x="787" y="463" on="0"/>
        <pt x="737" y="390" on="0"/>
        <pt x="736" y="389" on="1"/>
        <pt x="733" y="386" on="0"/>
        <pt x="731" y="382" on="1"/>
        <pt x="831" y="398" on="0"/>
        <pt x="959" y="475" on="1"/>
        <pt x="957" y="480" on="0"/>
        <pt x="957" y="490" on="1"/>
        <pt x="957" y="524" on="0"/>
        <pt x="1018" y="593" on="0"/>
        <pt x="1081" y="593" on="0"/>
      </contour>
      <contour>
        <pt x="731" y="529" on="1"/>
        <pt x="730" y="529" on="0"/>
        <pt x="721" y="536" on="0"/>
        <pt x="715" y="536" on="1"/>
        <pt x="677" y="536" on="0"/>
        <pt x="622" y="476" on="0"/>
        <pt x="622" y="441" on="1"/>
        <pt x="622" y="381" on="0"/>
        <pt x="690" y="379" on="1"/>
        <pt x="809" y="532" on="0"/>
        <pt x="865" y="588" on="1"/>
        <pt x="999" y="722" on="0"/>
        <pt x="1135" y="722" on="1"/>
        <pt x="1239" y="722" on="0"/>
        <pt x="1239" y="654" on="1"/>
        <pt x="1239" y="591" on="0"/>
        <pt x="1088" y="442" on="0"/>
        <pt x="1022" y="442" on="1"/>
        <pt x="980" y="442" on="0"/>
        <pt x="965" y="463" on="1"/>
        <pt x="838" y="388" on="0"/>
        <pt x="722" y="369" on="1"/>
        <pt x="639" y="259" on="0"/>
        <pt x="480" y="103" on="0"/>
        <pt x="379" y="53" on="1"/>
        <pt x="388" y="52" on="0"/>
        <pt x="490" y="34" on="0"/>
        <pt x="528" y="29" on="0"/>
        <pt x="568" y="24" on="1"/>
        <pt x="641" y="15" on="0"/>
        <pt x="711" y="15" on="1"/>
        <pt x="848" y="15" on="0"/>
        <pt x="932" y="70" on="1"/>
        <pt x="936" y="73" on="0"/>
        <pt x="942" y="73" on="0"/>
        <pt x="942" y="61" on="0"/>
        <pt x="935" y="56" on="1"/>
        <pt x="905" y="31" on="0"/>
        <pt x="742" y="-10" on="0"/>
        <pt x="659" y="-10" on="1"/>
        <pt x="560" y="-10" on="0"/>
        <pt x="444" y="14" on="1"/>
        <pt x="428" y="18" on="0"/>
        <pt x="356" y="33" on="0"/>
        <pt x="342" y="36" on="1"/>
        <pt x="215" y="-16" on="0"/>
        <pt x="68" y="-16" on="1"/>
        <pt x="-31" y="-9" on="0"/>
        <pt x="-31" y="27" on="1"/>
        <pt x="-24" y="79" on="0"/>
        <pt x="121" y="79" on="1"/>
        <pt x="212" y="79" on="0"/>
        <pt x="349" y="58" on="1"/>
        <pt x="439" y="105" on="0"/>
        <pt x="591" y="254" on="0"/>
        <pt x="680" y="366" on="1"/>
        <pt x="599" y="366" on="0"/>
        <pt x="599" y="430" on="1"/>
        <pt x="599" y="471" on="0"/>
        <pt x="673" y="550" on="0"/>
        <pt x="717" y="550" on="1"/>
        <pt x="726" y="550" on="0"/>
        <pt x="737" y="540" on="0"/>
        <pt x="737" y="529" on="0"/>
      </contour>
    </TTGlyph>
    <TTGlyph name="Lslash" xMin="-32" yMin="-16" xMax="1265" yMax="722">
      <contour>
        <pt x="1005" y="500" on="1"/>
        <pt x="1005" y="492" on="0"/>
        <pt x="1006" y="489" on="1"/>
        <pt x="1083" y="540" on="0"/>
        <pt x="1083" y="567" on="1"/>
        <pt x="1083" y="576" on="0"/>
        <pt x="1044" y="576" on="0"/>
        <pt x="1005" y="526" on="0"/>
      </contour>
      <contour>
        <pt x="741" y="536" on="1"/>
        <pt x="706" y="536" on="0"/>
        <pt x="653" y="484" on="0"/>
        <pt x="648" y="452" on="1"/>
        <pt x="757" y="500" on="0"/>
        <pt x="757" y="529" on="1"/>
        <pt x="757" y="536" on="0"/>
      </contour>
      <contour>
        <pt x="23" y="35" on="1"/>
        <pt x="24" y="-2" on="0"/>
        <pt x="242" y="-2" on="0"/>
        <pt x="341" y="42" on="1"/>
        <pt x="218" y="67" on="0"/>
        <pt x="120" y="67" on="1"/>
        <pt x="23" y="61" on="0"/>
      </contour>
      <contour>
        <pt x="1107" y="576" on="1"/>
        <pt x="1107" y="537" on="0"/>
        <pt x="1012" y="476" on="1"/>
        <pt x="1026" y="459" on="0"/>
        <pt x="1056" y="459" on="1"/>
        <pt x="1116" y="459" on="0"/>
        <pt x="1235" y="588" on="0"/>
        <pt x="1235" y="645" on="1"/>
        <pt x="1235" y="709" on="0"/>
        <pt x="1151" y="709" on="1"/>
        <pt x="1035" y="709" on="0"/>
        <pt x="938" y="610" on="1"/>
        <pt x="890" y="562" on="0"/>
        <pt x="813" y="463" on="0"/>
        <pt x="763" y="390" on="0"/>
        <pt x="762" y="389" on="1"/>
        <pt x="759" y="386" on="0"/>
        <pt x="757" y="382" on="1"/>
        <pt x="857" y="398" on="0"/>
        <pt x="985" y="475" on="1"/>
        <pt x="983" y="480" on="0"/>
        <pt x="983" y="490" on="1"/>
        <pt x="983" y="524" on="0"/>
        <pt x="1044" y="593" on="0"/>
        <pt x="1107" y="593" on="0"/>
      </contour>
      <contour>
        <pt x="212" y="351" on="1"/>
        <pt x="347" y="351" on="0"/>
        <pt x="515" y="403" on="1"/>
        <pt x="483" y="490" on="0"/>
        <pt x="283" y="606" on="0"/>
        <pt x="92" y="606" on="0"/>
        <pt x="0" y="539" on="0"/>
        <pt x="0" y="491" on="1"/>
        <pt x="0" y="351" on="0"/>
      </contour>
      <contour>
        <pt x="459" y="201" on="1"/>
        <pt x="466" y="218" on="0"/>
        <pt x="486" y="218" on="1"/>
        <pt x="579" y="218" on="1"/>
        <pt x="639" y="281" on="0"/>
        <pt x="706" y="366" on="1"/>
        <pt x="625" y="366" on="0"/>
        <pt x="625" y="430" on="1"/>
        <pt x="583" y="412" on="0"/>
        <pt x="535" y="397" on="1"/>
        <pt x="554" y="346" on="0"/>
        <pt x="554" y="298" on="1"/>
        <pt x="554" y="288" on="1"/>
        <pt x="554" y="280" on="0"/>
        <pt x="544" y="280" on="0"/>
        <pt x="544" y="287" on="1"/>
        <pt x="544" y="333" on="0"/>
        <pt x="520" y="392" on="1"/>
        <pt x="340" y="336" on="0"/>
        <pt x="191" y="336" on="1"/>
        <pt x="89" y="336" on="0"/>
        <pt x="-32" y="402" on="0"/>
        <pt x="-32" y="473" on="1"/>
        <pt x="-32" y="531" on="0"/>
        <pt x="91" y="621" on="0"/>
        <pt x="305" y="621" on="0"/>
        <pt x="489" y="500" on="0"/>
        <pt x="530" y="408" on="1"/>
        <pt x="582" y="425" on="0"/>
        <pt x="626" y="443" on="1"/>
        <pt x="632" y="482" on="0"/>
        <pt x="703" y="550" on="0"/>
        <pt x="774" y="550" on="0"/>
        <pt x="774" y="536" on="1"/>
        <pt x="774" y="496" on="0"/>
        <pt x="648" y="439" on="1"/>
        <pt x="648" y="381" on="0"/>
        <pt x="716" y="379" on="1"/>
        <pt x="835" y="532" on="0"/>
        <pt x="891" y="588" on="1"/>
        <pt x="1025" y="722" on="0"/>
        <pt x="1161" y="722" on="1"/>
        <pt x="1265" y="722" on="0"/>
        <pt x="1265" y="654" on="1"/>
        <pt x="1265" y="591" on="0"/>
        <pt x="1114" y="442" on="0"/>
        <pt x="1048" y="442" on="1"/>
        <pt x="1006" y="442" on="0"/>
        <pt x="991" y="463" on="1"/>
        <pt x="864" y="388" on="0"/>
        <pt x="748" y="369" on="1"/>
        <pt x="674" y="272" on="0"/>
        <pt x="622" y="218" on="1"/>
        <pt x="685" y="218" on="1"/>
        <pt x="694" y="217" on="0"/>
        <pt x="694" y="208" on="0"/>
        <pt x="690" y="203" on="1"/>
        <pt x="682" y="195" on="0"/>
        <pt x="674" y="195" on="1"/>
        <pt x="600" y="195" on="1"/>
        <pt x="510" y="105" on="0"/>
        <pt x="405" y="53" on="1"/>
        <pt x="615" y="15" on="0"/>
        <pt x="874" y="15" on="0"/>
        <pt x="958" y="70" on="1"/>
        <pt x="962" y="73" on="0"/>
        <pt x="968" y="73" on="0"/>
        <pt x="968" y="61" on="0"/>
        <pt x="961" y="56" on="1"/>
        <pt x="931" y="31" on="0"/>
        <pt x="768" y="-10" on="0"/>
        <pt x="685" y="-10" on="1"/>
        <pt x="586" y="-10" on="0"/>
        <pt x="470" y="14" on="1"/>
        <pt x="454" y="18" on="0"/>
        <pt x="382" y="33" on="0"/>
        <pt x="368" y="36" on="1"/>
        <pt x="241" y="-16" on="0"/>
        <pt x="94" y="-16" on="1"/>
        <pt x="-5" y="-9" on="0"/>
        <pt x="-5" y="27" on="1"/>
        <pt x="2" y="79" on="0"/>
        <pt x="147" y="79" on="1"/>
        <pt x="238" y="79" on="0"/>
        <pt x="375" y="58" on="1"/>
        <pt x="467" y="106" on="0"/>
        <pt x="556" y="195" on="1"/>
        <pt x="470" y="195" on="1"/>
        <pt x="459" y="195" on="0"/>
      </contour>
    </TTGlyph>
    <TTGlyph name="M" xMin="25" yMin="-53" xMax="1463" yMax="699">
      <contour>
        <pt x="253" y="130" on="0"/>
        <pt x="279" y="164" on="0"/>
        <pt x="279" y="194" on="0"/>
        <pt x="276" y="201" on="1"/>
        <pt x="255" y="183" on="0"/>
        <pt x="230" y="147" on="0"/>
        <pt x="230" y="130" on="0"/>
        <pt x="237" y="130" on="1"/>
      </contour>
      <contour>
        <pt x="585" y="357" on="1"/>
        <pt x="585" y="349" on="0"/>
        <pt x="590" y="349" on="1"/>
        <pt x="609" y="349" on="0"/>
        <pt x="647" y="407" on="0"/>
        <pt x="654" y="447" on="1"/>
        <pt x="585" y="385" on="0"/>
      </contour>
      <contour>
        <pt x="813" y="636" on="1"/>
        <pt x="813" y="642" on="0"/>
        <pt x="807" y="642" on="1"/>
        <pt x="782" y="642" on="0"/>
        <pt x="738" y="575" on="0"/>
        <pt x="732" y="534" on="1"/>
        <pt x="813" y="606" on="0"/>
      </contour>
      <contour>
        <pt x="501" y="668" on="1"/>
        <pt x="591" y="668" on="0"/>
        <pt x="675" y="567" on="0"/>
        <pt x="675" y="494" on="1"/>
        <pt x="675" y="485" on="1"/>
        <pt x="713" y="518" on="1"/>
        <pt x="716" y="573" on="0"/>
        <pt x="781" y="668" on="0"/>
        <pt x="828" y="668" on="1"/>
        <pt x="843" y="668" on="0"/>
        <pt x="843" y="629" on="0"/>
        <pt x="784" y="563" on="0"/>
        <pt x="730" y="515" on="1"/>
        <pt x="730" y="510" on="1"/>
        <pt x="730" y="451" on="0"/>
        <pt x="775" y="451" on="1"/>
        <pt x="807" y="451" on="0"/>
        <pt x="826" y="468" on="1"/>
        <pt x="834" y="474" on="0"/>
        <pt x="841" y="474" on="0"/>
        <pt x="841" y="463" on="0"/>
        <pt x="833" y="460" on="0"/>
        <pt x="822" y="451" on="0"/>
        <pt x="816" y="447" on="1"/>
        <pt x="800" y="436" on="0"/>
        <pt x="770" y="436" on="1"/>
        <pt x="718" y="436" on="0"/>
        <pt x="713" y="500" on="1"/>
        <pt x="673" y="465" on="1"/>
        <pt x="667" y="410" on="0"/>
        <pt x="616" y="329" on="0"/>
        <pt x="584" y="329" on="1"/>
        <pt x="563" y="329" on="0"/>
        <pt x="563" y="350" on="1"/>
        <pt x="563" y="386" on="0"/>
        <pt x="657" y="469" on="1"/>
        <pt x="658" y="476" on="0"/>
        <pt x="658" y="489" on="1"/>
        <pt x="658" y="557" on="0"/>
        <pt x="573" y="650" on="0"/>
        <pt x="478" y="650" on="1"/>
        <pt x="431" y="650" on="0"/>
        <pt x="375" y="632" on="1"/>
        <pt x="267" y="599" on="0"/>
        <pt x="188" y="506" on="1"/>
        <pt x="182" y="500" on="0"/>
        <pt x="176" y="492" on="1"/>
        <pt x="165" y="476" on="0"/>
        <pt x="161" y="476" on="1"/>
        <pt x="154" y="480" on="0"/>
        <pt x="154" y="485" on="1"/>
        <pt x="174" y="514" on="0"/>
        <pt x="244" y="580" on="0"/>
        <pt x="319" y="628" on="0"/>
        <pt x="438" y="668" on="0"/>
      </contour>
      <contour>
        <pt x="451" y="277" on="1"/>
        <pt x="471" y="276" on="1"/>
        <pt x="487" y="275" on="0"/>
        <pt x="487" y="264" on="1"/>
        <pt x="486" y="261" on="0"/>
        <pt x="477" y="261" on="0"/>
        <pt x="461" y="265" on="0"/>
        <pt x="448" y="265" on="1"/>
        <pt x="362" y="265" on="0"/>
        <pt x="291" y="213" on="1"/>
        <pt x="297" y="200" on="0"/>
        <pt x="297" y="159" on="0"/>
        <pt x="261" y="119" on="0"/>
        <pt x="215" y="119" on="0"/>
        <pt x="215" y="135" on="1"/>
        <pt x="215" y="168" on="0"/>
        <pt x="271" y="213" on="1"/>
        <pt x="250" y="245" on="0"/>
        <pt x="124" y="245" on="0"/>
        <pt x="51" y="169" on="0"/>
        <pt x="51" y="58" on="0"/>
        <pt x="136" y="-28" on="0"/>
        <pt x="212" y="-28" on="1"/>
        <pt x="342" y="-28" on="0"/>
        <pt x="478" y="72" on="1"/>
        <pt x="523" y="105" on="0"/>
        <pt x="580" y="153" on="0"/>
        <pt x="659" y="233" on="0"/>
        <pt x="674" y="249" on="1"/>
        <pt x="717" y="297" on="1"/>
        <pt x="751" y="338" on="0"/>
        <pt x="849" y="447" on="0"/>
        <pt x="929" y="536" on="0"/>
        <pt x="996" y="603" on="0"/>
        <pt x="1030" y="634" on="1"/>
        <pt x="1101" y="699" on="0"/>
        <pt x="1132" y="699" on="1"/>
        <pt x="1141" y="699" on="0"/>
        <pt x="1141" y="684" on="0"/>
        <pt x="1133" y="680" on="1"/>
        <pt x="1095" y="656" on="0"/>
        <pt x="978" y="469" on="0"/>
        <pt x="826" y="201" on="0"/>
        <pt x="774" y="129" on="1"/>
        <pt x="789" y="139" on="0"/>
        <pt x="946" y="295" on="0"/>
        <pt x="1124" y="468" on="0"/>
        <pt x="1351" y="649" on="0"/>
        <pt x="1433" y="687" on="1"/>
        <pt x="1447" y="693" on="0"/>
        <pt x="1452" y="693" on="1"/>
        <pt x="1463" y="693" on="0"/>
        <pt x="1463" y="684" on="1"/>
        <pt x="1463" y="680" on="0"/>
        <pt x="1456" y="677" on="1"/>
        <pt x="1387" y="629" on="0"/>
        <pt x="1134" y="363" on="0"/>
        <pt x="921" y="72" on="0"/>
        <pt x="921" y="11" on="1"/>
        <pt x="921" y="-36" on="0"/>
        <pt x="960" y="-36" on="1"/>
        <pt x="1013" y="-36" on="0"/>
        <pt x="1075" y="13" on="1"/>
        <pt x="1104" y="36" on="0"/>
        <pt x="1108" y="36" on="1"/>
        <pt x="1118" y="36" on="0"/>
        <pt x="1118" y="29" on="1"/>
        <pt x="1118" y="26" on="0"/>
        <pt x="1115" y="23" on="1"/>
        <pt x="1007" y="-53" on="0"/>
        <pt x="885" y="-53" on="0"/>
        <pt x="885" y="4" on="1"/>
        <pt x="885" y="47" on="0"/>
        <pt x="994" y="222" on="0"/>
        <pt x="1070" y="313" on="1"/>
        <pt x="1251" y="530" on="0"/>
        <pt x="1354" y="614" on="1"/>
        <pt x="1365" y="624" on="0"/>
        <pt x="1376" y="634" on="1"/>
        <pt x="1386" y="643" on="1"/>
        <pt x="1322" y="612" on="0"/>
        <pt x="1093" y="417" on="0"/>
        <pt x="972" y="298" on="1"/>
        <pt x="767" y="96" on="0"/>
        <pt x="659" y="-19" on="1"/>
        <pt x="653" y="-28" on="0"/>
        <pt x="646" y="-28" on="1"/>
        <pt x="640" y="-24" on="0"/>
        <pt x="640" y="-15" on="0"/>
        <pt x="646" y="-9" on="0"/>
        <pt x="656" y="5" on="1"/>
        <pt x="684" y="44" on="0"/>
        <pt x="703" y="67" on="1"/>
        <pt x="740" y="110" on="0"/>
        <pt x="1017" y="588" on="0"/>
        <pt x="1065" y="640" on="1"/>
        <pt x="965" y="560" on="0"/>
        <pt x="806" y="371" on="1"/>
        <pt x="661" y="198" on="0"/>
        <pt x="524" y="86" on="1"/>
        <pt x="455" y="29" on="0"/>
        <pt x="286" y="-46" on="0"/>
        <pt x="119" y="-46" on="0"/>
        <pt x="25" y="44" on="0"/>
        <pt x="25" y="168" on="0"/>
        <pt x="118" y="259" on="0"/>
        <pt x="259" y="259" on="0"/>
        <pt x="285" y="224" on="1"/>
        <pt x="360" y="277" on="0"/>
      </contour>
    </TTGlyph>
</ttFont>
